<svg xmlns="http://www.w3.org/2000/svg" width="39" height="34" viewBox="0 0 39 34">
  <path fill="#8B3EB7" fill-rule="evenodd" stroke="#8B3EB7" stroke-width=".5" d="M34.5123892,17.9364678 C33.5082332,19.4051313 32.695345,21.0035837 31.8312244,22.5610501 C31.5067522,23.1485155 31.2779139,23.2987973 30.7314345,22.7352404 C30.0824901,22.0726341 29.8365744,21.4510137 30.0619972,20.4912592 C30.755343,17.5505167 31.3291464,14.5858657 31.9541822,11.6314611 C32.0088302,11.3684679 32.0908021,11.1088902 32.21376,10.6546291 C33.0266482,12.0447362 33.665346,13.3357939 34.4918962,14.5004782 C35.3423548,15.6993175 35.3560168,16.706889 34.5123892,17.9364678 M30.762174,23.6779174 C30.5709061,24.0433756 30.0927366,23.8042908 29.7409405,23.8418613 C29.5530882,23.8589388 29.3891443,23.7667204 29.4711163,23.5412976 C29.5804121,23.2270719 29.4881937,22.8547828 29.7272785,22.5849586 C30.0175957,22.5917895 30.1337226,22.8137968 30.266927,22.9743252 C30.4547793,23.1997479 30.9158713,23.3773538 30.762174,23.6779174 M28.6889676,28.0190136 C28.6411506,27.9916896 28.5899182,27.9677811 28.5386857,27.9404571 C28.706045,27.1719704 28.8768199,26.4068992 29.0339327,25.634997 C29.3003414,24.3097843 29.2935104,24.3097843 30.7519275,24.4190802 C30.0449197,25.6520744 29.3686514,26.8338363 28.6889676,28.0190136 M27.5789312,29.7950718 C27.3705859,30.6831009 27.1315011,30.7240868 26.5132963,30.0888045 C24.8157945,28.3469012 23.1251237,26.598167 21.4344529,24.8494328 C21.3285725,24.7367214 21.1475512,24.658165 21.1953681,24.3712632 C23.5520608,24.3712632 25.9155844,24.3746787 28.2825235,24.3678478 C28.6274886,24.3678478 28.7162915,24.4942211 28.6411506,24.8357708 C28.279108,26.4888711 27.9717133,28.1522179 27.5789312,29.7950718 M18.9821264,30.7104248 C16.5605393,30.6626079 14.1150438,30.7684883 11.474865,30.8367982 C12.7795847,29.2622543 14.1389523,28.02926 15.395855,26.6972164 C15.8432851,26.2258779 16.3692715,25.8160183 16.7449761,25.2934473 C17.2812091,24.5454536 17.9403999,24.3610168 18.83526,24.3302773 C19.9043104,24.2961223 20.5874098,24.6547495 21.291002,25.4403137 C22.8962854,27.2266184 24.6245267,28.8967962 26.2673805,30.7275023 C23.8184695,30.7001783 21.4037134,30.7616573 18.9821264,30.7104248 M10.9420475,30.498664 C10.7951812,30.6489459 10.6653923,30.8880306 10.3819061,30.7206713 C10.1667298,30.5942979 10.0471874,30.4201076 10.0471874,30.1707764 C10.0437719,28.3913027 10.0471874,26.611829 10.0403144,24.8289398 C10.0369409,24.4429887 10.2418707,24.3644323 10.5731739,24.3678478 C12.6019788,24.3746787 14.6273683,24.3712632 16.8645185,24.3712632 C14.7878966,26.5196106 12.8683876,28.5108451 10.9420475,30.498664 M10.0403564,20.2829139 C10.0369409,20.0165052 10.0847579,19.7876669 10.2794412,19.5861526 C11.0376814,18.7869264 11.7959217,17.9911157 12.5404999,17.1782275 C12.8069086,16.8879103 13.0050074,16.8537554 13.2953246,17.16115 C14.934763,18.8791448 16.5844478,20.5868931 18.2409636,22.2843949 C18.4902949,22.5439726 18.4971259,22.7079164 18.2546256,22.9845717 C17.7491321,23.5652061 17.2231457,23.9545727 16.3761025,23.8623543 C15.5358904,23.7769668 14.6820162,23.8452768 13.8349731,23.8452768 C12.7864157,23.8452768 11.7412737,23.8281993 10.6961318,23.8521078 C10.2487017,23.8623543 10.016448,23.7633049 10.0335254,23.2475649 C10.0642649,22.2604864 10.0437719,21.2699924 10.0403564,20.2829139 M12.3014151,16.6898115 C11.5739144,17.3831573 10.8498291,18.0799186 10.0847579,18.8074194 L10.0847579,14.1111116 C10.1428213,14.0701257 10.2008848,14.0325552 10.2589482,13.9915693 C10.952294,14.725901 11.6388088,15.4636483 12.3355701,16.191149 C12.5165914,16.3824168 12.4756055,16.5292832 12.3014151,16.6898115 M10.1803918,7.66606967 C10.5629274,6.93515341 11.7993372,7.0410338 12.5849014,6.60385024 C13.7085997,5.98222987 14.5624739,6.11543424 15.3719465,7.19814664 C16.0960318,8.16814766 16.9977229,9.00494431 17.858428,9.86564944 C18.2409636,10.2447696 18.1760692,10.4804388 17.831104,10.8356505 C16.3146236,12.3965324 14.8049741,13.9676608 13.3294796,15.5695287 C12.933282,15.9964657 12.6702888,15.9862192 12.3492321,15.5456202 C12.2672602,15.4329088 12.1613798,15.3338594 12.0554994,15.2450565 C10.5458499,13.9505833 9.42215156,12.4989973 10.0984199,10.5726572 C10.0984199,9.42846588 9.80468718,8.36966195 10.1803918,7.66606967 M10.0403564,2.51550088 C10.0403564,2.34472605 10.0301099,2.15004275 10.1906383,2.05099335 C10.3887371,1.93145097 10.491202,2.13296527 10.6004979,2.24226116 C11.6422243,3.31472707 12.6771198,4.39060848 13.8315576,5.58944777 C12.6600423,6.00955384 11.6456398,6.3511035 10.6483148,6.73705461 C10.1974693,6.91124493 10.0301099,6.82585752 10.0369409,6.33061052 C10.0506029,5.0600458 10.0403564,3.78606559 10.0403564,2.51550088 M17.5988503,1.78800012 C19.7232891,1.904127 21.8374815,1.56257735 24.1839276,1.84947906 C21.6393827,2.77166312 19.3100141,3.61529077 16.9772299,4.45891841 C16.8986735,4.48965788 16.8030396,4.49307338 16.7347297,4.53747483 C15.0030729,5.67483518 13.6881067,5.15226421 12.5814859,3.55381183 C12.1682108,2.95609994 11.6080694,2.45743744 10.979618,1.76409164 C13.2850782,1.76409164 15.4470875,1.67187324 17.5988503,1.78800012 M25.8848449,1.81873959 C25.9838943,1.78458462 26.1000212,1.8016621 26.3356904,1.78458462 C25.5432952,2.62821227 24.832872,3.389868 24.1190332,4.14469273 C22.4249469,5.93441292 20.7308606,7.72071761 19.0367743,9.5070223 C18.8147671,9.74610706 18.6405767,9.96469884 18.3024426,9.59582521 C17.3119486,8.50628181 16.2804686,7.45772438 15.2797281,6.37842747 C15.0406434,6.12226523 14.6820162,5.8558565 15.3617,5.61335624 C18.876246,4.36670001 22.3771299,3.0858888 25.8848449,1.81873959 M27.5994242,2.62138127 C28.7094605,4.55796781 29.8092504,6.49796985 30.9397798,8.4208944 C31.3086534,9.04934576 31.2847449,9.48994482 30.728019,10.0432553 C28.8631579,11.8944544 27.0631912,13.8139634 25.2359005,15.702733 C25.0651257,15.8769233 24.9285059,16.1091771 24.4879068,16.211642 C24.4469208,16.1433321 24.3854419,15.9725573 24.2727305,15.8530149 C22.7016021,14.1862526 21.1373047,12.5126593 19.5354368,10.8766364 C19.1392392,10.4736078 19.0880068,10.255016 19.5115283,9.81441699 C21.8374815,7.38599895 24.1292797,4.92342594 26.4279088,2.47109943 C27.0802687,1.77775363 27.1178391,1.78116912 27.5994242,2.62138127 M25.3725204,17.0313612 C25.1607596,16.8127694 25.1026962,16.6419946 25.3417809,16.3960788 C27.4423113,14.2272385 29.5325952,12.0481517 31.6502031,9.84515646 C31.69802,10.4838543 29.6760461,20.2282659 29.2969259,21.164112 C27.9375583,19.7296034 26.6567471,18.3770668 25.3725204,17.0313612 M19.4842044,22.8581983 C19.2417041,22.6122825 19.4842044,22.4517542 19.6344862,22.2946414 C21.1987836,20.668865 22.776743,19.0499196 24.3342095,17.4138968 C24.6347732,17.0962556 24.8021325,17.1713965 25.0651257,17.4582982 C26.2878735,18.7869264 27.4901283,20.1428785 28.781186,21.3997813 C29.5360107,22.134113 29.0236862,22.8137968 28.8870664,23.5003116 C28.760693,24.1390095 28.1834741,23.8111218 27.8214314,23.8281993 C26.752381,23.8760162 25.6764996,23.8452768 24.6040337,23.8452768 C23.4735043,23.8452768 22.336144,23.7769668 21.2158611,23.8657698 C20.341494,23.9340797 19.9657894,23.3431988 19.4842044,22.8581983 M18.3126891,21.686683 C16.7791311,20.0609066 15.2114182,18.4727007 13.6573673,16.8708328 C13.442191,16.6522411 13.1860288,16.4985437 13.5378249,16.1330856 C15.1431083,14.4629078 16.7176522,12.765406 18.3058581,11.0781507 C18.401492,10.9791013 18.5142034,10.8937139 18.5995908,10.818573 C18.8591685,10.8356505 18.9718799,11.0166718 19.1016688,11.1567071 C20.6932901,12.8405469 22.274665,14.5346332 23.8799484,16.204811 C24.1873431,16.5258677 24.262484,16.71372 23.9038569,17.0757626 C22.3907919,18.5990741 20.8948044,20.139463 19.4363874,21.7140069 C18.9787109,22.2092539 18.7293796,22.127282 18.3126891,21.686683 M19.5730073,23.8145373 L18.3195201,23.8145373 C18.8933235,22.8718603 18.9445559,22.8718603 19.5730073,23.8145373 M9.50753898,26.9328857 C9.53144745,27.6638019 9.51436997,28.3981337 9.36067263,29.2076063 C8.45556604,27.6433089 7.55045946,26.082427 6.54630348,24.3405238 C7.64950886,24.4464042 8.75954524,23.9955586 9.37091912,24.5557001 C9.86616611,25.0133766 9.4836305,26.116582 9.50753898,26.9328857 M9.51436997,23.3295368 C9.51778547,23.6710865 9.41190507,23.8555233 9.03620046,23.8486923 C8.35651664,23.8350303 7.68024833,23.8452768 7.00056452,23.8452768 C6.83320519,23.8452768 6.6214444,23.8555233 6.57021195,23.6710865 C6.54288798,23.5754526 6.65218387,23.4149242 6.74098678,23.3227058 C7.6085229,22.4039372 8.48630551,21.4919997 9.51095447,20.4195337 C9.51095447,21.5295701 9.50412348,22.4312612 9.51436997,23.3295368 M5.36112618,22.2570709 C4.3535547,20.5185831 3.3664762,18.7698489 2.33158075,17.0518542 C2.03101705,16.5531917 1.99344659,16.1399166 2.28717929,15.6412541 C3.31865925,13.8856889 4.31939973,12.1130462 5.35087969,10.3608964 C5.80172523,9.59582521 5.99299304,9.58557872 6.61461341,10.2174456 C6.93225459,10.5385023 7.18841683,10.9381154 7.54704396,11.2011086 C9.36067263,12.5331522 9.95155353,14.3023794 9.39482759,16.5053747 C10.1291593,18.8484053 9.04986244,20.5424916 7.27721974,21.9565072 C7.09961392,22.0931271 6.95274757,22.2741484 6.80246572,22.4415077 C5.99299304,23.3466143 5.99299304,23.3466143 5.36112618,22.2570709 M6.90493061,8.69071863 C7.7075723,8.34916897 8.54095346,8.08617574 9.44606004,7.75828807 L9.44606004,12.3145605 C8.51704498,11.4367778 7.58461443,10.5760727 6.67950784,9.68804362 C6.25940177,9.27818403 6.45408507,8.88198643 6.90493061,8.69071863 M9.34359514,3.41036097 C9.39824309,3.42402296 9.45289103,3.43426945 9.50753898,3.44451594 L9.50753898,6.84976599 C9.50753898,7.0342028 9.43922905,7.16740717 9.25137674,7.2357171 C8.46922803,7.51920331 7.68707932,7.80610502 6.90151512,8.08959124 C6.85028267,8.0281123 6.79905022,7.96321786 6.74781777,7.90173893 C7.6119384,6.40575144 8.47947452,4.90976396 9.34359514,3.41036097 M36.8895747,15.4807258 C36.5172856,15.221148 36.3055248,14.8898448 36.0937641,14.5243867 C35.3901718,13.2982235 34.7548894,12.0242433 33.9522477,10.8629744 C33.17693,9.73586057 33.3511203,8.07592925 31.9371048,7.32793551 C31.8961188,7.30402703 31.8824568,7.2323016 31.8551328,7.18106916 C30.8509769,5.44258142 29.8468209,3.70067818 28.8392494,1.96560594 C28.6684746,1.66845774 28.5455167,1.38155603 28.5216082,1.0195134 C28.4737913,0.281766143 27.8794949,-0.203234365 27.247628,0.083667344 C26.3391059,0.503773419 25.4135064,0.408139515 24.5015688,0.360322564 C22.6025527,0.261273164 20.6693817,0.73944268 18.8011051,0.0460968821 C18.6576542,-0.00513556603 18.421985,0.00852642014 18.3092736,0.0939138337 C17.8037801,0.483280439 17.2333922,0.37398455 16.6766662,0.377400047 C14.9757489,0.38423104 13.2782472,0.380815543 11.5773299,0.380815543 C11.1538083,0.380815543 10.7610262,0.343245081 10.3511666,0.148561778 C9.61341937,-0.199818869 8.93715106,0.169054758 8.86884112,0.971696445 C8.82443967,1.45669695 8.62292537,1.83240157 8.4009181,2.21835268 C6.97324054,4.69800317 5.54214749,7.17765366 4.11105444,9.65730415 C3.20594786,11.2250171 2.29742578,12.79273 1.3889037,14.3570274 C1.13615696,14.7907954 0.893656702,15.207486 0.439395662,15.5114652 C-0.137823254,15.9008318 -0.148069743,16.6215016 0.418902682,17.0211147 C0.866332729,17.3353404 1.12591047,17.7417845 1.35133324,18.1892145 C2.43063015,20.3170689 4.06665299,22.1511905 4.67119588,24.5249606 C4.70193534,24.6479185 4.82147772,24.7913693 4.93760461,24.8460173 C5.44992909,25.0816865 5.6309504,25.5769335 5.88369715,26.0072861 C6.77172625,27.5203511 7.63243138,29.047078 8.51021399,30.566974 C8.6980663,30.8880306 8.81419318,31.2056718 8.83810166,31.5950384 C8.8893341,32.3737716 9.59975738,32.7938777 10.3033497,32.4352506 C10.6858853,32.2405673 11.0479279,32.2098278 11.44071,32.2098278 C12.458528,32.2098278 13.4797615,32.1654264 14.4975794,32.2200743 C15.8330386,32.2917997 17.2026527,31.9400036 18.5073724,32.520638 C18.6815627,32.5957789 18.9957884,32.547962 19.1529012,32.4318351 C19.5149438,32.1688419 19.900895,32.2132433 20.2902616,32.2098278 C21.2261076,32.2064123 22.1619537,32.2098278 23.0943842,32.2098278 C23.1797716,32.2098278 23.265159,32.2029968 23.3505465,32.2098278 C24.6860056,32.3191237 26.0385422,31.9946515 27.3671704,32.4967295 C27.9682978,32.7221523 28.3576644,32.2371518 28.5079462,31.6462709 C28.5660097,31.4310946 28.5181927,31.1612704 28.6309041,30.9904955 C29.9663633,28.9446131 30.7519275,26.5537655 32.5040772,24.7674608 C32.688514,24.5796085 32.8148874,24.3610168 32.7875634,24.0843615 C32.7499929,23.7189034 32.9378452,23.4354172 33.1052046,23.138269 C33.9249237,21.7174224 34.7173189,20.2829139 35.5711931,18.8791448 C35.9708062,18.219954 36.2303839,17.4685447 36.9578847,17.0006217 C37.5146106,16.6385791 37.4599627,15.8803388 36.8895747,15.4807258" transform="translate(1 1)"/>
</svg>
