<svg xmlns="http://www.w3.org/2000/svg" width="36" height="37" viewBox="0 0 36 37">
  <path fill="#8B3EB7" fill-rule="evenodd" d="M24.208771,28.991217 C24.308282,29.0151955 24.3346585,29.0175934 24.4293739,29.0559591 C24.5384764,29.1015184 24.6319928,29.1626638 24.7279071,29.2310027 L28.7742919,32.4681106 L28.7742919,30.1673661 L28.7790877,30.0570647 C28.8006684,29.9083975 28.8330395,29.7681228 28.9001795,29.6326439 C29.0488466,29.3329117 29.3234013,29.1063141 29.6447143,29.0139966 C29.7538168,28.9828245 29.8605215,28.973233 29.9732208,28.9684373 L33.5700073,28.9684373 L33.5700073,6.18878952 L33.5760019,6.07489128 C33.5903891,5.97418126 33.5903891,5.94900376 33.6191633,5.85069159 C33.6827066,5.63128762 33.810992,5.43226543 33.9836377,5.28239933 C34.3349239,4.97907033 34.8444686,4.90473674 35.2664916,5.09776429 C35.3707984,5.14572144 35.4679116,5.20806574 35.5542345,5.28239933 C35.6693316,5.38191042 35.765246,5.50420116 35.8347838,5.63968012 C35.9043217,5.77515908 35.9474831,5.92382625 35.9618703,6.07489128 C35.9654671,6.11325701 35.9654671,6.1504238 35.9678649,6.18878952 L35.9678649,30.1673661 C35.9606714,30.3172322 35.9414885,30.4599048 35.8863378,30.6001794 C35.7520577,30.9478688 35.4559223,31.2188267 35.0974426,31.3207357 C34.9883401,31.3519078 34.8816354,31.3614993 34.7689361,31.366295 L31.1721496,31.366295 L31.1721496,34.9630815 L31.166155,35.0793776 C31.1601603,35.1189422 31.1565635,35.1573079 31.14937,35.1956737 C31.1193967,35.3491365 31.0582514,35.4954059 30.9719285,35.6260891 C30.7081641,36.0229345 30.2190012,36.2291503 29.7514189,36.1416285 C29.597956,36.1116553 29.4504878,36.0529078 29.3186056,35.9677838 C29.2862346,35.9462031 29.2562613,35.9222245 29.2238903,35.8994449 L23.5577526,31.366295 L15.5860748,31.366295 L15.4721766,31.3603003 C15.4350098,31.3555046 15.396644,31.3519078 15.3594773,31.3447143 C15.2096111,31.31594 15.0657397,31.2583914 14.9374543,31.1756653 C14.5466035,30.9250892 14.3331942,30.456308 14.3991353,29.9971182 C14.4159203,29.88322 14.4482913,29.7729186 14.4950496,29.6698107 C14.5585928,29.5307349 14.6485125,29.4048474 14.7588139,29.2993417 C14.9242661,29.142282 15.1340786,29.0331795 15.3594773,28.990018 C15.4589883,28.9708352 15.4853648,28.973233 15.5860748,28.9684373 L23.9785766,28.9684373 L24.0936738,28.974432 C24.1320395,28.9792277 24.1704052,28.9852223 24.208771,28.991217 Z M30.0835222,0.198941083 C30.2321894,0.220521802 30.3724641,0.25289288 30.507943,0.320032895 C30.8076752,0.46870007 31.0342728,0.743254772 31.1265903,1.0645677 C31.1577625,1.17367022 31.1673539,1.28037489 31.1721496,1.3930742 L31.1721496,25.3716508 C31.164956,25.5215169 31.1457732,25.6641895 31.0906224,25.8044641 C30.9563424,26.1521535 30.660207,26.4231114 30.3017273,26.5250204 C30.1926247,26.5561925 30.0859201,26.5657839 29.9732208,26.5705796 L14.80797,26.5705796 L9.14183234,31.1037296 L9.04711696,31.1720685 C9.01354695,31.1912514 8.97997694,31.2128321 8.94520801,31.230816 C8.80733119,31.3027517 8.65506723,31.3471121 8.49920648,31.3614993 C8.02443067,31.4034618 7.55684842,31.1504878 7.33384766,30.7296638 C7.260713,30.5917869 7.21395478,30.439523 7.19956763,30.2836622 C7.19597084,30.2452965 7.19597084,30.2057319 7.19357299,30.1673661 L7.19357299,26.5705796 L1.19892883,26.5705796 L1.08862738,26.5657839 C0.977126997,26.5501979 0.87162126,26.531015 0.766115523,26.4890525 C0.453195098,26.3691596 0.201420044,26.1173845 0.0815271605,25.8044641 C0.0263764343,25.6641895 0.00719357299,25.5215169 0,25.3716508 L0,1.3930742 C0.00479571532,1.28037489 0.014387146,1.17367022 0.0455592956,1.0645677 C0.147468246,0.706087978 0.418426162,0.409952557 0.766115523,0.275672528 C0.906390196,0.220521802 1.04906273,0.20133894 1.19892883,0.194145367 C10.8275263,0.194145367 20.4657151,-0.245861514 30.0835222,0.198941083 Z M2.39785766,2.59200303 L2.39785766,24.172722 L8.39250182,24.172722 C8.50520113,24.1775177 8.61190579,24.1871091 8.72100832,24.2182813 C9.07948804,24.3201902 9.37562346,24.5911481 9.50990349,24.9388375 C9.56505421,25.0791122 9.58423707,25.2217847 9.59143065,25.3716508 L9.59143065,27.6723952 L13.6378155,24.4352874 L13.7313319,24.3681474 C13.7649019,24.3477656 13.797273,24.3273838 13.830843,24.3093999 C13.9339509,24.2554481 14.0442523,24.2170824 14.1569516,24.1955016 C14.2588606,24.1751198 14.285237,24.1775177 14.387146,24.172722 L28.7742919,24.172722 L28.7742919,2.59200303 C19.9825468,2.59200303 11.1896028,2.59200303 2.39785766,2.59200303 Z M15.6532148,16.9815469 C15.8342531,16.995934 16.0068988,17.0402944 16.1663564,17.1290151 C16.3030342,17.2045476 16.425325,17.3076555 16.5236371,17.4311452 C16.6075622,17.535452 16.6735033,17.6553449 16.7178636,17.7824313 C16.8521436,18.1672875 16.7778101,18.6060954 16.5236371,18.9250105 C16.4540993,19.0137312 16.3713732,19.0904627 16.2802546,19.1564038 C16.0932217,19.2882859 15.8798124,19.3554259 15.6532148,19.3746088 C12.4352898,19.4657274 9.21376807,19.3770067 5.99464415,19.3770067 C5.8136059,19.3722109 5.63856229,19.337442 5.47430904,19.2583127 C5.33283544,19.1899738 5.20574898,19.0940595 5.10024325,18.9765644 C4.8280864,18.6720365 4.72977424,18.2392232 4.84247355,17.8459745 C4.8736457,17.7380709 4.92040392,17.6349631 4.97915143,17.5402477 C5.05108716,17.4263495 5.14220576,17.3244405 5.24771149,17.2405155 C5.44433582,17.0834558 5.67812694,17.0019286 5.92750414,16.9815469 C9.16820877,16.8904283 12.4125102,16.8904283 15.6532148,16.9815469 Z M20.4633173,12.1858315 C20.5460434,12.194224 20.6251727,12.2050144 20.7055009,12.227794 C20.888937,12.279348 21.0603838,12.3752623 21.2006585,12.5059455 C21.3001696,12.599462 21.3828957,12.7097634 21.4464389,12.8308552 C21.663445,13.2504803 21.6094932,13.7720144 21.3121589,14.1388866 C21.225836,14.2443923 21.1215292,14.3355109 21.0052331,14.4062477 C20.8373831,14.5081567 20.6563448,14.5585117 20.4633173,14.5788935 C15.6436234,14.7431467 10.8179348,14.5812913 5.99464415,14.5812913 C5.80041768,14.5740978 5.61578264,14.536931 5.44313689,14.4470113 C5.2980665,14.3714788 5.16858219,14.2659731 5.06427538,14.1388866 C4.97795251,14.0333809 4.91081249,13.9122891 4.8652532,13.7840037 C4.69740316,13.3116257 4.84846819,12.7685109 5.23812006,12.4519937 C5.38678724,12.3321009 5.56302978,12.2469769 5.7512616,12.2086112 C5.8219984,12.194224 5.83998234,12.194224 5.91311699,12.1858315 C10.7603863,12.0203794 15.616048,12.0203794 20.4633173,12.1858315 Z M22.7796478,9.78557601 L5.99464415,9.78557601 C5.81240697,9.77838244 5.63976122,9.74601136 5.47430904,9.66688206 C5.34002901,9.6021399 5.21773827,9.51222024 5.11582932,9.40191879 C4.84846819,9.11417587 4.73816674,8.70294328 4.82568854,8.31928605 C4.85206498,8.20298996 4.89642535,8.09029065 4.95637179,7.98718277 C5.01631823,7.88407489 5.09185074,7.78935951 5.17937255,7.70783235 C5.33283544,7.56515982 5.52346512,7.4644498 5.72728303,7.41769157 C5.81600376,7.39730978 5.90352556,7.39131514 5.99464415,7.38771835 C11.6200182,7.38771835 17.2477902,7.18030366 22.8695674,7.39131514 C23.0506057,7.41169693 23.2208536,7.4560573 23.3791122,7.54837482 C23.8011352,7.79175737 24.0373241,8.28331819 23.9653884,8.76528758 C23.9474045,8.88398153 23.9114366,8.9990787 23.8598827,9.1069823 C23.7951405,9.24126233 23.7052208,9.36355307 23.5949194,9.46546202 C23.4414565,9.60813455 23.2508268,9.70884457 23.0470089,9.75560279 C22.9582882,9.77598458 22.8707664,9.78197923 22.7796478,9.78557601 Z"/>
</svg>
