<svg xmlns="http://www.w3.org/2000/svg" width="42" height="43" viewBox="0 0 42 43">
  <path fill="#8B3EB7" stroke="#8B3EB7" stroke-width=".5" d="M16.6370862,9.33333333 C17.9371879,9.33333333 18.9949721,10.3910335 18.9949721,11.6912399 L18.9949721,12.3946944 C20.3945938,12.7109785 21.7362943,13.2659446 23.0000204,14.0514782 L23.5353015,13.5257993 C23.9788042,13.0901276 24.5655708,12.8501397 25.1874073,12.8501397 C25.817265,12.8501397 26.4094413,13.0954441 26.8547162,13.540816 L27.7745528,14.4605675 C28.222719,14.9088309 28.4680212,15.50465 28.4650366,16.1385239 C28.4622384,16.7723045 28.2116198,17.3659784 27.7595362,17.8101378 L27.2590451,18.301586 C28.0255445,19.5142103 28.5845165,20.8544302 28.9272867,22.3014461 L29.6421141,22.3014461 C30.9422158,22.3014461 32,23.3591463 32,24.6592593 L32,25.970565 C32,27.2706781 30.9422158,28.3284716 29.6421141,28.3284716 L28.9272867,28.3284716 C28.5838636,29.7779125 28.0236791,31.1200911 27.255221,32.334301 L27.7836933,32.8626847 C28.7029704,33.7819698 28.7029704,35.2779533 27.7836933,36.1972384 L26.8637634,37.1171764 C26.4184886,37.5624551 25.8263123,37.8077594 25.1965478,37.8077594 C24.5666901,37.8077594 23.9745138,37.5624551 23.5292389,37.1171764 L23.0008598,36.5886994 C21.7865673,37.3571642 20.4444937,37.9173536 18.9949721,38.2607797 L18.9949721,38.9756134 C18.9948788,40.2755399 17.9371879,41.3333333 16.6369929,41.3333333 L15.3256987,41.3333333 C14.025597,41.3333333 12.9678128,40.2755399 12.9678128,38.9754268 L12.9678128,38.2605931 C11.5207163,37.9178199 10.1806947,37.3588431 8.96808098,36.592337 L8.47663712,37.0927392 C8.02968343,37.5478114 7.43228394,37.798339 6.79431165,37.7984323 C6.16454718,37.7984323 5.57246413,37.5531279 5.12709604,37.1078492 L4.20725938,36.1880045 C3.29619018,35.2767408 3.28947468,33.7877527 4.19224278,32.8684676 L4.7180103,32.3331818 C3.9324836,31.0693513 3.37752232,29.7277324 3.0613343,28.328285 L2.3578859,28.328285 C1.05778418,28.328285 0,27.2704916 0,25.9703785 L0,24.6590728 C0,23.3589597 1.05769091,22.3012596 2.3578859,22.3012596 L3.0613343,22.3012596 C3.37705597,20.9039574 3.93080472,19.5642039 4.71437274,18.3021456 L4.21639992,17.8041685 C3.29712289,16.8847901 3.29712289,15.3888999 4.21639992,14.4696148 L5.13642312,13.5496769 C5.58169794,13.1043981 6.17387427,12.8590938 6.80363873,12.8590938 C7.43340319,12.8590938 8.02557952,13.1043981 8.47085433,13.5496769 L8.96892042,14.0477473 C10.2308744,13.2641724 11.5705229,12.7104188 12.9679061,12.3946944 L12.9679061,11.6912399 C12.9679061,10.3911268 14.025597,9.33333333 15.325792,9.33333333 L16.6370862,9.33333333 Z M16.6369929,11.1985792 L15.3256987,11.1985792 C15.0541874,11.1985792 14.8332289,11.4195396 14.8332289,11.6910533 L14.8332289,13.164092 C14.8332289,13.6223354 14.5003454,14.0126772 14.0478887,14.0851492 C12.3984878,14.3491079 10.8287402,14.9964129 9.38211008,16.0090629 C9.01135863,16.2685445 8.5076963,16.2245203 8.18768417,15.9045054 L7.15181863,14.8686308 C7.05882764,14.7755457 6.93515056,14.7243396 6.80363873,14.7243396 C6.67212689,14.7243396 6.54844981,14.7755457 6.45545882,14.8685375 L5.53543562,15.7884755 C5.34348431,15.9805218 5.34348431,16.2928884 5.53543562,16.4849347 L6.57130116,17.520716 C6.89131328,17.8407309 6.93543037,18.3443977 6.675951,18.7151524 C5.66321662,20.162075 5.01591725,21.7319296 4.75205414,23.3811584 C4.679676,23.8337122 4.28933769,24.1665054 3.83100496,24.1665054 L2.3578859,24.1665054 C2.08637459,24.1665054 1.86541606,24.3873726 1.86541606,24.6588863 L1.86541606,25.9701919 C1.86541606,26.2417056 2.08637459,26.4626661 2.3578859,26.4626661 L3.83100496,26.4626661 C4.28924442,26.4626661 4.67958273,26.7954592 4.75205414,27.2480131 C5.01591725,28.8972419 5.66321662,30.4670965 6.675951,31.9139258 C6.93365823,32.2820689 6.89215272,32.781725 6.57727049,33.1023928 L5.52331041,34.1754828 C5.33481012,34.3674358 5.33620918,34.6784966 5.52648162,34.868864 L6.44631828,35.7886154 C6.53930927,35.8816072 6.66298636,35.9329066 6.79449819,35.9329066 C6.87172641,35.9329066 7.01993372,35.9136927 7.14594257,35.7855375 L8.18190138,34.7306355 C8.36294001,34.5463307 8.60441812,34.45166 8.84748183,34.45166 C9.0383139,34.45166 9.23026521,34.5100481 9.39460836,34.6292492 C10.7513255,35.6127984 12.3229385,36.2706431 14.0657967,36.5844089 C14.5100456,36.6643426 14.8332289,37.0509535 14.8332289,37.5023881 L14.8332289,38.9754268 C14.8332289,39.2469405 15.0541874,39.467901 15.3256987,39.467901 L16.6369929,39.467901 C16.9085043,39.467901 17.1294628,39.2469405 17.1294628,38.9754268 L17.1294628,37.5023881 C17.1294628,37.0509535 17.4526461,36.6644359 17.896895,36.5844089 C19.6397532,36.2706431 21.2113662,35.6127984 22.5681766,34.6291559 C22.9393011,34.3602539 23.4509847,34.4007337 23.7751008,34.7247593 L24.8481814,35.7978493 C24.9411724,35.8908411 25.0647562,35.9421405 25.1963613,35.9421405 C25.3278731,35.9421405 25.4514569,35.8908411 25.5444479,35.7978493 L26.4643778,34.8779113 C26.6564224,34.6858651 26.6564224,34.3735917 26.4643778,34.1815454 L25.3912973,33.1084555 C25.0670879,32.7842433 25.0266084,32.2725552 25.2956947,31.9015207 C26.2793286,30.5446985 26.9371675,28.9730717 27.2509305,27.2302915 C27.3308636,26.7860388 27.7174711,26.4627594 28.1689018,26.4627594 L29.6419276,26.4627594 C29.9134389,26.4627594 30.1343974,26.2417989 30.1343974,25.9702852 L30.1343974,24.6589795 C30.1343974,24.3874658 29.9134389,24.1665987 29.6419276,24.1665987 L28.1689018,24.1665987 C27.7174711,24.1665987 27.3309569,23.8433192 27.2509305,23.3990665 C26.9371675,21.656193 26.2793286,20.0845663 25.2957879,18.727744 C25.0248363,18.3540047 25.0680206,17.8382126 25.3973599,17.5148399 L26.4522526,16.478872 C26.5466427,16.38616 26.5989676,16.2621088 26.5995272,16.1297564 C26.6001801,15.9974039 26.5489745,15.8728863 26.4553306,15.7793349 L25.5354939,14.8595835 C25.4425029,14.7664984 25.3188258,14.7152923 25.187314,14.7152923 C25.0573878,14.7152923 24.9349232,14.7653791 24.8423986,14.856319 L23.7691314,15.9103815 C23.4485597,16.2251732 22.9488147,16.2666791 22.5807681,16.0090629 C21.1339514,14.9964129 19.5642038,14.3490146 17.914803,14.0851492 C17.4623463,14.0127704 17.1294628,13.6223354 17.1294628,13.164092 L17.1294628,11.6910533 C17.1294628,11.4195396 16.9085043,11.1985792 16.6369929,11.1985792 Z M15.6216659,18.672192 C19.4221847,18.8189528 22.5142581,21.9110709 22.6610168,25.7116446 C22.7387229,27.7239033 22.0127085,29.6310081 20.6167083,31.0819217 C19.2197467,32.5337968 17.3433499,33.3333333 15.3332181,33.3333333 C11.2896165,33.3333333 8,30.0435819 8,26.0000092 C8,21.8608104 11.4488746,18.5118826 15.6216659,18.672192 Z M15.3331307,20.4147917 C12.2535567,20.4147917 9.74808129,22.9203033 9.74808129,25.9999218 C9.74808129,29.0795403 12.2535567,31.5850519 15.3331307,31.5850519 C16.863565,31.5850519 18.2925181,30.9758063 19.3568032,29.869724 C20.4201268,28.7645158 20.9731599,27.3116792 20.9139844,25.7789501 C20.802189,22.8851646 18.4478428,20.530697 15.5540118,20.4189874 C15.4803265,20.4161903 15.4062915,20.4147917 15.3331307,20.4147917 Z M27.0021621,0.369457947 C27.4527417,0.682510113 27.7536546,1.15125725 27.8494376,1.68926372 L27.9206013,2.08847449 C29.0097034,2.16198172 30.0524468,2.39155331 31.0362898,2.7740495 L31.2690118,2.44308225 C31.583953,1.99520526 32.0554359,1.6960973 32.5966888,1.60079647 C33.1379418,1.50568032 33.6841186,1.62545279 34.1346982,1.93850496 L34.9859686,2.52997962 C35.4365482,2.84303179 35.7373682,3.31168658 35.8332441,3.84978539 C35.92912,4.38788421 35.808439,4.930785 35.4934978,5.37866199 L35.2607757,5.70953689 C35.9615431,6.49807744 36.5376347,7.39503192 36.9815254,8.38885712 L37.4210495,8.31553457 C38.5291038,8.13019661 39.5919143,8.87533464 39.7881255,9.9760039 L39.9678928,10.9845121 C40.0643261,11.5259353 39.94188,12.0715142 39.622851,12.5207763 C39.303822,12.9699462 38.8276941,13.2674842 38.2821676,13.3585372 L37.8846356,13.4248414 C37.8196964,14.4739817 37.5913408,15.51241 37.2020771,16.5270129 L37.5437744,16.7644339 C37.994354,17.0774861 38.295174,17.5461409 38.3910499,18.0841474 C38.4869258,18.6221538 38.3662448,19.1650546 38.0513965,19.6129316 L37.4563527,20.4590959 C37.1414114,20.9068806 36.6698357,21.2059885 36.1286757,21.3013817 C36.0075301,21.3227136 35.886013,21.3333333 35.7654249,21.3333333 C35.34764,21.3333333 34.9404461,21.2066349 34.5907592,20.9636732 L33.6344155,20.2992454 C33.2139365,20.006971 33.1112786,19.4312875 33.4052238,19.0132382 C33.6992618,18.5951889 34.2784192,18.4932391 34.6989912,18.7854211 L35.6553348,19.4499413 C35.7113553,19.4888189 35.7670971,19.4890036 35.80463,19.4827241 C35.8416983,19.4761675 35.8942814,19.4566826 35.9334864,19.4009057 L36.5285303,18.5547414 C36.5677353,18.4989646 36.5681069,18.4432801 36.5615108,18.4063418 C36.5549147,18.3694034 36.5353122,18.3171357 36.4791988,18.2781658 L35.5228551,17.613738 C35.1543088,17.3576632 35.0232227,16.87608 35.2114442,16.4702203 C35.7865139,15.2301089 36.0668952,13.9469644 36.0445984,12.6565246 C36.0366088,12.1995054 36.3662287,11.8055583 36.8196883,11.7299271 L37.9746586,11.5372015 C38.0424778,11.525843 38.0828906,11.4867807 38.1048157,11.4558449 C38.1266479,11.4250014 38.1502453,11.3740265 38.1382608,11.3067065 L37.9584935,10.2981983 C37.9394484,10.1913542 37.836326,10.1188628 37.7285585,10.1369626 L36.5536141,10.3330127 C36.1116744,10.4067969 35.6806044,10.1569093 35.5271286,9.7389523 C35.057411,8.45996336 34.3477249,7.35800127 33.4176728,6.4639095 C33.0896322,6.14845635 33.0405794,5.64295559 33.3021014,5.27107917 L33.9705386,4.32047179 C34.0098366,4.26469495 34.0102082,4.2089181 34.0035192,4.17207214 C33.997016,4.13513383 33.9773205,4.08286612 33.9212071,4.04389621 L33.0699368,3.45242154 C33.0139163,3.41363631 32.9578028,3.41317459 32.9207345,3.41963879 C32.8835733,3.42619534 32.8309902,3.4456803 32.7917852,3.50145714 L32.123348,4.45197217 C31.861826,4.8238486 31.3672103,4.95174749 30.956579,4.7538505 C29.7939906,4.19368105 28.5113716,3.90962545 27.1441179,3.90962545 L27.1369644,3.90962545 C26.6863848,3.90962545 26.3007444,3.58835451 26.2221484,3.14721876 L26.0197127,2.01145812 C26.0077282,1.94441509 25.9683374,1.90479875 25.9374936,1.88328218 C25.9066498,1.86185797 25.8555531,1.83886387 25.7881055,1.85049944 L24.7734188,2.0291885 C24.7060641,2.04100876 24.6662087,2.08016337 24.6444694,2.11100686 C24.6229159,2.141758 24.5995972,2.19245583 24.6115817,2.25940651 L24.8142961,3.39498247 C24.892985,3.83621057 24.6415894,4.26986631 24.2180445,4.42352967 C22.9312449,4.8904299 21.822819,5.59585925 20.9232391,6.52042512 C20.6059753,6.84649804 20.0973313,6.8952566 19.7231179,6.63530326 L18.7667743,5.97078308 C18.7106609,5.93181317 18.6545474,5.93153613 18.6173862,5.93800033 C18.580225,5.94455688 18.5276419,5.96404184 18.4884369,6.01981869 L17.893393,6.86598299 C17.830219,6.95574308 17.8524228,7.07976346 17.9427245,7.14255858 L18.8989753,7.80698641 C19.3195472,8.09916843 19.4221122,8.67485197 19.128167,9.09290128 C18.8342219,9.51095059 18.2551574,9.61290032 17.8344925,9.3207183 L16.8781489,8.65629047 C15.9480968,8.00996241 15.7204844,6.73217397 16.3705268,5.80779279 L16.9655706,4.96162849 C17.2805118,4.51384384 17.7519947,4.21473588 18.2932476,4.11943505 C18.8345006,4.02422656 19.3807703,4.14409137 19.8311641,4.45714354 L20.1642215,4.68856204 C20.9558481,3.99347542 21.8560783,3.42176274 22.8532992,2.98090403 L22.7821355,2.58150856 C22.6862596,2.0435021 22.8069406,1.50060131 23.121789,1.05272431 C23.4367302,0.604939665 23.908213,0.30583171 24.449466,0.210530874 L25.4641527,0.0318418052 C26.0054986,-0.0633666856 26.5516754,0.056590472 27.0021621,0.369457947 Z M32.1027738,7.84872418 C34.7914257,9.66847083 35.4679166,13.0784899 33.6430655,15.6119968 C33.4621886,15.8631769 33.1574791,16 32.8463368,16 C32.671136,16 32.4938539,15.9565882 32.3355866,15.8657107 C31.8961655,15.6134326 31.7690219,15.0908023 32.0515948,14.6984918 C33.3453565,12.9023936 32.8656354,10.4849329 30.9597113,9.19482657 C29.950036,8.51147142 28.7051829,8.23199766 27.4535186,8.40758725 C26.2010028,8.58351467 25.1123358,9.18975905 24.388166,10.114666 C24.0887542,10.4968415 23.498823,10.5901684 23.070754,10.3229411 C22.6425904,10.0557139 22.5380564,9.52919848 22.8373736,9.14685405 C23.8590632,7.84196749 25.3939626,6.98682339 27.159499,6.73893717 C28.9239948,6.49113541 30.6794089,6.88530406 32.1027738,7.84872418 Z" transform="translate(1 1)"/>
</svg>
