<svg xmlns="http://www.w3.org/2000/svg" width="34" height="26" viewBox="0 0 34 26">
  <path fill="#8B3EB7" fill-rule="evenodd" d="M0.74881781,0.000441567764 C2.16246311,0.0283971403 2.16246311,0.000441567764 2.16246311,1.435998 C2.16246311,8.41129113 2.17455201,15.3903621 2.14659644,22.3686774 C2.14357421,23.1144112 2.28259652,23.3584558 3.09935257,23.3554336 C13.0628698,23.3214335 23.0301647,23.3335224 32.9967041,23.3335224 C33.9864825,23.3335224 33.9864825,23.3335224 33.9864825,24.3270786 C33.9864825,24.5091676 33.9675936,24.6920122 33.9895047,24.8680567 C34.0454159,25.3289459 33.8844824,25.5178349 33.3926155,25.4898793 C32.7247039,25.4528571 32.0530146,25.4808126 31.3851031,25.4808126 L31.3851031,25.4808126 L16.9358499,25.4808126 C11.5532688,25.4808126 6.17446556,25.4740126 0.791884503,25.4929015 C0.213128595,25.4929015 -0.00296042592,25.384857 3.05806862e-05,24.7411233 C0.0249951467,16.7322295 0.0219729226,8.72711355 3.05806862e-05,0.718219783 C3.05806862e-05,0.118308306 0.188950802,-0.00862510442 0.74881781,0.000441567764 Z M31.0783474,2.14115843 C31.6042144,2.13209175 31.8399479,2.36102523 31.8399479,2.87102554 C31.8369256,5.13844914 31.8399479,7.40285052 31.8399479,9.67027412 C31.8399479,9.93925206 31.8180367,10.1991633 31.5241254,10.3109856 C31.2271919,10.4250746 30.9831473,10.3230745 30.7632805,10.0971633 C30.3333692,9.655163 29.8535911,9.24942942 29.460702,8.77645136 C29.0338128,8.25965104 28.7557682,8.35862888 28.3160346,8.8013847 C25.2227883,11.9346755 22.1015864,15.0407663 18.9871845,18.1551682 C18.0654061,19.0807243 18.0616284,19.0837465 17.1217167,18.1491237 C16.1500716,17.1903231 15.1663377,16.2436115 14.226426,15.2538331 C13.8856703,14.894944 13.7066035,14.9387662 13.3817144,15.2696998 C11.4112243,17.2673899 9.40975642,19.2348577 7.44228855,21.2393478 C7.0463772,21.6413036 6.80233261,21.7531259 6.37846568,21.2642812 C5.68562082,20.4694363 4.93384258,19.7206802 4.17299767,18.9938354 C3.81713079,18.6538351 3.86397526,18.4521017 4.18810879,18.1279682 C7.20428841,15.1329441 10.2083791,12.129609 13.2086921,9.11645156 C13.6537146,8.66840685 14.0156259,8.69334019 14.4455373,9.13534046 C15.4730934,10.1870744 16.5338941,11.2017862 17.5486058,12.2595646 C17.9014505,12.6244981 18.1145173,12.7144093 18.5194953,12.2996091 C20.7597189,10.0231188 23.0203425,7.76778408 25.2945661,5.52529382 C25.6557219,5.16640471 25.677633,4.94729347 25.2907883,4.60955993 C24.8268769,4.20458191 24.4158544,3.74067051 23.9730986,3.30773692 C23.7411429,3.08182567 23.540165,2.84684775 23.661054,2.50004753 C23.7910096,2.12604731 24.1219432,2.14720288 24.4339878,2.14720288 C25.5416329,2.14418065 26.649278,2.14720288 27.7561676,2.14720288 C28.8638127,2.14720288 29.9714578,2.16004733 31.0783474,2.14115843 Z"/>
</svg>
