<svg xmlns="http://www.w3.org/2000/svg" xmlns:xlink="http://www.w3.org/1999/xlink" width="1600" height="456" viewBox="0 0 1600 456">
  <defs>
    <linearGradient id="bg-image-b" x1="50%" x2="50%" y1="100%" y2="0%">
      <stop offset="0%" stop-color="#FFF"/>
      <stop offset="100%" stop-color="#F8FAFF"/>
    </linearGradient>
    <rect id="bg-image-a" width="1600" height="456" x="0" y="0"/>
    <linearGradient id="bg-image-d" x1="0%" x2="116.28%" y1="30.184%" y2="75.225%">
      <stop offset="0%" stop-color="#9EA7FC"/>
      <stop offset="100%" stop-color="#65B6F7"/>
    </linearGradient>
    <linearGradient id="bg-image-e" x1="39.742%" x2="114.965%" y1="58.114%" y2="20.124%">
      <stop offset="0%" stop-color="#9EA7FC"/>
      <stop offset="100%" stop-color="#FFF"/>
    </linearGradient>
    <linearGradient id="bg-image-f" x1="0%" x2="100%" y1="8.702%" y2="91.298%">
      <stop offset="0%" stop-color="#38B8F2"/>
      <stop offset="100%" stop-color="#843CF6"/>
    </linearGradient>
    <linearGradient id="bg-image-g" x1="50%" x2="-26.993%" y1="19.02%" y2="147.586%">
      <stop offset="0%" stop-color="#FFF"/>
      <stop offset="100%" stop-color="#989AE6"/>
    </linearGradient>
    <linearGradient id="bg-image-h" x1="100%" x2="-142.483%" y1="31.948%" y2="183.447%">
      <stop offset="0%" stop-color="#FFF"/>
      <stop offset="100%" stop-color="#989AE6"/>
    </linearGradient>
  </defs>
  <g fill="none" fill-rule="evenodd">
    <mask id="bg-image-c" fill="#fff">
      <use xlink:href="#bg-image-a"/>
    </mask>
    <use fill="url(#bg-image-b)" xlink:href="#bg-image-a"/>
    <g mask="url(#bg-image-c)">
      <g fill-rule="nonzero" transform="translate(-197 -291)">
        <g transform="rotate(13 110.294 968.038)">
          <path fill="url(#bg-image-d)" d="M28.2719505,169.463535 C75.6994865,89.1348885 145.12623,75.0184773 229.406749,77.9972923 C301.521647,80.5481056 379.69638,100.186502 445.916103,73.2548814 C511.932874,46.4073322 557.265794,-2.67528415 628.800557,0.991390587 C724.704852,5.90576654 766.867128,82.2792195 761.929273,156.724754 C755.082522,259.945756 665.845002,311.546703 576.659178,304.954714 C502.855568,299.499604 424.696153,292.09938 359.37248,339.225416 C299.206848,382.629369 259.422553,478.35461 175.186072,480.410546 C79.6493879,482.743537 -59.4491748,318.029782 28.2719505,169.463535" opacity=".048" transform="translate(774.59 499.605)"/>
          <path fill="url(#bg-image-e)" d="M10.0999443,224.903473 C36.1191943,153.504334 89.4776239,131.942529 157.216913,121.896865 C215.180327,113.301428 280.503632,117.510358 329.407882,86.1490069 C378.162882,54.8842343 407.120491,8.84303626 464.783851,1.22895581 C542.092241,-8.98026745 587.030484,46.0286599 594.071663,106.442837 C603.836655,190.208626 540.192413,244.74401 468.000499,252.618227 C408.261632,259.134123 344.755757,264.734086 299.546999,312.153857 C257.907804,355.828895 240.263655,438.445095 173.30171,452.522109 C97.3567802,468.487066 -38.0238526,356.956676 10.0999443,224.903473" opacity=".065" transform="translate(959.226 204.89)"/>
          <g opacity=".051">
            <path fill="url(#bg-image-f)" d="M76.4495141,185.424535 C139.730268,160.288773 282.696154,176.968072 329.239324,129.612706 C375.640727,82.4001864 430.770192,31.2014347 493.990967,7.21367026 C578.751227,-24.9494447 644.361881,57.1670932 669.507334,120.775607 C704.372908,208.971143 647.697039,285.486363 568.076739,313.719456 C502.189655,337.081831 431.7733,360.479047 393.979694,424.247827 C359.17228,482.980396 362.63103,577.403693 290.702494,610.939528 C209.122903,648.973287 -16.1409845,528.22045 0.918301333,371.855763 C10.1404211,287.315008 2.49262101,214.798659 76.4495141,185.424535 Z" opacity=".554"/>
          </g>
        </g>
        <g transform="translate(840.84 372.355)">
          <path fill="url(#bg-image-g)" d="M96,48 C96,74.5098379 74.508973,96 48,96 C21.490162,96 0,74.5098379 0,48 C0,21.4910271 21.490162,0 48,0 C74.508973,0 96,21.4910271 96,48" opacity=".195"/>
          <polygon fill="url(#bg-image-h)" points="895.245 226.703 982.714 275.953 982.714 374.453 895.245 423.703 807.777 374.453 807.777 275.953" opacity=".31" transform="rotate(-30 895.245 325.203)"/>
        </g>
      </g>
    </g>
  </g>
</svg>
