<svg xmlns="http://www.w3.org/2000/svg" width="36" height="36" viewBox="0 0 36 36">
  <path fill="#8B3EB7" fill-rule="evenodd" d="M32.3935788,33.4731382 C27.0327356,33.4355285 21.6681462,33.443021 16.307303,33.4692445 C15.5842822,33.4731382 15.3482702,33.2969183 15.3555906,32.5401815 C15.3969711,28.8613919 15.3932249,25.1826022 15.3595089,21.5038125 C15.3520164,20.7845379 15.5243426,20.5335411 16.2848256,20.5522722 C18.5587822,20.6047193 20.836485,20.5710033 23.1104415,20.5710033 C25.0547306,20.5672571 25.6503798,19.9603692 25.654126,17.9861103 C25.654126,15.7084076 25.6840958,13.434451 25.6353949,11.1567482 C25.6241563,10.4449661 25.8489296,10.2614012 26.5382343,10.2763861 C28.5312243,10.3175946 30.5279604,10.3175946 32.5209504,10.2763861 C33.191524,10.2614012 33.360104,10.4974132 33.3563578,11.1342709 C33.3301342,14.719405 33.3451191,18.3045392 33.3451191,21.8896733 C33.3451191,25.4111217 33.3226418,28.9363163 33.360104,32.4577647 C33.3675965,33.2032628 33.2065089,33.4804832 32.3935788,33.4731382 M14.5128628,16.9896154 C13.4264585,18.0722734 12.8308092,19.349735 12.8720177,20.9156557 C12.9094799,22.2268333 12.8532866,23.5380109 12.8907488,24.8454422 C12.9132261,25.5122697 12.7296613,25.7894901 12.0066405,25.7782514 C9.13703467,25.7445354 6.26742886,25.7445354 3.40156928,25.7821454 C2.70477205,25.7894901 2.57740051,25.5122697 2.58863918,24.8978893 C2.61860895,23.0285247 2.59987784,21.1591601 2.59987784,19.2860493 C2.59987784,17.4166846 2.62235517,15.5435738 2.58489296,13.6742092 C2.57365429,13.0673213 2.75347293,12.8650253 3.37159951,12.876264 C5.71298806,12.9062337 8.05063038,12.8912489 10.3882727,12.8875026 C12.1302658,12.8837564 12.8570328,12.1644819 12.8757639,10.3625492 C12.894495,8.08859267 12.9057337,5.81088989 12.8645252,3.53693334 C12.8495403,2.81391255 13.0405977,2.5629157 13.7973344,2.58539303 C15.7903244,2.63409391 17.7870605,2.62285525 19.7837967,2.58913925 C20.3944308,2.57790059 20.5892343,2.76146545 20.5817419,3.37959203 C20.5480259,5.68351836 20.5555183,7.99119091 20.5779957,10.2988635 C20.5854881,10.7858723 20.4056695,11.1117936 20.076002,11.4377149 C18.2141298,13.2808559 16.3672425,15.1389819 14.5128628,16.9896154 M10.2871247,4.87058825 C10.2871247,6.31662982 10.2758861,8.01741446 10.2946665,9.7181991 C10.2983634,10.1827306 10.088575,10.2988635 9.67274437,10.2951172 C7.99443706,10.2801324 6.31987597,10.291371 4.69026954,10.291371 C6.57461904,8.46321484 8.47020721,6.63131244 10.2871247,4.87058825 M23.0617406,12.3517929 C23.0617406,14.0076229 23.0579944,15.6859302 23.0617406,17.3642375 C23.0654869,17.7126362 23.0018011,17.9786179 22.5672394,17.9786179 C20.8402312,17.9711255 19.113223,17.9748717 17.4386619,17.9748717 C19.3192652,16.0980146 21.1698987,14.2436349 23.0617406,12.3517929 M35.9375045,10.0778364 C35.9337583,8.50442328 35.2407073,7.80762605 33.6560555,7.8001336 C31.0374466,7.78889494 28.4188376,7.80387983 25.8002287,7.79638738 C25.1034314,7.79264116 24.4253653,7.87131182 23.8072387,8.20472554 C23.2303206,8.51940817 23.0467557,8.36206685 23.0542482,7.72520917 C23.0767255,5.97946987 23.0654869,4.23373057 23.0617406,2.48799127 C23.0542482,0.742251967 22.3799283,0.0304698484 20.6566663,0.0154849617 C18.2216222,-0.00324614666 15.7903244,-0.00699236834 13.3590265,0.0154849617 C11.7369125,0.0342160701 10.3320794,0.596149321 9.17075066,1.77246293 C6.6720208,4.29741634 4.14332117,6.79989242 1.63709887,9.3210996 C0.55818703,10.4075039 0,11.7186815 0,13.265871 C0.00374622168,17.4766242 0,21.6836311 0.00374622168,25.8943843 C0.00374622168,27.5801841 0.681812345,28.254504 2.38634321,28.2582502 C5.60060141,28.2657426 8.81111338,28.2732351 12.0253716,28.2470115 C12.6697217,28.2432653 12.9057337,28.441815 12.8907488,29.1011501 C12.8532866,30.6296085 12.8720177,32.1580669 12.8832563,33.6865254 C12.894495,35.3123856 13.520114,35.9417508 15.1534667,35.9454971 C21.293524,35.9529895 27.4373276,35.9529895 33.5811311,35.9454971 C35.2706771,35.9454971 35.9375045,35.2599385 35.9375045,33.5591538 C35.9412508,29.6593371 35.9412508,25.7632665 35.9412508,21.8634498 C35.9412508,17.9336632 35.944997,14.0038767 35.9375045,10.0778364"/>
</svg>
