<svg xmlns="http://www.w3.org/2000/svg" width="68" height="68" viewBox="0 0 68 68">
  <path fill="#8B3EB7" fill-rule="evenodd" d="M33.9600617,59.4494624 C35.0150152,59.4494624 35.0955065,59.9848812 35.098556,60.6553187 L35.0980447,60.8601001 L35.0980447,60.8601001 L35.0977285,60.964778 C35.0977285,63.2967588 35.1166109,65.6240191 35.1307727,67.956 L35.1307727,67.956 L32.7893506,67.956 C32.8035125,65.6240191 32.8223949,63.2967588 32.8223949,60.964778 C32.8223949,60.1575538 32.7468652,59.4494624 33.9600617,59.4494624 Z M18.0327267,65.7373137 C19.8312787,65.7373137 18.9721279,67.134614 19.2034377,67.956 L19.2034377,67.956 L16.8620156,67.956 C16.9170894,67.7643433 16.9122796,67.5413312 16.8953818,67.3120309 L16.8790523,67.1145325 C16.8193413,66.4219909 16.7737402,65.7373137 18.0327267,65.7373137 Z M49.8637937,65.7373137 C51.6293015,65.7373137 50.8126361,67.134614 51.0581078,67.956 L51.0581078,67.956 L48.7166857,67.956 C48.7796271,67.7382226 48.7633463,67.4791555 48.739546,67.2162169 L48.7214063,67.0188717 C48.6637099,66.3625322 48.6710531,65.7404608 49.8637937,65.7373137 Z M17.9383145,61.4793243 C18.8069066,61.4698831 19.2884087,61.7389578 19.1751141,62.6878003 C19.2978499,63.4903038 18.934363,63.778261 18.1318595,63.7829816 C17.3010323,63.7877022 16.8006477,63.6366427 16.8667362,62.6405942 C16.9139423,61.8994586 17.1027667,61.4934862 17.9383145,61.4793243 Z M49.8610908,61.5279381 L50.0101325,61.531251 C50.8692834,61.5642953 51.0250635,62.0552387 50.9731368,62.7727712 C51.1100345,63.669687 50.5341201,63.7263343 49.8449112,63.7499373 C49.0848932,63.7735404 48.7402887,63.5422305 48.7450093,62.7019621 C48.7544505,61.7720021 49.1368199,61.4934862 50.0101325,61.531251 Z M17.8627847,57.2779823 C18.6464058,57.2685411 19.2553644,57.3723945 19.1467904,58.3637224 C19.2223202,59.0670931 19.0807019,59.5485952 18.2073892,59.5249922 C17.4709742,59.5061098 16.8242507,59.5344334 16.8997805,58.4817376 C16.9469866,57.8114111 16.9894721,57.2874235 17.8627847,57.2779823 Z M49.750499,57.2732617 C50.6379735,57.2496586 50.9967398,57.5564982 51.0014604,58.477017 C51.0061811,59.3408884 50.6190911,59.5297128 49.8732349,59.5249922 C49.1320993,59.5249922 48.6364353,59.3644915 48.773333,58.5100612 C48.7166857,57.7783668 48.8677451,57.2921441 49.750499,57.2732617 Z M34.1158418,55.2433526 C34.946669,55.1961465 35.2204643,55.6115601 35.078846,56.2677247 C35.163817,57.2637732 34.5879027,57.3204205 33.9175762,57.3487442 C32.9592926,57.3912297 32.78463,56.8719627 32.8176743,56.0647385 C32.8494763,55.2577628 33.3332014,55.2508585 33.8347216,55.2490635 L34.0227779,55.2470773 L34.0227779,55.2470773 Z M36.9812987,12.408593 C37.255094,11.152911 37.991509,11.0112927 39.0583667,11.2284407 C41.7585551,11.7854726 44.2321542,12.8853745 46.5688557,14.3204397 C47.3477562,14.7972212 47.7301256,15.4109004 47.2863883,16.2558894 C46.516929,17.7334401 46.493326,19.1307403 47.7206843,20.3250544 C48.8630717,21.429677 50.2084453,21.4485594 51.5963044,20.7121444 C52.5640293,20.2023186 53.1918703,20.6413352 53.7064167,21.4910449 C55.0895551,23.7710991 56.1469715,26.1738891 56.7134446,28.7891065 C56.9636369,29.9503763 56.8078568,30.715115 55.4341596,31.0125134 C53.980212,31.3240736 53.1541054,32.4475785 53.1116199,33.8826437 C53.0596932,35.4357241 53.895241,36.6300382 55.4388802,36.9840839 C56.8130239,37.2956441 56.9636369,38.0556621 56.7134446,39.2074907 C56.1422509,41.8274288 55.0848345,44.2302188 53.701696,46.510273 C53.1871497,47.3599826 52.554588,47.789558 51.5915838,47.2797323 C50.1990041,46.5433172 48.8583511,46.5669203 47.7159637,47.6762634 C46.5735763,48.7808859 46.4602817,50.1215389 47.206138,51.5235598 C47.7773317,52.5998587 47.3099914,53.2560233 46.3705901,53.8083346 C44.6192442,54.8327068 42.8065303,55.7012988 40.8569188,56.3008162 C40.8098337,56.3153411 40.7628138,56.3299747 40.715875,56.3446535 L40.4353406,56.4327612 C38.7594879,56.958573 37.2296754,57.3785676 36.5847675,54.733574 C36.2920898,53.5439805 34.9797605,53.0388753 33.7240784,53.1474493 C32.4778376,53.2513027 31.3401709,53.9216292 31.0946992,55.144267 C30.7170505,57.0797167 29.5746631,57.0230694 28.1679216,56.6407 C25.9067498,56.0270209 23.7683139,55.1159433 21.738452,53.9310704 C20.6432707,53.2890676 20.2420189,52.6612266 20.7896096,51.2969706 C21.7526138,48.8989012 20.4166815,46.859598 18.0988624,46.8171126 C16.9375926,46.5244348 15.8565731,48.2096922 14.8180391,47.1994819 C13.701143,46.1153153 13.0735537,44.6623958 12.4927678,43.2125492 L12.2264247,42.5449613 C11.8534966,41.6102808 11.5608188,40.6378353 11.2964647,39.6606692 C10.942419,38.3436193 10.8810511,37.272041 12.7126474,36.9038335 C14.034418,36.6347588 14.770833,35.4546065 14.8180391,34.1092329 C14.8652452,32.6505647 14.1146683,31.3948827 12.7032062,31.0927637 C10.8668893,30.7009532 10.9565809,29.6340955 11.2917441,28.3217662 C11.763805,26.5090523 12.4246903,24.7671476 13.2885618,23.1054932 C14.166595,21.4060739 14.8369215,19.9521263 17.452139,21.0284252 C19.769958,21.9819882 21.9131145,19.3431677 20.8887424,16.8978922 C20.2184159,15.307047 20.676315,14.6603235 21.9508794,13.9475116 C24.141242,12.7248738 26.4024138,11.7335459 28.8712923,11.2284407 C29.9428706,11.0065721 30.6651238,11.1670728 30.9389191,12.4133136 C31.2835235,13.9852764 32.4306316,14.8538685 33.9648295,14.8538685 C35.4943068,14.8491479 36.6414148,13.9805558 36.9812987,12.408593 Z M48.7497299,54.0774093 C48.7308475,53.2418615 49.1368199,52.9633456 49.9015585,53.0435959 C50.7182239,52.958625 50.9731368,53.3645973 51.0061811,54.1434978 C51.0439459,55.1253845 50.5671644,55.3047677 49.7221754,55.2953265 C48.8110978,55.2906059 48.7638917,54.7713389 48.7497299,54.0774093 Z M17.895829,53.0294341 C18.6983325,53.0247135 19.260085,53.1710524 19.1420698,54.129336 C19.2128789,54.8563098 19.019334,55.2906059 18.1743449,55.2858852 C17.3860032,55.2858852 16.8478538,55.1820318 16.9045011,54.1954245 C16.942266,53.5062156 17.0413988,53.0388753 17.895829,53.0294341 Z M29.7493256,14.8208243 C28.8429687,13.5037743 28.1112742,13.4565682 26.9122395,14.0277619 C26.0719711,14.4290137 25.1844966,14.7358533 24.3300664,15.1087814 C23.4095476,15.5100332 23.0130164,15.9443292 23.2348851,17.2141731 C23.8957703,20.9670573 20.8793011,23.85607 17.0131223,23.2612733 C16.0217944,23.1054932 15.5638953,23.2659939 15.2192909,24.1062623 C14.770833,25.1825612 14.336537,26.2635806 13.8503142,27.3209971 C13.3971358,28.312325 13.5434746,28.8835187 14.5395232,29.6010513 C17.8911556,32.0132825 17.8958762,35.9785941 14.5489644,38.3861048 C13.5623571,39.0989167 13.3876945,39.6653898 13.8455936,40.6614383 C14.2374042,41.511148 14.5820086,42.3750194 14.9030101,43.2530527 C15.3514679,44.4851317 15.917941,44.9430308 17.4663008,44.6833973 C20.9265072,44.0980417 23.8768879,47.2278056 23.2396057,50.7682624 C23.0130164,52.028665 23.3859446,52.4771228 24.3206252,52.8830952 C25.1750554,53.2513027 26.0578093,53.5675835 26.8980777,53.9593941 C28.0876712,54.516426 28.8288068,54.5117054 29.744605,53.1852142 C31.8688791,50.1073771 36.084383,50.168745 38.2464219,53.2654646 C39.0866903,54.4692199 39.7711787,54.540029 40.8994042,54.0066002 C41.8104818,53.5723041 42.7687654,53.2418615 43.6940048,52.8358891 C44.5295526,52.462961 44.8930395,52.0569886 44.6994945,50.8957188 C44.0574917,47.0720255 47.0078724,44.0602769 50.7890802,44.7306034 C52.096689,44.9619132 52.4554552,44.456808 52.8661482,43.5834953 C53.1965909,42.8801246 53.4987099,42.1578714 53.8102701,41.44978 C54.4192286,40.0760828 54.5750087,39.1036373 52.9322368,38.0178972 C50.3831079,36.3373604 50.0149004,32.2162687 52.4365728,30.497967 C54.8235861,28.7979266 54.1950814,27.2861058 53.3875258,25.5161944 L53.247863,25.2101695 L53.247863,25.2101695 L53.1777084,25.0551047 C52.6112353,23.7994227 52.1863805,22.9685955 50.3311812,23.3084794 C47.1022846,23.9032761 44.2699191,20.8537626 44.5814793,17.3699532 C45.4802833,15.9380351 44.4093554,15.4519172 43.2992248,14.9827964 L43.0614432,14.8821922 C42.4194404,14.6083968 41.7585551,14.3723664 41.1354347,14.0655268 C39.8561496,13.4329652 39.0630873,13.5415392 38.1142449,14.9057952 C36.0607799,17.8420141 31.7980699,17.794808 29.7493256,14.8208243 Z M52.9180277,49.8619054 C52.9180277,48.8894599 53.4089711,48.6581501 54.2256364,48.7478417 C55.2924941,48.6487089 55.2736117,49.3568002 55.2924941,50.0979359 C55.3066559,50.9570867 54.8251538,51.0939844 54.1123418,51.1175874 C53.1918231,51.1459111 52.9180277,50.7304975 52.9180277,49.8619054 Z M0,48.7525151 C0.821385979,48.9885455 2.21868627,48.1246741 2.21868627,49.9232261 C2.21868627,51.1822126 1.53400913,51.1366115 0.84146745,51.0769005 L0.643969055,51.060571 C0.414668791,51.0436732 0.191656728,51.0388634 0,51.0939372 L0,51.0939372 Z M62.8313068,48.7620035 C63.7990316,48.7431211 63.7235019,49.3898445 63.7187813,50.0696122 C63.8179141,50.8485127 63.4166623,51.0845432 62.6330412,51.0939844 C61.7030812,51.1034256 61.4340065,50.6927326 61.4387271,49.8241405 C61.4434477,48.7808859 62.0760093,48.7761653 62.8313068,48.7620035 Z M5.19600403,48.7481854 L5.34845008,48.7525151 C6.12262997,48.7950006 6.46251382,49.0593547 6.47667565,49.8618582 C6.49083748,50.7587739 6.15095362,51.1741875 5.23515546,51.0656135 C4.38544583,51.1977906 4.19662147,50.7446121 4.17301842,49.984594 C4.14941538,49.116002 4.39488705,48.7005884 5.34845008,48.7525151 Z M66.7446917,48.7478417 C67.6368868,48.7147974 68.0145356,49.0027546 67.9626089,49.9232733 C67.924844,50.603041 67.8917997,51.1931172 66.9665603,51.0656607 C66.1121301,51.1789553 65.6683928,50.8532333 65.6919959,49.9232733 C65.7108783,49.1962995 65.9044233,48.7856065 66.7446917,48.7478417 Z M9.20601817,48.7937664 L9.35152658,48.7950478 C10.0785004,48.8328126 10.8101948,48.7761653 10.6544147,49.8005375 C10.7771505,50.7541005 10.3617369,51.0562195 9.48370363,51.0609401 C8.68120009,51.0656607 8.39796354,50.7588211 8.43100781,49.9893619 C8.45933146,49.347359 8.4262872,48.7525623 9.35152658,48.7950478 Z M17.9477557,48.7903272 C18.8069066,48.7761653 19.1987171,49.0405194 19.1656728,49.951597 C19.1420698,50.688012 18.9390836,51.1270286 18.1082564,51.0278959 C17.2491056,51.1506317 16.8761774,50.796586 16.9045011,49.8949497 C16.9233835,49.1490934 17.1405316,48.7997684 17.9477557,48.7903272 Z M13.7039281,48.7903272 C14.5536378,48.7903272 15.0256987,49.0310782 14.9029628,49.951597 C15.0256987,50.9476455 14.4214607,51.0420577 13.6378396,51.0514989 C12.7692475,51.0609401 12.6842766,50.5699968 12.6701148,49.8902291 C12.6606735,49.1443728 12.8872628,48.7856065 13.7039281,48.7903272 Z M58.5025083,48.7903272 C59.4088652,48.7950478 59.4419095,49.3190354 59.4655125,49.9988031 C59.4938362,50.8249097 59.1303493,51.1270286 58.36089,51.0326165 C57.5631071,51.1081462 57.2562675,50.7635417 57.237385,49.9657588 C57.213782,49.0169164 57.6386368,48.7856065 58.5025083,48.7903272 Z M49.7599403,48.7903272 C50.6474148,48.7761653 51.0156223,49.0688431 50.9967398,49.9893619 C50.982578,50.8154684 50.6238117,51.1034256 49.8543524,51.0326165 C49.0660107,51.122308 48.7402887,50.7777036 48.7591711,49.9704794 C48.773333,49.2576675 48.8866276,48.7997684 49.7599403,48.7903272 Z M33.9128556,21.2265876 C40.9087982,21.1983671 46.7387505,27.0047163 46.7293207,34.0101001 C46.719868,41.015484 40.8851952,46.8171126 33.8892525,46.7651859 C26.8791481,46.7179798 21.096402,40.8455421 21.1908141,33.8684819 C21.2805057,26.9339071 26.9924427,21.259735 33.9128556,21.2265876 Z M34.0450326,23.4405275 C28.196198,23.4123328 23.4519859,28.0526915 23.4047798,33.85432 C23.3528531,39.7173165 27.9696088,44.4804111 33.7617961,44.5512202 C39.6295132,44.6220293 44.425652,40.0335973 44.5153436,34.2555718 C44.6050351,28.2792807 39.9505146,23.4689801 34.0450326,23.4405275 Z M33.9836647,27.6466951 C37.543004,27.6561603 40.3187221,30.4507609 40.3093049,34.0195414 C40.2998397,37.5788806 37.5052391,40.3545987 33.9364586,40.3451815 C30.3771194,40.3357163 27.6014013,37.5411157 27.6108185,33.9770559 C27.6202837,30.412996 30.4148843,27.6372779 33.9836647,27.6466951 Z M34.040312,29.8181993 C31.7177724,29.7757138 29.8531318,31.5459422 29.7823227,33.8590407 C29.7067929,36.2759925 31.5855953,38.1972804 33.9978266,38.178398 C36.3298074,38.1547949 38.1283595,36.3468016 38.1425585,34.0195414 C38.1519625,31.6922811 36.3628517,29.8606848 34.040312,29.8181993 Z M0,32.8252273 C2.33670149,32.8393891 4.66868238,32.8582715 7.00538387,32.8582715 C7.04027533,32.8582715 7.07500616,32.8581198 7.10952438,32.8579297 L7.31366637,32.8572344 C7.98286227,32.8594227 8.52541999,32.9368799 8.52541999,33.9959383 C8.52541999,35.2138555 7.80788741,35.1336051 7.00538387,35.1336051 C4.66868238,35.1336051 2.33670149,35.1572081 0,35.1666494 L0,35.1666494 Z M56.4018372,32.8582715 C57.3317972,32.8441097 57.298753,33.4766713 57.3034736,34.1847627 C57.3554003,34.9211777 56.9352661,35.1336051 56.1799686,35.1477669 C55.1036697,35.1666494 55.1933613,34.4774404 55.1791995,33.7693491 C55.160317,32.8629921 55.7456726,32.8677127 56.4018372,32.8582715 Z M11.6315808,32.8723861 C12.3963194,32.7638121 12.7645269,33.0800929 12.7173208,33.8825965 C12.6842766,34.4915551 12.8022918,35.1193961 11.8487288,35.1429991 C10.9990191,35.1666022 10.5647231,34.9164099 10.602488,33.9958911 C10.6308116,33.297241 10.7677093,32.7826946 11.6315808,32.8723861 Z M66.7918978,32.8535509 C67.7549021,32.792183 67.9531676,33.2453615 67.9485285,34.0950711 C67.9390058,34.9164571 67.5944013,35.1477669 66.8296627,35.1383257 C64.7431535,35.1100021 62.6566443,35.0911196 60.570135,35.1430463 C59.6260132,35.1666494 59.3947034,34.7559564 59.4088652,33.9015261 C59.4183064,33.0801402 59.7770727,32.8346685 60.5323702,32.8582715 C61.6133896,32.8913158 62.6991297,32.8677127 63.7801492,32.8677127 C64.7809183,32.8677127 65.7911287,32.9149188 66.7918978,32.8535509 Z M54.0509739,16.888451 C54.8912423,16.9026129 55.4246711,17.1103197 55.2688911,18.0025148 C55.3916269,19.0080045 54.9290072,19.2959617 54.0651357,19.2723586 C53.3192795,19.2487556 52.9227483,19.0316075 52.9180277,18.205501 C52.9180277,17.3935562 53.083249,16.8742892 54.0509739,16.888451 Z M0,16.9026129 C0.821385979,17.1480845 2.21868627,16.3266985 2.21868627,18.0922063 C2.21396566,19.8813172 0.81666537,19.0032839 0,19.244035 L0,19.244035 Z M66.9193542,16.9167747 C67.7596227,16.9073335 68.0145356,17.275541 67.948447,17.9930736 C67.9673295,18.6681206 67.9767707,19.2581968 67.0373695,19.2393143 C66.2631896,19.2251525 65.6778341,19.1543434 65.6872753,18.1535743 C65.6967165,17.2802616 66.0224385,16.9262159 66.9193542,16.9167747 Z M12.6653941,18.0025148 C12.6417911,17.1528051 13.0572047,16.8931716 13.8125022,16.9781426 C14.6102851,16.8978922 14.9124041,17.2613791 14.9360071,18.0591621 C14.9690514,19.0410488 14.4828286,19.2157113 13.6425602,19.2109907 C12.7314827,19.2109907 12.6842766,18.6964443 12.6653941,18.0025148 Z M16.8997805,18.0025148 C16.9233835,17.1575257 17.3199147,16.9120541 18.0704915,16.9875838 C18.8682745,16.8978922 19.1656728,17.2708204 19.1656728,18.0591621 C19.1609522,18.8050183 18.9674073,19.1921083 18.1224182,19.2062701 C17.2255025,19.2204319 16.8761774,18.9183129 16.8997805,18.0025148 Z M5.21513497,16.9542263 L5.36733252,16.9592602 C6.17455667,17.0064663 6.49555809,17.3416295 6.40114591,18.035559 C6.49083748,18.9277541 6.08958571,19.1873876 5.32012643,19.2062701 C4.56010837,19.2204319 4.20134208,19.0174457 4.19662147,18.1771773 C4.19662147,17.3227471 4.41376949,16.9026129 5.36733252,16.9592602 Z M62.6896885,16.9545396 C63.5630012,16.9498189 63.6998989,17.3793944 63.7046195,18.0969269 C63.7093401,18.8239007 63.55356,19.3242853 62.6991297,19.182667 C61.9627147,19.244035 61.500095,19.0599312 61.4859332,18.2007803 C61.4717714,17.3321883 61.778611,16.9639808 62.6896885,16.9545396 Z M58.3136839,16.9687014 C59.0312165,16.973422 59.5363217,17.1150403 59.4466301,17.9647499 C59.484395,18.6350764 59.4560713,19.1968289 58.5355525,19.2015495 C57.7283284,19.2062701 57.2043408,19.0646518 57.237385,18.0827651 C57.2609881,17.3274677 57.5111804,16.9592602 58.3136839,16.9687014 Z M9.38770297,16.9547479 L9.53563033,16.9592602 C10.2814866,17.0017456 10.7488269,17.19057 10.6638559,18.0308384 C10.734665,18.7766947 10.4986346,19.2157113 9.64892495,19.2015495 C8.97859846,19.1873876 8.42156659,19.1968289 8.43100781,18.2621483 C8.43572842,17.4690859 8.50181694,16.8978922 9.53563033,16.9592602 Z M49.83547,16.9592602 C50.7748712,16.9450983 51.0061811,17.3793944 50.9920192,18.2243834 C50.9778574,19.1024167 50.4821934,19.2345937 49.7741021,19.182667 C48.9338337,19.2817998 48.7638917,18.8002977 48.7591711,18.0686033 C48.7497299,17.2944234 49.0329665,16.9781426 49.83547,16.9592602 Z M49.7599403,12.6635059 C50.5341201,12.6823883 51.199726,12.7484769 51.0392253,13.7209223 C51.1477993,14.6697648 50.7701506,15.0379723 49.8685143,15.0426929 C48.9479955,15.0521341 48.6694796,14.6414411 48.6836414,13.7822903 C48.7025238,13.0222722 48.9432749,12.6399029 49.7599403,12.6635059 Z M18.2121098,12.6682265 C19.0759813,12.6493441 19.2081583,13.1355668 19.2317614,13.8483788 C19.260085,14.7641769 18.8541126,15.1276638 17.9760794,15.0143692 C16.9753102,15.1276638 16.8525744,14.5328671 16.8384126,13.7209223 C16.8148095,12.6729471 17.4662536,12.6823883 18.2121098,12.6682265 Z M34.0686357,10.6525264 C34.8711392,10.6242028 35.18742,11.0065721 35.0835666,11.7760314 C35.18742,12.6446235 34.668153,12.7579181 33.9647823,12.7909623 C33.0395429,12.8334478 32.78463,12.4180342 32.8129537,11.5588834 C32.8412773,10.6289234 33.4407947,10.6714089 34.0686357,10.6525264 Z M18.0704915,8.51409053 C18.849392,8.41967835 19.1845553,8.74540037 19.1656728,9.56206574 C19.1467904,10.2984808 18.9626867,10.7044531 18.1224182,10.7233356 C17.2207819,10.7374974 16.8903393,10.4070548 16.8997805,9.50541843 C16.9045011,8.63210575 17.3387971,8.44328139 18.0704915,8.51409053 Z M49.8732349,8.49048748 C50.6143705,8.49520809 51.0817108,8.68875306 50.9731368,9.51958026 C51.0345047,10.2607159 50.8220773,10.6950119 49.9818089,10.718615 C49.099055,10.7469386 48.7450093,10.440099 48.7497299,9.52902148 C48.7544505,8.68875306 49.1320993,8.48576687 49.8732349,8.49048748 Z M33.9600617,0.0169941927 C34.6870355,0.0169941927 35.1354933,0.177494901 35.1024491,1.03192514 C35.0599636,2.11294462 35.0882873,3.1939641 35.0882873,4.27498358 C35.0882873,5.35600306 35.0599636,6.44174314 35.0977285,7.51804201 C35.1307727,8.36775165 34.6964767,8.54713479 33.9600617,8.54713479 C33.2283673,8.54713479 32.8082331,8.37247226 32.8176743,7.52276262 C32.8507186,5.36072367 32.8507186,3.19868471 32.8176743,1.03192514 C32.8035125,0.18221551 33.2283673,0.0169941927 33.9600617,0.0169941927 Z M18.2262716,4.2324981 C19.0948637,4.21361566 19.3072911,4.66679413 19.1703935,5.30407636 C19.2742469,6.44646375 18.6180822,6.51727289 17.8391817,6.50783167 C16.9564278,6.49839045 16.9139423,5.94607919 16.8667362,5.26631148 C16.7959271,4.16640957 17.5040185,4.24665992 18.2262716,4.2324981 Z M49.6156163,4.25201084 L49.7599403,4.25610114 C50.3877813,4.29386601 50.9967398,4.21361566 50.9967398,5.16717869 C50.9967398,5.98856467 50.8220773,6.49839045 49.8590731,6.4700668 C49.1084962,6.45118436 48.6505971,6.23403634 48.7874948,5.45985646 C48.6789208,4.64319109 48.90551,4.20417444 49.7599403,4.25610114 Z M19.2083398,1.33226763e-14 L19.2083398,2.2601152 L16.871032,2.2601152 L16.871032,1.33226763e-14 L19.2083398,1.33226763e-14 Z M50.0715005,0.00755297452 C50.9164895,-0.0066088527 51.1619612,0.422966573 51.0061811,1.05080758 C51.0864314,2.19319498 50.4255461,2.26872472 49.6655281,2.2592835 C48.7827742,2.24984229 48.7591711,1.67864859 48.7166857,1.01304271 C48.6555323,0.0590505281 49.1894195,0.00994253903 49.7862037,0.00820733393 L49.976132,0.00823393391 L49.976132,0.00823393391 Z"/>
</svg>
