<svg xmlns="http://www.w3.org/2000/svg" width="39" height="36" viewBox="0 0 39 36">
  <path fill="#8B3EB7" d="M18.1193695,21.4343658 C18.1193695,22.1837881 17.5118427,22.7913148 16.7624205,22.7913148 L1.35697891,22.7913148 C0.607556694,22.7913148 2.99490606e-05,22.1837881 2.99490606e-05,21.4343658 C2.99490606e-05,20.6849436 0.607556694,20.0774169 1.35697891,20.0774169 L16.7624205,20.0774169 C17.5118427,20.0774169 18.1193695,20.6849436 18.1193695,21.4343658 Z M16.7624205,25.5052127 L5.42782581,25.5052127 C4.67840359,25.5052127 4.07087684,26.1127395 4.07087684,26.8621617 C4.07087684,27.6115839 4.67840359,28.2191107 5.42782581,28.2191107 L16.7624205,28.2191107 C17.5118427,28.2191107 18.1193695,27.6115839 18.1193695,26.8621617 C18.1193695,26.1127395 17.5118427,25.5052127 16.7624205,25.5052127 Z M16.7624205,30.9330086 L9.4986727,30.9330086 C8.74925048,30.9330086 8.14172373,31.5405353 8.14172373,32.2899576 C8.14172373,33.0393798 8.74925048,33.6469065 9.4986727,33.6469065 L16.7624205,33.6469065 C17.5118427,33.6469065 18.1193695,33.0393798 18.1193695,32.2899576 C18.1193695,31.5405353 17.5118427,30.9330086 16.7624205,30.9330086 Z M23.95425,21.0734174 L29.4118987,15.6225534 C29.9261447,15.0901153 29.9187903,14.2437782 29.3953692,13.7203572 C28.8719481,13.1969361 28.025611,13.1895816 27.4931729,13.7038276 L22.0382381,19.1506207 C21.6854903,19.491316 21.5440202,19.9958342 21.668202,20.4702635 C21.7923837,20.9446928 22.1628918,21.3152009 22.6373211,21.4393827 C23.1117504,21.5635645 23.6162687,21.4220944 23.9569639,21.0693466 L23.95425,21.0734174 Z M24.3518361,5.2459647 L24.3518361,2.71389793 L25.6355098,2.71389793 C26.384932,2.71389793 26.9924587,2.10637118 26.9924587,1.35694896 C26.9924587,0.607526745 26.384932,0 25.6355098,0 L20.3569783,0 C19.6075561,0 19.0000293,0.607526745 19.0000293,1.35694896 C19.0000293,2.10637118 19.6075561,2.71389793 20.3569783,2.71389793 L21.640652,2.71389793 L21.640652,5.2432508 C18.4963661,5.52113437 15.5219484,6.79187934 13.1475085,8.87173233 L11.3644775,7.08870139 C10.834636,6.55811046 9.97498567,6.55750293 9.44439474,7.08734444 C8.91380381,7.61718595 8.91319628,8.47683629 9.44303779,9.00742722 L11.2830606,10.8460931 C10.1619105,12.2636222 9.30721628,13.8727829 8.76049246,15.5954144 C8.56052313,16.3017824 8.95859143,17.0390969 9.65887555,17.2594275 C10.3591597,17.4797581 11.1076869,17.1031973 11.3481941,16.4095838 C12.944305,11.3277844 17.6602002,7.87484956 22.9867454,7.88794433 L22.997601,7.88794433 L23.0084566,7.88794433 C29.7570036,7.8901927 35.2259592,13.3627936 35.223711,20.1113406 C35.2214627,26.8598876 29.7488619,32.3288433 23.0003149,32.3265952 C22.7642058,32.3265952 22.5267397,32.3143826 22.252636,32.3008131 C21.5106701,32.2747013 20.8854703,32.8497158 20.8495508,33.5912716 C20.8219405,34.3437696 21.4054689,34.9781449 22.1576496,35.0133541 C22.438538,35.0269236 22.7207834,35.0407589 23.0003149,35.0407589 C31.0139498,35.0878618 37.6349819,28.7988009 37.9995302,20.7933219 C38.3640784,12.787843 32.3420378,5.92305019 24.3572639,5.24189385 L24.3518361,5.2459647 Z"/>
</svg>
