<?xml version="1.0" encoding="utf-8"?>
<!-- Generator: Adobe Illustrator 25.4.1, SVG Export Plug-In . SVG Version: 6.00 Build 0)  -->
<svg version="1.1" id="Layer_1" xmlns="http://www.w3.org/2000/svg" xmlns:xlink="http://www.w3.org/1999/xlink" x="0px" y="0px"
	 viewBox="0 0 142 140" style="enable-background:new 0 0 142 140;" xml:space="preserve">
<style type="text/css">
	.st0{fill:#662C91;}
</style>
<g>
	<g>
		<g>
			<ellipse class="st0" cx="59.7" cy="132.5" rx="2.4" ry="2.4"/>
			<ellipse class="st0" cx="71.3" cy="126.8" rx="3.2" ry="3.2"/>
			<ellipse class="st0" cx="79.1" cy="119.1" rx="4" ry="4"/>
			<ellipse class="st0" cx="84.7" cy="107.9" rx="5.7" ry="5.7"/>
		</g>
		<g>
			
				<ellipse transform="matrix(0.9971 -7.617369e-02 7.617369e-02 0.9971 -9.8709 6.6105)" class="st0" cx="81.7" cy="132.7" rx="2.4" ry="2.4"/>
			<ellipse class="st0" cx="90.7" cy="123.3" rx="3.2" ry="3.2"/>
			<ellipse class="st0" cx="95.4" cy="113.3" rx="4" ry="4"/>
			<ellipse class="st0" cx="96.8" cy="100.9" rx="5.7" ry="5.7"/>
		</g>
		<g>
			<ellipse class="st0" cx="102.5" cy="125.2" rx="2.4" ry="2.4"/>
			<ellipse class="st0" cx="107.7" cy="113.3" rx="3.2" ry="3.2"/>
			<ellipse class="st0" cx="108.8" cy="102.4" rx="4" ry="4"/>
			<ellipse class="st0" cx="105.8" cy="90.2" rx="5.7" ry="5.7"/>
		</g>
		<g>
			<ellipse class="st0" cx="119.5" cy="111.1" rx="2.4" ry="2.4"/>
			<ellipse class="st0" cx="120.3" cy="98.1" rx="3.2" ry="3.2"/>
			<ellipse class="st0" cx="117.5" cy="87.5" rx="4" ry="4"/>
			<ellipse class="st0" cx="110.6" cy="77.1" rx="5.7" ry="5.7"/>
		</g>
		<g>
			<ellipse class="st0" cx="130.6" cy="92" rx="2.4" ry="2.4"/>
			<ellipse class="st0" cx="127" cy="79.5" rx="3.2" ry="3.2"/>
			<circle class="st0" cx="120.7" cy="70.5" r="4"/>
			<ellipse class="st0" cx="110.7" cy="63.1" rx="5.7" ry="5.7"/>
		</g>
		<g>
			
				<ellipse transform="matrix(9.812428e-02 -0.9952 0.9952 9.812428e-02 51.5199 197.2823)" class="st0" cx="134.6" cy="70.2" rx="2.4" ry="2.4"/>
			<ellipse class="st0" cx="126.9" cy="59.8" rx="3.2" ry="3.2"/>
			<ellipse class="st0" cx="117.9" cy="53.5" rx="4" ry="4"/>
			<ellipse class="st0" cx="105.9" cy="49.9" rx="5.7" ry="5.7"/>
		</g>
		<g>
			<ellipse class="st0" cx="130.8" cy="48.5" rx="2.4" ry="2.4"/>
			<ellipse class="st0" cx="120" cy="41.3" rx="3.2" ry="3.2"/>
			<ellipse class="st0" cx="109.4" cy="38.4" rx="4" ry="4"/>
			<ellipse class="st0" cx="96.9" cy="39.2" rx="5.7" ry="5.7"/>
		</g>
		<g>
			<ellipse class="st0" cx="119.9" cy="29.4" rx="2.4" ry="2.4"/>
			<ellipse class="st0" cx="107.3" cy="26.3" rx="3.2" ry="3.2"/>
			<ellipse class="st0" cx="96.3" cy="27.2" rx="4" ry="4"/>
			<ellipse class="st0" cx="84.9" cy="32.2" rx="5.7" ry="5.7"/>
		</g>
		<g>
			<ellipse class="st0" cx="103" cy="15.1" rx="2.4" ry="2.4"/>
			<ellipse class="st0" cx="90.1" cy="16.5" rx="3.2" ry="3.2"/>
			<ellipse class="st0" cx="80.1" cy="21.1" rx="4" ry="4"/>
			<circle class="st0" cx="71.1" cy="29.7" r="5.7"/>
		</g>
		<g>
			<ellipse class="st0" cx="82.3" cy="7.4" rx="2.4" ry="2.4"/>
			<ellipse class="st0" cx="70.6" cy="13.2" rx="3.2" ry="3.2"/>
			<ellipse class="st0" cx="62.8" cy="20.9" rx="4" ry="4"/>
			<ellipse class="st0" cx="57.3" cy="32.1" rx="5.7" ry="5.7"/>
		</g>
		<g>
			<ellipse class="st0" cx="60.2" cy="7.3" rx="2.4" ry="2.4"/>
			<ellipse class="st0" cx="51.2" cy="16.7" rx="3.2" ry="3.2"/>
			<ellipse class="st0" cx="46.6" cy="26.7" rx="4" ry="4"/>
			<ellipse class="st0" cx="45.2" cy="39.1" rx="5.7" ry="5.7"/>
		</g>
		<g>
			<ellipse class="st0" cx="39.4" cy="14.8" rx="2.4" ry="2.4"/>
			<ellipse class="st0" cx="34.2" cy="26.7" rx="3.2" ry="3.2"/>
			<ellipse class="st0" cx="33.2" cy="37.6" rx="4" ry="4"/>
			<ellipse class="st0" cx="36.2" cy="49.8" rx="5.7" ry="5.7"/>
		</g>
		<g>
			<ellipse class="st0" cx="22.4" cy="28.9" rx="2.4" ry="2.4"/>
			<ellipse class="st0" cx="21.6" cy="41.9" rx="3.2" ry="3.2"/>
			<ellipse class="st0" cx="24.4" cy="52.5" rx="4" ry="4"/>
			<ellipse class="st0" cx="31.3" cy="62.9" rx="5.7" ry="5.7"/>
		</g>
		<g>
			<ellipse class="st0" cx="11.3" cy="48" rx="2.4" ry="2.4"/>
			<ellipse class="st0" cx="15" cy="60.5" rx="3.2" ry="3.2"/>
			<circle class="st0" cx="21.2" cy="69.5" r="4"/>
			<ellipse class="st0" cx="31.3" cy="76.9" rx="5.7" ry="5.7"/>
		</g>
		<g>
			<ellipse class="st0" cx="7.4" cy="69.7" rx="2.4" ry="2.4"/>
			<ellipse class="st0" cx="15.1" cy="80.2" rx="3.2" ry="3.2"/>
			<ellipse class="st0" cx="24.1" cy="86.5" rx="4" ry="4"/>
			<ellipse class="st0" cx="36" cy="90" rx="5.7" ry="5.7"/>
		</g>
		<g>
			<ellipse class="st0" cx="11.1" cy="91.5" rx="2.4" ry="2.4"/>
			<ellipse class="st0" cx="21.9" cy="98.7" rx="3.2" ry="3.2"/>
			<ellipse class="st0" cx="32.5" cy="101.6" rx="4" ry="4"/>
			<ellipse class="st0" cx="45" cy="100.8" rx="5.7" ry="5.7"/>
		</g>
		<g>
			<ellipse class="st0" cx="22.1" cy="110.6" rx="2.4" ry="2.4"/>
			<ellipse class="st0" cx="34.7" cy="113.7" rx="3.2" ry="3.2"/>
			<ellipse class="st0" cx="45.6" cy="112.8" rx="4" ry="4"/>
			<ellipse class="st0" cx="57.1" cy="107.8" rx="5.7" ry="5.7"/>
		</g>
		<g>
			<ellipse class="st0" cx="38.9" cy="124.9" rx="2.4" ry="2.4"/>
			<ellipse class="st0" cx="51.8" cy="123.5" rx="3.2" ry="3.2"/>
			<ellipse class="st0" cx="61.8" cy="118.9" rx="4" ry="4"/>
			<circle class="st0" cx="70.9" cy="110.3" r="5.7"/>
		</g>
	</g>
</g>
</svg>
