<svg xmlns="http://www.w3.org/2000/svg" xml:space="preserve" id="Layer_1" x="0" y="0" viewBox="0 0 142 140"><style>.st0{fill:#662c91}</style><circle cx="59.7" cy="132.5" r="2.4" class="st0"/><circle cx="71.3" cy="126.8" r="3.2" class="st0"/><circle cx="79.1" cy="119.1" r="4" class="st0"/><circle cx="84.7" cy="107.9" r="5.7" class="st0"/><circle cx="81.7" cy="132.7" r="2.4" class="st0" transform="rotate(-4.369 81.72 132.702)"/><circle cx="90.7" cy="123.3" r="3.2" class="st0"/><circle cx="95.4" cy="113.3" r="4" class="st0"/><circle cx="96.8" cy="100.9" r="5.7" class="st0"/><circle cx="102.5" cy="125.2" r="2.4" class="st0"/><circle cx="107.7" cy="113.3" r="3.2" class="st0"/><circle cx="108.8" cy="102.4" r="4" class="st0"/><circle cx="105.8" cy="90.2" r="5.7" class="st0"/><circle cx="119.5" cy="111.1" r="2.4" class="st0"/><circle cx="120.3" cy="98.1" r="3.2" class="st0"/><circle cx="117.5" cy="87.5" r="4" class="st0"/><circle cx="110.6" cy="77.1" r="5.7" class="st0"/><circle cx="130.6" cy="92" r="2.4" class="st0"/><circle cx="127" cy="79.5" r="3.2" class="st0"/><circle cx="120.7" cy="70.5" r="4" class="st0"/><circle cx="110.7" cy="63.1" r="5.7" class="st0"/><circle cx="134.6" cy="70.2" r="2.4" class="st0" transform="rotate(-84.369 134.605 70.216)scale(1.00003)"/><circle cx="126.9" cy="59.8" r="3.2" class="st0"/><circle cx="117.9" cy="53.5" r="4" class="st0"/><circle cx="105.9" cy="49.9" r="5.7" class="st0"/><circle cx="130.8" cy="48.5" r="2.4" class="st0"/><circle cx="120" cy="41.3" r="3.2" class="st0"/><circle cx="109.4" cy="38.4" r="4" class="st0"/><circle cx="96.9" cy="39.2" r="5.7" class="st0"/><circle cx="119.9" cy="29.4" r="2.4" class="st0"/><circle cx="107.3" cy="26.3" r="3.2" class="st0"/><circle cx="96.3" cy="27.2" r="4" class="st0"/><circle cx="84.9" cy="32.2" r="5.7" class="st0"/><circle cx="103" cy="15.1" r="2.4" class="st0"/><circle cx="90.1" cy="16.5" r="3.2" class="st0"/><circle cx="80.1" cy="21.1" r="4" class="st0"/><circle cx="71.1" cy="29.7" r="5.7" class="st0"/><circle cx="82.3" cy="7.4" r="2.4" class="st0"/><circle cx="70.6" cy="13.2" r="3.2" class="st0"/><circle cx="62.8" cy="20.9" r="4" class="st0"/><circle cx="57.3" cy="32.1" r="5.7" class="st0"/><circle cx="60.2" cy="7.3" r="2.4" class="st0"/><circle cx="51.2" cy="16.7" r="3.2" class="st0"/><circle cx="46.6" cy="26.7" r="4" class="st0"/><circle cx="45.2" cy="39.1" r="5.7" class="st0"/><circle cx="39.4" cy="14.8" r="2.4" class="st0"/><circle cx="34.2" cy="26.7" r="3.2" class="st0"/><circle cx="33.2" cy="37.6" r="4" class="st0"/><circle cx="36.2" cy="49.8" r="5.7" class="st0"/><circle cx="22.4" cy="28.9" r="2.4" class="st0"/><circle cx="21.6" cy="41.9" r="3.2" class="st0"/><circle cx="24.4" cy="52.5" r="4" class="st0"/><circle cx="31.3" cy="62.9" r="5.7" class="st0"/><circle cx="11.3" cy="48" r="2.4" class="st0"/><circle cx="15" cy="60.5" r="3.2" class="st0"/><circle cx="21.2" cy="69.5" r="4" class="st0"/><circle cx="31.3" cy="76.9" r="5.7" class="st0"/><circle cx="7.4" cy="69.7" r="2.4" class="st0"/><circle cx="15.1" cy="80.2" r="3.2" class="st0"/><circle cx="24.1" cy="86.5" r="4" class="st0"/><circle cx="36" cy="90" r="5.7" class="st0"/><circle cx="11.1" cy="91.5" r="2.4" class="st0"/><circle cx="21.9" cy="98.7" r="3.2" class="st0"/><circle cx="32.5" cy="101.6" r="4" class="st0"/><circle cx="45" cy="100.8" r="5.7" class="st0"/><circle cx="22.1" cy="110.6" r="2.4" class="st0"/><circle cx="34.7" cy="113.7" r="3.2" class="st0"/><circle cx="45.6" cy="112.8" r="4" class="st0"/><circle cx="57.1" cy="107.8" r="5.7" class="st0"/><circle cx="38.9" cy="124.9" r="2.4" class="st0"/><circle cx="51.8" cy="123.5" r="3.2" class="st0"/><circle cx="61.8" cy="118.9" r="4" class="st0"/><circle cx="70.9" cy="110.3" r="5.7" class="st0"/></svg>