<svg xmlns="http://www.w3.org/2000/svg" width="58" height="58" viewBox="0 0 58 58">
  <path fill="#8B3EB7" fill-rule="evenodd" d="M29.1532493,23.3945693 L29.4044845,23.4012101 C31.8655256,23.5034872 32.3440613,24.89568 32.7461433,26.4100987 L32.828867,26.7247877 C32.8979364,26.9878435 32.9686407,27.2521388 33.0507488,27.5116888 C33.5665425,27.5712034 33.828407,27.2379214 34.161689,27.0395392 C35.0425059,26.5158103 35.7170053,25.2104555 36.788269,25.53977 C38.4189705,26.0436607 39.8393869,27.1347626 40.9066829,28.4956644 C41.640697,29.4359959 40.7202037,30.3604568 40.4265981,31.2412736 C40.093316,32.2411198 39.9346103,32.8243634 41.3748649,32.7212047 C42.3628081,32.6497871 43.6284864,32.1062199 44.322824,33.1814513 C45.2155438,34.5661589 45.6202434,36.1968604 45.8503667,37.8354971 C45.9297196,38.4187407 45.3980554,38.7401198 44.9616146,39.0416607 C44.2276005,39.5455515 43.5054894,40.0534098 42.5810285,40.7001357 C42.5611903,40.7120386 42.5373844,40.7279092 42.5175462,40.7437798 C42.5413521,40.7556827 42.5611903,40.7675857 42.5849961,40.7794886 L42.5849961,40.7794886 C44.8584559,42.0372316 46.4455133,43.1799129 45.3306054,46.3024483 C44.2990181,49.1948604 42.4024845,48.7822255 40.049672,48.7266785 L40.049672,48.7266785 L39.815581,48.7227108 C39.8552574,48.7861931 39.8949339,48.8457078 39.9346103,48.9091901 C41.6089558,51.5794141 41.0852269,53.4005625 38.4626146,55.1463256 C35.9471286,56.8206712 34.9591854,54.6225967 33.2650016,53.829068 C32.3603789,55.0788757 32.6619198,56.8960564 31.3287916,57.880032 L31.3287916,57.880032 L26.1787903,57.880032 C25.8097995,56.8325741 25.3495528,55.8049545 25.0956237,54.7297231 C24.8496298,53.6782975 24.4965095,53.8647768 23.7942366,54.3250234 C22.8935815,54.908267 22.2309851,56.2532982 20.9772097,55.8406632 C19.4734728,55.3407402 18.2752445,54.2337676 17.1246279,53.138698 C16.5726295,52.6179448 16.7527233,52.1002293 16.9552204,51.5616295 L17.0413074,51.3294526 C17.3150748,50.5557621 17.569004,49.7662011 17.9221242,48.7227108 C17.9300595,48.698905 17.9379948,48.6711315 17.9459301,48.6473256 C17.9181566,48.6512933 17.8903831,48.6592285 17.8626096,48.6631962 C14.9622622,49.2266016 13.172855,48.5798757 12.3118764,45.4454373 C11.5064447,42.533187 13.684681,42.0848433 15.2955443,40.6882328 C15.3153825,40.6763299 15.3352207,40.6564916 15.3550589,40.6406211 L15.3550589,40.6406211 L15.2836413,40.6088799 C12.494388,39.3828781 11.6413446,37.6648884 12.7641877,34.6574147 C13.7838721,31.9197407 15.7518233,32.8719751 17.791192,32.6299489 C17.846739,32.6259812 17.8983184,32.6180459 17.9498977,32.6101106 C17.9340272,32.5823371 17.914189,32.550596 17.8983184,32.5228225 C16.3072933,29.812922 16.8270546,27.9282913 19.5686963,26.1864958 C22.1436969,24.5518267 23.0086432,27.0673127 24.8893062,27.6267504 C25.1868795,24.9247852 26.1629198,23.2702779 29.4044845,23.4012101 Z M29.0037525,25.3175691 C27.484145,25.3255172 27.1786365,26.0238225 26.8453544,27.2220508 C25.8256701,30.9238622 25.7542525,30.9397327 22.7150376,28.5353408 C21.7469326,27.7695856 21.0446597,27.3728212 19.8583343,28.2933145 C18.759297,29.1463579 18.7989735,29.9081454 19.3068318,30.959571 C19.560761,31.4872675 19.6480492,32.0982846 19.8900754,32.6339165 C20.6161542,34.2249415 19.9257842,34.6812205 18.426015,34.5661589 C18.0967006,34.5383854 17.7673861,34.5621912 17.4341041,34.5621912 L17.4341041,34.5621912 L17.4341041,34.5344177 C17.2396896,34.5344177 17.0373397,34.554256 16.8429252,34.5304501 C15.6645351,34.4034855 14.7678477,34.4907737 14.307601,35.9389635 C13.851322,37.3633475 14.4901126,37.9029471 15.5018617,38.5734788 C18.6601059,40.6723622 18.6521706,40.7239416 15.4264765,42.8942426 C14.4940803,43.5211302 13.8037103,44.0210533 14.2837952,45.3859227 C14.720236,46.6119245 15.3352207,46.9372713 16.5810607,46.8777566 C20.6240895,46.6793744 20.874051,46.5127334 19.2354142,50.5478268 C18.6958147,51.8730198 19.0767085,52.4721339 20.0963929,53.2934361 C21.1170692,54.1147383 21.7382533,53.7040872 22.3265185,53.1913313 L22.4940151,53.0430273 C22.633377,52.9187519 22.7728518,52.7947884 22.9173874,52.6863867 C25.7621878,50.5478268 25.7463172,50.5319563 26.7580663,53.8647768 C27.0873807,54.9479435 27.0992836,56.1064954 28.8966261,56.0946834 C30.5947775,56.0866571 30.7852244,55.1463256 31.1224741,53.9719032 C32.1223203,50.5160857 32.1540614,50.512118 35.0425059,52.7538366 C35.986805,53.4878507 36.6930456,54.2178971 38.0539473,53.1466333 C39.2839168,52.1745607 38.9387318,51.381032 38.5419674,50.28993 C37.2524833,46.7785655 37.2762892,46.7666626 41.0217446,46.8380802 C41.0891945,46.8380802 41.1526768,46.8341125 41.2201268,46.8460155 C42.374711,47.0285271 43.1841103,46.818242 43.5888099,45.4811461 C43.9617684,44.2392737 43.6086482,43.624289 42.5730932,42.9418543 C39.248208,40.7477474 39.2680462,40.6842651 42.4778698,38.5179318 C43.3943954,37.8989794 44.0847654,37.4307975 43.6284864,36.0421223 C43.1722074,34.66535 42.4381933,34.4590325 41.1685474,34.5026766 C37.3040627,34.6336088 37.2643862,34.5701265 38.5737086,31.0627297 C38.9982464,29.9160807 39.1767904,29.1423902 37.9785621,28.2298322 C36.7089161,27.2617272 36.0185462,27.9084531 35.1258264,28.5988231 C32.1342232,30.9159269 32.1104173,30.9119592 31.0748624,27.3252095 C30.7574509,26.2301399 30.6066805,25.3136143 29.0037525,25.3175691 Z M56.3566867,2.42722673e-05 C57.8405853,-0.00391879683 57.9080353,0.472198421 57.9042117,1.69026497 C57.8643912,18.0448914 57.8762941,34.3995179 57.8762941,50.7501767 C54.7735969,50.7382737 51.6708997,50.7303384 48.5682025,50.6985973 C47.9135413,50.690662 47.0565303,51.0001382 47.0446274,49.7701687 C47.0384172,48.8137941 47.5522458,48.7784229 48.0973485,48.8044377 L48.2795373,48.8142037 C48.3705404,48.8190443 48.4609036,48.822937 48.5483643,48.8219019 C48.7879108,48.8194221 49.0275812,48.8155165 49.2673137,48.8108979 L50.7059564,48.7803347 C51.9046187,48.7572417 53.1017312,48.7519722 54.2895444,48.8536431 C55.89644,48.988543 56.0789516,48.3259465 56.074984,46.9491742 C56.0234046,34.9351497 56.0115017,22.9211253 56.0829193,10.9110684 C56.0948222,9.3755904 55.6385432,9.08992007 54.2101916,9.09785536 C41.2042562,9.15340237 28.1983209,9.1295965 15.1923855,9.1295965 C11.2287097,9.1295965 7.26900149,9.16927294 3.30929329,9.10579064 C2.19438547,9.08992007 1.86507106,9.40733155 1.8690387,10.5341423 C1.90871514,22.8100312 1.91665043,35.0898878 1.86110342,47.3657768 C1.85316813,48.687002 2.34118828,48.8774489 3.46403138,48.8377725 C5.50736778,48.7623873 7.55467182,48.8219019 9.60197585,48.809999 L9.60197585,48.809999 L9.81023349,48.8092729 C10.4226036,48.8116654 10.9093144,48.8837972 10.89146,49.7979422 C10.8716218,50.8493677 10.1812518,50.7025649 9.53452592,50.7065326 C6.36437877,50.7224032 3.19423163,50.7382737 0.0280521265,50.7501767 C0.0280521265,34.3995179 0.039955057,18.0448914 0.000134553239,1.69026497 C-0.00368902134,0.472198421 0.0637609179,-0.00391879683 1.54765958,2.42722673e-05 C19.8186578,0.0714664294 38.0856884,0.0714664294 56.3566867,2.42722673e-05 Z M28.9561011,31.7015174 C33.9672348,31.7015174 38.0221665,35.7366137 38.0182017,40.7160063 C38.0142312,45.6874636 33.9394613,49.7344599 28.9481658,49.7304952 C23.9529027,49.7304952 19.8860681,45.6755606 19.8860681,40.7041034 C19.8860681,35.7286784 23.948935,31.6975526 28.9561011,31.7015174 Z M28.8727806,33.5028304 C24.9130724,33.5544098 21.7706987,36.7602657 21.778619,40.7437798 C21.7865693,44.6955527 24.9963929,47.9252145 28.9322952,47.9371503 C32.8642299,47.9490204 36.101827,44.7312615 36.1257628,40.7834562 C36.1494387,36.712654 32.8999387,33.4512511 28.8727806,33.5028304 Z M52.4485578,10.8195218 C53.9086506,10.8079097 54.3331885,11.1570623 54.3215275,12.6687345 C54.2538356,23.5559482 54.2657386,34.4431619 54.3133503,45.3303757 C54.3173179,46.6436657 54.0752917,47.2546827 52.6072636,47.1277182 C51.0995591,47.0007536 49.5720163,47.0761388 48.0563765,47.1078799 C47.2787184,47.1237505 47.0287568,46.7865008 47.0168539,46.0445515 C47.0089186,45.2867316 47.4096506,45.1756376 48.0087648,45.2113464 C48.2031793,45.2232493 48.4055291,45.215314 48.5999437,45.2113464 C52.1698892,45.1553326 52.379886,45.1520376 52.3922388,42.0623118 L52.3929822,41.6597938 L52.3929822,41.6597938 L52.3930108,41.4460527 C52.3930108,32.4712431 52.3533344,23.5004012 52.4287196,14.5255916 C52.4406226,13.0496283 52.0875023,12.6806374 50.599636,12.6846051 C36.1455108,12.7480874 21.6913856,12.7441197 7.23726034,12.6925404 C5.88826155,12.6885727 5.46769134,12.9663078 5.47562663,14.3986271 C5.54704421,24.0955477 5.54307657,33.796436 5.47959427,43.4933567 C5.47165899,44.8542584 5.77716754,45.4136962 7.1975839,45.2351522 C8.10617426,45.1200906 9.04253812,45.2391199 9.96699906,45.2073787 C10.6375308,45.1796052 10.9073306,45.4335344 10.8835247,46.1159691 C10.8636865,46.7428567 10.6811749,47.1078799 9.97890199,47.1039123 C8.19346242,47.0840741 6.41199049,47.0602682 4.63051857,47.1118476 C3.45212845,47.1475564 3.61876948,46.3698983 3.61876948,45.6557224 L3.61876948,45.6557224 L3.61876948,33.7765978 C3.61876948,26.7181601 3.65447827,19.6557547 3.58673075,12.5973169 C3.5751254,11.2364152 3.91634274,10.8118773 5.32485618,10.8237803 C13.2442726,10.8912302 21.1676566,10.8555214 29.087073,10.8555214 C36.8755572,10.8555214 44.6600737,10.8951979 52.4485578,10.8195218 Z M28.920432,35.3001285 C31.9001322,35.28827 34.3561036,37.6688561 34.4076829,40.6247505 C34.4632299,43.6599978 31.9715498,46.1318396 28.8847232,46.1000985 C25.89312,46.072325 23.4887281,43.6560301 23.4966438,40.6922004 C23.5045986,37.7442413 25.948667,35.3160435 28.920432,35.3001285 Z M28.9442378,37.1570222 C26.972319,37.1609977 25.4249381,38.6647346 25.3852616,40.6247505 C25.3455852,42.6363457 26.9802543,44.3344971 28.9601084,44.3305364 C30.9359949,44.3265619 32.5666963,42.6244428 32.5190846,40.6128476 C32.4714729,38.6528317 30.9201243,37.1530624 28.9442378,37.1570222 Z M13.6172311,25.3453554 C14.2917305,25.3255172 14.5535949,25.6032523 14.5337567,26.2777516 C14.5139185,26.9284452 14.2480864,27.2260184 13.5815223,27.2220508 C11.7445033,27.2061802 9.9074844,27.2101479 8.07046547,27.2141155 C7.39596608,27.2180832 7.18568097,26.8887687 7.1698104,26.2380752 C7.15393982,25.5318347 7.46738366,25.3294849 8.10617426,25.3493231 C9.02269991,25.3731289 9.94319319,25.3532907 10.8597188,25.3532907 C11.7802121,25.3532907 12.6967378,25.3731289 13.6172311,25.3453554 Z M15.3828324,21.7586057 C16.0652671,21.7506704 16.2993581,21.9966643 16.2993581,22.6751314 C16.2993581,23.4012101 15.9502054,23.5559482 15.331253,23.5440453 C14.1449276,23.5202394 12.9625699,23.53611 11.7802121,23.53611 L11.7802121,23.53611 L8.22917121,23.53611 C7.66179819,23.53611 7.22138976,23.480563 7.18964862,22.7148078 C7.15393982,21.8577968 7.60625118,21.7586057 8.28471822,21.7625734 C10.6494337,21.7784439 13.0181169,21.7863792 15.3828324,21.7586057 Z M22.4015937,21.766541 C23.0324491,21.7586057 23.5442751,21.7625734 23.5363398,22.6552931 C23.5284045,23.5519806 23.0046755,23.5480129 22.3817555,23.5400776 C21.8619942,23.5281747 21.3382653,23.53611 20.818504,23.53611 L20.818504,23.53611 C20.1678105,23.5281747 19.5171169,23.5202394 18.8624557,23.5321424 C18.2276328,23.5400776 18.1403446,23.1552162 18.136377,22.6354549 C18.1284417,22.0958554 18.2593739,21.7586057 18.882294,21.766541 C20.0567164,21.7824116 21.2271713,21.7784439 22.4015937,21.766541 Z M7.19361626,19.1042522 C7.14600454,18.0448914 7.83240686,18.1480501 8.49103568,18.1480501 C12.5062909,18.1480501 16.5175784,18.1440825 20.5328337,18.1520178 C21.1121096,18.1520178 21.7270943,18.0488591 21.7667708,18.9812553 C21.8053136,19.8452569 21.3498353,19.9240249 20.8318306,19.9226848 L20.6471117,19.9200337 C20.5851418,19.9188067 20.523009,19.9176191 20.4614161,19.9176191 C18.4855296,19.9215868 16.5096432,19.9176191 14.5377243,19.9176191 C12.5618379,19.9176191 10.5899191,19.941425 8.61403263,19.9057162 C8.04269197,19.8977809 7.24122798,20.21916 7.19361626,19.1042522 Z M26.2759976,18.1535057 L28.3252855,18.1559854 C29.0116878,18.1599531 28.9402702,18.6559085 28.9640761,19.1121875 C28.9997849,19.6914635 28.753791,19.941425 28.174515,19.9215868 C27.5238215,19.9017486 26.8731279,19.9176191 26.2224344,19.9176191 L26.2224344,19.9176191 L24.2663862,19.9136515 C23.6990132,19.9136515 23.4807928,19.6319488 23.4847074,19.0645758 C23.4847074,18.5210086 23.6394985,18.1639207 24.2267097,18.1599531 C25.5915791,18.1480501 26.9604161,18.1559854 28.3252855,18.1559854 Z M38.8316054,18.1440825 C39.4664284,18.1401149 39.7997104,18.3146912 39.8076824,19.0328346 C39.8116133,19.7430428 39.4942019,19.9334897 38.8554113,19.9215868 C37.6056036,19.8977809 36.3518282,19.9176191 35.1020205,19.9176191 L35.1020205,19.9176191 L32.8680903,19.9117411 L32.8680903,19.9117411 L31.7493618,19.9215868 C31.1264418,19.9334897 30.7653862,19.7866869 30.7772891,19.0526729 C30.7852244,18.3543676 31.0748624,18.1401149 31.7295236,18.1440825 C34.0982067,18.1639207 36.4629222,18.1639207 38.8316054,18.1440825 Z M20.874051,14.4621093 C22.6356847,14.4859152 24.4012861,14.4819476 26.1668874,14.466077 C26.9445455,14.4581417 27.1627659,14.8509384 27.1548306,15.5690819 C27.1429277,16.3626106 26.6350693,16.3388047 26.0954698,16.3348371 C25.1789442,16.3308694 24.2624185,16.3348371 23.3498605,16.3348371 C22.5642671,16.3348371 21.7786737,16.3388047 20.9970479,16.3348371 C20.4138044,16.3308694 19.8107225,16.4379958 19.8305608,15.489729 C19.8424637,14.7200062 20.1360693,14.4541741 20.874051,14.4621093 Z M17.1603367,14.4700446 C17.9498977,14.466077 18.1760534,14.8469708 18.1641505,15.5730495 C18.1522476,16.3943517 17.6007451,16.3269018 17.0770162,16.3269018 C15.5574087,16.3348371 14.0378013,16.3308694 12.5221615,16.3308694 C11.1334862,16.3308694 9.74877866,16.3348371 8.36010344,16.3269018 C7.78479514,16.3229341 7.15790747,16.457834 7.1698104,15.489729 C7.18171333,14.6842974 7.52293067,14.466077 8.24504178,14.4700446 C11.2168068,14.4859152 14.1885717,14.4859152 17.1603367,14.4700446 Z M54.6501004,1.88482625 L54.4998295,1.8846795 C48.429335,1.94022651 42.3548728,1.91245301 36.2843783,1.91245301 L36.2843783,1.91245301 L19.0604994,1.91274128 C16.3094984,1.91891824 16.4149372,2.05735825 16.2517463,5.15798538 C16.1565229,6.97516609 16.7556371,7.29257757 18.4339503,7.28067464 C29.721896,7.20132177 41.0098417,7.24099821 52.2938197,7.24099821 L52.2938197,7.24099821 L52.9222734,7.24026223 C55.8766624,7.22922259 56.0701138,7.05258842 56.0791142,4.22644156 L56.0792183,3.62514938 L56.0792183,3.62514938 L56.0789516,3.4082546 C56.0789516,2.15051162 55.6861549,1.87277657 54.4998295,1.8846795 Z M13.0420454,1.88196082 L12.8990876,1.8846795 C10.5264368,1.95609708 8.15378598,1.90848536 5.78113518,1.90848536 L5.78113518,1.90848536 L5.34218496,1.90867706 C1.68251592,1.91380277 1.73487357,2.05587597 1.85713577,5.99119051 C1.89284456,7.10213068 2.30151184,7.29654521 3.26168157,7.26083642 C4.90428597,7.19735413 6.55482566,7.24099821 8.2013977,7.24496585 L8.2013977,7.24496585 L11.4021367,7.24422225 C14.625284,7.23207688 14.5636666,7.021557 14.5337567,3.37254581 C14.5258214,2.05925582 14.0219307,1.85293835 12.8990876,1.8846795 Z M18.1205064,4.52713006 C18.1495007,3.49783178 18.718793,3.50887193 19.2740685,3.58787715 L19.4483062,3.61395127 C19.5920385,3.63567218 19.7307593,3.6550115 19.8543666,3.6542485 C25.258297,3.61457206 30.6622275,3.63044264 36.0701255,3.63044264 C41.6089558,3.63044264 47.1438185,3.6185397 52.6826488,3.64631321 C52.8108342,3.64707622 52.9519321,3.63081827 53.0959251,3.61413141 L53.2694652,3.5949632 C53.8193493,3.54033722 54.3531793,3.57535343 54.3212856,4.61045058 C54.2776415,6.01896401 53.2539895,5.51507329 52.6072636,5.51507329 C41.6605352,5.54284679 30.7177745,5.54284679 19.7750137,5.52697622 C19.0727409,5.52300858 18.0847976,5.89596706 18.1205064,4.52713006 Z M4.5511657,3.61457206 C5.33675911,3.5907662 5.55101186,3.93991883 5.53514128,4.66599758 C5.51927071,5.36430284 5.18202101,5.52697622 4.56306863,5.55078208 C3.76160465,5.58252323 3.53148132,5.19766181 3.62273712,4.49142127 C3.52751368,3.75740723 3.9401486,3.63837792 4.5511657,3.61457206 Z M11.8476621,3.62250735 C12.593579,3.57886327 12.7760906,3.93595118 12.7007054,4.56283885 C12.7522848,5.18575888 12.6134173,5.55871737 11.8555974,5.54681444 C11.0660363,5.53887915 10.8279777,5.21353239 10.8319453,4.47158305 C10.8319453,3.72169844 11.2564832,3.65821614 11.8476621,3.62250735 Z M8.14981834,3.63441028 C8.76083544,3.65028085 9.23695265,3.74153665 9.07824691,4.42793898 C9.13776157,5.13417952 8.98699111,5.52300858 8.24900943,5.53887915 C7.49912481,5.55474973 7.18568097,5.31272347 7.18964862,4.52316242 C7.1975839,3.80898659 7.5070601,3.6185397 8.14981834,3.63441028 Z"/>
</svg>
