<svg xmlns="http://www.w3.org/2000/svg" xmlns:xlink="http://www.w3.org/1999/xlink" width="40" height="35" viewBox="0 0 40 35">
  <defs>
    <polygon id="github-color-icon@3x-a" points="0 .23 39.773 .23 39.773 19.673 0 19.673"/>
    <polygon id="github-color-icon@3x-c" points=".586 .177 19.091 .177 19.091 19.886 .586 19.886"/>
    <polygon id="github-color-icon@3x-e" points=".343 .23 11.136 .23 11.136 14.957 .343 14.957"/>
    <polygon id="github-color-icon@3x-g" points="0 .23 10.05 .23 10.05 14.957 0 14.957"/>
    <polygon id="github-color-icon@3x-i" points=".505 .23 17.787 .23 17.787 2.171 .505 2.171"/>
    <polygon id="github-color-icon@3x-k" points=".519 .396 2.582 .396 2.582 12.727 .519 12.727"/>
  </defs>
  <g fill="none" fill-rule="evenodd">
    <g transform="translate(0 .566)">
      <mask id="github-color-icon@3x-b" fill="#fff">
        <use xlink:href="#github-color-icon@3x-a"/>
      </mask>
      <path fill="#201F1F" d="M39.7727273,14.9574886 L39.7727273,15.0640795 C39.68125,15.1993068 39.5468182,15.1476023 39.4330682,15.126125 C38.5103409,14.9487386 37.5796591,14.8318068 36.6457955,14.7363523 C36.1096591,14.6814659 35.5695455,14.6321477 35.0318182,14.6218068 C34.1480682,14.6027159 33.2643182,14.5183977 32.3781818,14.5557841 C32.025,14.5708977 31.6734091,14.6194205 31.3186364,14.6162386 C31.1325,14.6138523 30.9415909,14.898625 30.9893182,15.0768068 C31.0235227,15.2032841 31.1356818,15.1945341 31.22875,15.1953295 C31.6360227,15.1993068 32.0417045,15.2215795 32.4481818,15.2470341 C34.4217045,15.3743068 36.3761364,15.6360114 38.3075,16.0671477 C38.6789773,16.149875 39.0504545,16.2349886 39.4155682,16.3431705 C39.4998864,16.368625 39.5881818,16.386125 39.6605682,16.4418068 C39.7067045,16.4768068 39.7313636,16.5189659 39.7130682,16.578625 C39.6955682,16.6335114 39.6597727,16.6677159 39.5993182,16.674875 C39.5102273,16.6844205 39.4251136,16.6613523 39.3384091,16.6382841 C37.5025,16.1458977 35.6347727,15.8483977 33.7455682,15.6606705 C32.8459091,15.5707841 31.9454545,15.5405568 31.0457955,15.4689659 C30.8509091,15.4538523 30.75625,15.5572614 30.6798864,15.712375 C30.4754545,16.1268068 30.2232955,16.5118068 29.925,16.8641932 C29.1494318,17.7829432 28.1559091,18.3787386 27.0438636,18.792375 C25.8244318,19.247375 24.5564773,19.4883977 23.2638636,19.6085114 C23.2415909,19.6101023 23.2201136,19.6140795 23.1986364,19.6204432 L23.1978409,19.6204432 C23.1835227,19.6244205 23.1684091,19.6276023 23.1532955,19.6315795 L23.1525,19.6315795 C23.1294318,19.6387386 23.1071591,19.6443068 23.0825,19.6474886 C21.0318182,19.6808977 18.9819318,19.6816932 16.9320455,19.6474886 C16.8540909,19.6458977 16.77375,19.6347614 16.695,19.6307841 C16.6639773,19.6268068 16.6321591,19.6228295 16.6011364,19.6188523 C16.5923864,19.6180568 16.5852273,19.6172614 16.5764773,19.6156705 C15.3920455,19.4724886 14.2211364,19.2616932 13.09,18.8615795 C11.8968182,18.4391932 10.8110227,17.8394205 9.91931818,16.9262386 C9.56534091,16.5651023 9.24397727,16.1729432 8.99897727,15.7282841 C8.89715909,15.5405568 8.77147727,15.4816932 8.55193182,15.4904432 C7.65784091,15.5238523 6.76613636,15.581125 5.87681818,15.6726023 C4.04886364,15.8603295 2.24079545,16.1530568 0.462954545,16.6263523 C0.3325,16.6613523 0.132045455,16.7830568 0.0739772727,16.5794205 C0.0143181818,16.368625 0.251363636,16.377375 0.380227273,16.3415795 C2.23204545,15.8372614 4.11886364,15.5326023 6.02715909,15.3560114 C6.82977273,15.2812386 7.63079545,15.1945341 8.43738636,15.2008977 C8.63625,15.2024886 8.65772727,15.1181705 8.59488636,14.9519205 C8.48034091,14.6464659 8.44375,14.6337386 8.11363636,14.6043068 C7.56556818,14.5549886 7.01590909,14.539875 6.46784091,14.5581705 C4.44977273,14.6233977 2.43409091,14.7228295 0.444659091,15.1062386 C0.298295455,15.134875 0.133636364,15.2199886 0,15.0640795 L0,14.9574886 C0.0978409091,14.8524886 0.232272727,14.8357841 0.361931818,14.811125 C1.43340909,14.6058977 2.51443182,14.4937386 3.59943182,14.3943068 C4.72818182,14.2908977 5.86170455,14.3020341 6.99204545,14.2439659 C7.35477273,14.224875 7.71352273,14.3115795 8.07863636,14.3004432 C8.26477273,14.294875 8.32840909,14.2710114 8.26556818,14.0626023 C7.94738636,13.0229432 7.805,11.9578295 7.78590909,10.8696477 C7.77159091,10.0352159 7.77954545,9.20794318 7.98159091,8.39260227 C8.25204545,7.29805682 8.75477273,6.32203409 9.48102273,5.46294318 C9.62181818,5.29669318 9.66556818,5.14953409 9.60193182,4.93555682 C9.15965909,3.444875 9.29170455,1.97805682 9.80636364,0.529534091 C9.85329545,0.399079545 9.92090909,0.290102273 10.0497727,0.229647727 L10.8468182,0.229647727 C12.2181818,0.364079545 13.3859091,1.012375 14.5146591,1.73067045 C14.9267045,1.99317045 15.2894318,2.11248864 15.7913636,1.98044318 C17.43875,1.54453409 19.1298864,1.48169318 20.8234091,1.546125 C21.7779545,1.58271591 22.7277273,1.70839773 23.6568182,1.94146591 C23.9439773,2.01385227 24.1635227,1.95578409 24.4013636,1.79907955 C25.2827273,1.21760227 26.2134091,0.731579545 27.2244318,0.404647727 C27.5211364,0.308397727 27.8265909,0.289306818 28.1280682,0.229647727 L28.9792045,0.229647727 C29.1088636,0.290897727 29.1764773,0.399079545 29.2218182,0.529534091 C29.6911364,1.852375 29.8486364,3.19828409 29.5232955,4.57839773 C29.4763636,4.78123864 29.5129545,4.932375 29.6521591,5.08589773 C30.6432955,6.17646591 31.2701136,7.44760227 31.5103409,8.90328409 C31.6614773,9.81885227 31.6264773,10.7399886 31.5811364,11.6595341 C31.5405682,12.483625 31.45625,13.3021477 31.255,14.1047614 C31.2247727,14.2272614 31.2677273,14.2916932 31.3981818,14.2940795 C31.5493182,14.294875 31.70125,14.3060114 31.85,14.2932841 C32.5579545,14.2304432 33.2635227,14.2232841 33.9714773,14.2924886 C34.1202273,14.3076023 34.2721591,14.2916932 34.4225,14.294875 C36.0985227,14.3426023 37.7618182,14.5088523 39.4107955,14.8103295 C39.5404545,14.8349886 39.6748864,14.8524886 39.7727273,14.9574886" mask="url(#github-color-icon@3x-b)"/>
    </g>
    <g transform="translate(20.682 14.884)">
      <mask id="github-color-icon@3x-d" fill="#fff">
        <use xlink:href="#github-color-icon@3x-c"/>
      </mask>
      <path fill="#FEFEFE" d="M10.3075,0.758943182 C10.3417045,0.885420455 10.4538636,0.876670455 10.5469318,0.876670455 C10.9534091,0.881443182 11.3598864,0.902920455 11.7663636,0.929170455 C13.7398864,1.05644318 15.6943182,1.31735227 17.6256818,1.74848864 C17.9971591,1.83201136 18.3686364,1.917125 18.73375,2.02530682 C18.8180682,2.05076136 18.9063636,2.06826136 18.97875,2.12394318 C19.0248864,2.15814773 19.0495455,2.20030682 19.03125,2.26076136 C19.01375,2.31564773 18.9779545,2.34985227 18.9175,2.35701136 C18.8284091,2.36655682 18.7425,2.34269318 18.6565909,2.319625 C16.8206818,1.82723864 14.9529545,1.53053409 13.06375,1.34201136 C12.1640909,1.25292045 11.2636364,1.22269318 10.3639773,1.15110227 C10.1690909,1.13598864 10.0744318,1.23939773 9.99806818,1.39371591 C9.79363636,1.80814773 9.54147727,2.19314773 9.24318182,2.54632955 C8.46761364,3.46507955 7.47329545,4.06007955 6.36204545,4.47451136 C5.14261364,4.92951136 3.87465909,5.16973864 2.58204545,5.28985227 C2.55977273,5.29223864 2.53829545,5.29621591 2.51681818,5.30178409 C3.21681818,5.84507955 3.67340909,6.54348864 3.83965909,7.42644318 C3.96295455,7.84564773 3.96295455,8.278375 3.96693182,8.70792045 C3.97568182,9.83905682 3.96931818,10.9701932 3.97011364,12.1013295 C3.97011364,12.1975795 3.98045455,12.294625 3.98602273,12.390875 C5.66363636,12.6748523 7.31261364,13.0550795 8.82318182,13.8799659 C9.32909091,14.1567841 9.80079545,14.4805341 10.1547727,14.954625 C10.6893182,15.6729205 10.6439773,16.4556477 10.0259091,17.1222386 C9.43886364,17.754625 8.69670455,18.1451932 7.91715909,18.4697386 C6.68022727,18.9851932 5.38443182,19.2874659 4.06636364,19.5101932 C4.04090909,19.5149659 4.01386364,19.5078068 3.98761364,19.5062159 C3.39181818,19.609625 2.79443182,19.7050795 2.18909091,19.7329205 L2.18829545,19.7329205 C1.96238636,19.8164432 1.72534091,19.7599659 1.49465909,19.7862159 C1.29102273,19.8713295 1.07625,19.8124659 0.867045455,19.837125 C0.773181818,19.8474659 0.670568182,19.8148523 0.58625,19.8864432 C0.622045455,19.7273523 0.755681818,19.7639432 0.858295455,19.7567841 C1.06670455,19.7424659 1.27590909,19.7663295 1.48193182,19.723375 C1.48670455,19.7225795 1.49068182,19.7217841 1.49545455,19.7209886 C1.50897727,19.7178068 1.5225,19.7162159 1.53761364,19.7138295 C1.70386364,19.6907614 1.8725,19.7130341 2.03795455,19.697125 C2.05943182,19.6947386 2.08090909,19.6923523 2.10318182,19.6891705 C2.12863636,19.6843977 2.15409091,19.6788295 2.17954545,19.6716705 C2.77056818,19.6215568 3.35681818,19.5276932 3.94306818,19.4457614 L3.94545455,19.4457614 C3.95897727,19.443375 3.97329545,19.4409886 3.98761364,19.4386023 C4.91272727,19.312125 5.81795455,19.0989432 6.71125,18.8253068 C7.56159091,18.5651932 8.38488636,18.2430341 9.13579545,17.763375 C9.57090909,17.4849659 9.96465909,17.1620114 10.2351136,16.7062159 C10.5755682,16.1350795 10.5047727,15.5901932 10.1452273,15.0628068 C9.78488636,14.5354205 9.26386364,14.1981477 8.71579545,13.9022386 C7.34204545,13.1600795 5.84579545,12.8061023 4.32727273,12.5165568 C4.22227273,12.4966705 4.10613636,12.4950795 4.01943182,12.4314432 C4.0075,12.4234886 3.99556818,12.4139432 3.98602273,12.4020114 C3.96772727,12.3837159 3.95181818,12.3614432 3.93829545,12.3343977 C3.89613636,12.2047386 3.90647727,12.0703068 3.90647727,11.9382614 C3.90568182,11.0879205 3.89931818,10.2375795 3.90806818,9.38723864 C3.91443182,8.77076136 3.86909091,8.15826136 3.80306818,7.54735227 C3.80306818,7.54257955 3.80227273,7.53701136 3.80147727,7.53303409 C3.79988636,7.52189773 3.7975,7.51076136 3.79511364,7.50042045 C3.62965909,6.66996591 3.23272727,5.97235227 2.57329545,5.42826136 C2.53352273,5.39405682 2.49056818,5.36223864 2.47147727,5.31371591 L2.47068182,5.31371591 C2.46511364,5.29780682 2.46113636,5.27951136 2.46113636,5.25882955 C3.01795455,5.172125 3.57715909,5.09735227 4.13159091,4.99632955 C5.46159091,4.75292045 6.74386364,4.37030682 7.8925,3.62814773 C8.80727273,3.03792045 9.50568182,2.25519318 9.97181818,1.27042045 C10.0434091,1.12007955 10.115,1.06678409 10.2844318,1.07314773 C13.1560227,1.19485227 15.9997727,1.51542045 18.7814773,2.27348864 C18.8482955,2.29178409 18.9731818,2.38564773 18.9994318,2.24485227 C19.0232955,2.12076136 18.8825,2.14701136 18.8093182,2.127125 C16.7371591,1.55917045 14.6244318,1.23701136 12.48625,1.05882955 C11.8244318,1.00394318 11.1618182,0.960988636 10.4976136,0.939511364 C10.3870455,0.935534091 10.2685227,0.950647727 10.1651136,0.895761364 C10.1651136,0.872693182 10.1603409,0.854397727 10.1651136,0.838488636 C10.3711364,0.226784091 10.3711364,0.220420455 11.0345455,0.198943182 C13.6269318,0.117806818 16.2034091,0.259397727 18.7576136,0.731897727 C18.8642045,0.751784091 18.9771591,0.816215909 19.0909091,0.745420455 C18.9994318,0.881443182 18.865,0.829738636 18.75125,0.808261364 C17.8285227,0.630079545 16.8978409,0.513943182 15.9639773,0.417693182 C15.4278409,0.362806818 14.8877273,0.314284091 14.35,0.303147727 C13.46625,0.284852273 12.5825,0.199738636 11.6963636,0.237920455 C11.3431818,0.252238636 10.9915909,0.300761364 10.6368182,0.297579545 C10.4506818,0.295193182 10.2597727,0.579965909 10.3075,0.758943182" mask="url(#github-color-icon@3x-d)"/>
    </g>
    <path fill="#FEFEFE" d="M7.60884091,21.33425 C7.65815909,21.5068636 7.65815909,21.6699318 7.50304545,21.7876591 C7.38929545,21.8743636 7.25725,21.8775455 7.12997727,21.8019773 C6.94463636,21.6914091 6.9335,21.5084545 6.97645455,21.3350455 C7.06077273,20.9874318 7.17054545,20.6461818 7.27077273,20.3025455 C7.28747727,20.3001591 7.30418182,20.2977727 7.32088636,20.2953864 C7.41634091,20.6422045 7.51020455,20.9882273 7.60884091,21.33425"/>
    <path fill="#FEFEFE" d="M18.8229205,34.7703523 C18.8213295,34.7544432 18.8181477,34.7393295 18.8141705,34.7242159 C18.4092841,34.7218295 18.0051932,34.7170568 17.6034886,34.6558068 C17.4062159,34.6375114 17.2089432,34.6208068 17.0124659,34.6025114 C16.3697386,34.556375 15.7309886,34.4871705 15.1025795,34.3408068 C13.3366705,34.031375 11.6113295,33.6042159 10.0824659,32.6083068 C9.74678409,32.3895568 9.44848864,32.1262614 9.21860227,31.7945568 C8.71428409,31.0659205 8.77394318,30.3197841 9.380875,29.6706932 C10.0259886,28.9794432 10.8516705,28.5785341 11.7107614,28.2364886 C12.8053068,27.7989886 13.9467841,27.5285341 15.1049659,27.3280795 C15.1288295,26.4053523 15.1367841,25.482625 15.1009886,24.5606932 C15.0651932,24.5614886 15.0293977,24.5622841 14.9943977,24.5622841 C12.8403068,25.0570568 10.7442841,24.6585341 9.53439773,22.4758068 C9.372125,22.1822841 9.20269318,21.8919432 9.02689773,21.6071705 C8.67769318,21.0455795 8.21314773,20.608875 7.61655682,20.3169432 C7.38507955,20.2039886 7.15757955,20.0830795 6.983375,19.8881932 C6.79405682,19.6750114 6.83382955,19.5023977 7.10269318,19.3989886 C7.53064773,19.2343295 7.95701136,19.3003523 8.374625,19.4403523 C9.19155682,19.7123977 9.792125,20.2548977 10.2447386,20.9716023 C10.4905341,21.3629659 10.7490568,21.7431932 11.0974659,22.0486477 C12.1474659,22.9681932 13.3382614,23.0318295 14.604625,22.6173977 C14.7724659,22.5633068 14.9363295,22.4980795 15.1017841,22.4384205 C15.1272386,22.4002386 15.1622386,22.3819432 15.2075795,22.3835341 C15.3714432,21.8609205 15.5440568,21.3430795 15.8709886,20.8928523 C15.8964432,20.8578523 15.9266705,20.8268295 15.9553068,20.7934205 C16.1263295,20.5523977 16.3363295,20.3519432 16.5765568,20.1817159 C15.392125,20.0377386 14.2212159,19.8277386 13.0900795,19.4268295 C11.8968977,19.0052386 10.8111023,18.4054659 9.91939773,17.4922841 C9.56542045,17.1303523 9.24405682,16.7389886 8.99905682,16.2935341 C8.89644318,16.1066023 8.77155682,16.0477386 8.55201136,16.0564886 C7.65792045,16.0898977 6.76621591,16.1471705 5.87689773,16.2386477 C4.04894318,16.426375 2.240875,16.7191023 0.463034091,17.1916023 C0.332579545,17.2266023 0.132125,17.3491023 0.0740568182,17.1446705 C0.0136022727,16.9346705 0.251443182,16.942625 0.379511364,16.907625 C2.232125,16.4033068 4.11894318,16.0978523 6.02723864,15.9220568 C6.82985227,15.8472841 7.630875,15.7605795 8.43746591,15.7661477 C8.63632955,15.7677386 8.65780682,15.6834205 8.59496591,15.5171705 C8.48042045,15.2125114 8.44382955,15.1997841 8.11371591,15.1703523 C7.56564773,15.1202386 7.01598864,15.1059205 6.46792045,15.1242159 C4.44985227,15.1886477 2.433375,15.2880795 0.444738636,15.6722841 C0.298375,15.700125 0.133715909,15.7852386 7.95454545e-05,15.630125 C0.304738636,15.6762614 0.589511364,15.5633068 0.881443182,15.516375 C3.33860227,15.1194432 5.81167045,14.9985341 8.29667045,15.0852386 C8.453375,15.0908068 8.523375,15.140125 8.58144318,15.2856932 C8.79701136,15.8273977 8.803375,15.813875 8.20996591,15.8417159 C5.53326136,15.9634205 2.88757955,16.3014886 0.295988636,17.0062614 C0.262579545,17.0150114 0.222011364,17.012625 0.193375,17.0309205 C0.150420455,17.056375 0.0517840909,17.0372841 0.088375,17.1406932 C0.121784091,17.2361477 0.190193182,17.1868295 0.243488636,17.1733068 C0.629284091,17.0786477 1.01269318,16.9752386 1.400875,16.8853523 C3.31871591,16.4414886 5.26360227,16.1797841 7.22757955,16.050125 C7.71360227,16.0183068 8.20042045,15.9952386 8.68644318,15.9658068 C8.80496591,15.9586477 8.899625,15.9594432 8.97201136,16.0898977 C9.92814773,17.8009205 11.4490568,18.7872841 13.2547386,19.4029659 C14.2975795,19.7569432 15.3738295,19.9581932 16.4636023,20.0934205 C16.520875,20.101375 16.590875,20.0743295 16.6306477,20.1435341 C16.6211023,20.1570568 16.6115568,20.171375 16.6012159,20.1848977 C16.4325795,20.4116023 16.1931477,20.5714886 16.0189432,20.7918295 C16.0062159,20.8069432 15.9942841,20.8220568 15.9839432,20.8371705 C15.9815568,20.8411477 15.9791705,20.8443295 15.9775795,20.8483068 C15.6959886,21.2635341 15.4629205,21.7010341 15.3451932,22.1942159 C15.3268977,22.271375 15.2934886,22.3445568 15.2322386,22.4010341 C15.2234886,22.4089886 15.2139432,22.4161477 15.2036023,22.4241023 C15.1916705,22.4336477 15.1773523,22.4416023 15.1630341,22.4503523 C15.1503068,22.4583068 15.1367841,22.4662614 15.1240568,22.4734205 C15.1145114,22.4781932 15.1057614,22.4829659 15.0970114,22.4877386 C15.094625,22.4885341 15.0938295,22.4893295 15.0922386,22.490125 C14.053375,22.9586477 12.9954205,23.1233068 11.9104205,22.6555795 C11.3003068,22.3922841 10.8214432,21.9667159 10.4563295,21.4146705 C10.1731477,20.9859205 9.89076136,20.5619432 9.50894318,20.2055795 C9.004625,19.733875 8.42076136,19.4554659 7.73826136,19.3759205 C7.54973864,19.3536477 7.36598864,19.3878523 7.18939773,19.4459205 C6.93644318,19.5294432 6.90542045,19.6805795 7.09155682,19.8810341 C7.202125,19.9987614 7.33019318,20.0966023 7.47496591,20.1618295 C8.365875,20.565125 8.95292045,21.2619432 9.40155682,22.1043295 C9.77542045,22.8043295 10.2137159,23.461375 10.8779205,23.9243295 C11.5230341,24.3737614 12.2437159,24.6052386 13.0351932,24.660125 C13.6986023,24.7070568 14.3437159,24.6108068 14.9943977,24.5248977 C15.0039432,24.5233068 15.0150795,24.5225114 15.0254205,24.5209205 C15.0293977,24.520125 15.0341705,24.5193295 15.0381477,24.5193295 C15.0612159,24.5241023 15.0826932,24.5320568 15.1001932,24.5447841 C15.1009886,24.5455795 15.1025795,24.546375 15.1041705,24.5479659 C15.1216705,24.5606932 15.1351932,24.5781932 15.1455341,24.6012614 C15.1845114,24.6935341 15.1845114,24.7905795 15.1845114,24.8868295 C15.1868977,25.5900114 15.1868977,26.2931932 15.1845114,26.9971705 C15.1845114,27.0846705 15.1837159,27.1729659 15.1590568,27.2572841 C15.1439432,27.2914886 15.1272386,27.3185341 15.1057614,27.3400114 C15.094625,27.3527386 15.0826932,27.3630795 15.0691705,27.3734205 C14.9880341,27.4306932 14.8782614,27.4370568 14.779625,27.4561477 C13.6548523,27.6725114 12.5459886,27.950125 11.4904205,28.4027386 C10.763375,28.7137614 10.0617841,29.0709205 9.49939773,29.6500114 C8.76757955,30.4041023 8.768375,31.2711477 9.50178409,32.0236477 C10.1954205,32.7355795 11.0688295,33.1372841 11.9820114,33.4697841 C12.9970114,33.838875 14.0406477,34.0950114 15.1025795,34.2819432 C15.1161023,34.2835341 15.1288295,34.2867159 15.1423523,34.2883068 C15.7628068,34.3980795 16.3856477,34.4760341 17.0124659,34.5356932 L17.0148523,34.5356932 C17.0299659,34.5341023 17.0474659,34.5333068 17.0625795,34.5333068 C17.2288295,34.5309205 17.3895114,34.5754659 17.5541705,34.5858068 C17.5700795,34.5873977 17.5851932,34.5873977 17.6011023,34.5881932 L17.6130341,34.5881932 C18.0067841,34.6446705 18.4092841,34.5985341 18.8014432,34.687625 C18.8125795,34.6955795 18.8213295,34.7043295 18.8253068,34.7146705 C18.8276932,34.7178523 18.8284886,34.7202386 18.8292841,34.7234205 C18.8332614,34.7369432 18.8316705,34.7536477 18.8229205,34.7703523"/>
    <g transform="translate(28.636 .566)">
      <mask id="github-color-icon@3x-f" fill="#fff">
        <use xlink:href="#github-color-icon@3x-e"/>
      </mask>
      <path fill="#FEFEFE" d="M11.1363636,14.9574886 C8.27988636,14.3951023 5.39238636,14.2726023 2.47545455,14.3783977 C2.84852273,12.9274886 2.92409091,11.4710114 2.89465909,10.0065795 C2.85568182,8.10385227 2.1875,6.45010227 0.878181818,5.06601136 C0.756477273,4.93794318 0.736590909,4.83373864 0.77875,4.67226136 C1.155,3.21339773 0.976818182,1.79510227 0.458181818,0.402261364 C0.431931818,0.330670455 0.382613636,0.285329545 0.342840909,0.229647727 C0.4725,0.290897727 0.540113636,0.399079545 0.585454545,0.529534091 C1.05477273,1.852375 1.21227273,3.19828409 0.886931818,4.57839773 C0.84,4.78123864 0.876590909,4.932375 1.01579545,5.08589773 C2.00693182,6.17646591 2.63375,7.44760227 2.87397727,8.90328409 C3.02511364,9.81885227 2.99011364,10.7399886 2.94477273,11.6595341 C2.90420455,12.483625 2.81988636,13.3021477 2.61863636,14.1047614 C2.58840909,14.2272614 2.63136364,14.2916932 2.76181818,14.2940795 C2.91295455,14.294875 3.06488636,14.3060114 3.21363636,14.2932841 C3.92159091,14.2304432 4.62715909,14.2232841 5.33511364,14.2924886 C5.48386364,14.3076023 5.63579545,14.2916932 5.78613636,14.294875 C7.46215909,14.3426023 9.12545455,14.5088523 10.7744318,14.8103295 C10.9040909,14.8349886 11.0385227,14.8524886 11.1363636,14.9574886" mask="url(#github-color-icon@3x-f)"/>
    </g>
    <g transform="translate(0 .566)">
      <mask id="github-color-icon@3x-h" fill="#fff">
        <use xlink:href="#github-color-icon@3x-g"/>
      </mask>
      <path fill="#FEFEFE" d="M9.74121591,5.10093182 C9.78257955,5.22025 9.74042045,5.27831818 9.67439773,5.35388636 C8.750875,6.38956818 8.16621591,7.59070455 7.94507955,8.96127273 C7.77167045,10.0367273 7.83451136,11.1153636 7.95223864,12.1916136 C8.033375,12.9218409 8.19007955,13.6369545 8.44223864,14.3703636 C5.58973864,14.2788864 2.77939773,14.4101364 7.95454545e-05,14.9574091 C0.0979204545,14.8524091 0.232352273,14.8357045 0.362011364,14.8110455 C1.43348864,14.6058182 2.51451136,14.4944545 3.59951136,14.3950227 C4.72826136,14.2908182 5.86178409,14.3019545 6.992125,14.2438864 C7.35485227,14.2247955 7.71360227,14.3122955 8.07871591,14.3003636 C8.26485227,14.2947955 8.32848864,14.2709318 8.26564773,14.0625227 C7.94746591,13.0228636 7.80507955,11.95775 7.78598864,10.8695682 C7.770875,10.0351364 7.779625,9.20786364 7.98167045,8.39252273 C8.252125,7.29797727 8.75485227,6.32195455 9.48110227,5.46365909 C9.62189773,5.29661364 9.66564773,5.15025 9.60201136,4.93547727 C9.15973864,3.44479545 9.29178409,1.97797727 9.80644318,0.529454545 C9.853375,0.399 9.92098864,0.290022727 10.0498523,0.229568182 C9.80882955,0.578772727 9.72689773,0.989227273 9.62985227,1.38854545 C9.32439773,2.63422727 9.31803409,3.87672727 9.74121591,5.10093182" mask="url(#github-color-icon@3x-h)"/>
    </g>
    <g transform="translate(10.34 .566)">
      <mask id="github-color-icon@3x-j" fill="#fff">
        <use xlink:href="#github-color-icon@3x-i"/>
      </mask>
      <path fill="#FEFEFE" d="M17.7873977,0.229568182 C17.5766023,0.3465 17.3339886,0.343318182 17.1080795,0.410136364 C15.9610341,0.748204545 14.9237614,1.31218182 13.9302386,1.96445455 C13.7783068,2.06388636 13.6478523,2.08695455 13.4656932,2.04638636 C10.6458068,1.41161364 7.83148864,1.44502273 5.02830682,2.15059091 C4.84376136,2.19672727 4.71648864,2.16331818 4.56694318,2.06309091 C3.53285227,1.37661364 2.45978409,0.767295455 1.25626136,0.422068182 C1.00807955,0.350477273 0.756715909,0.294 0.505352273,0.229568182 C1.87751136,0.364 3.04523864,1.01229545 4.17398864,1.73059091 C4.58523864,1.99309091 4.94796591,2.11240909 5.44989773,1.98036364 C7.09807955,1.54445455 8.78842045,1.48161364 10.4819432,1.54604545 C11.4372841,1.58263636 12.3870568,1.70831818 13.3161477,1.94138636 C13.6025114,2.01377273 13.8228523,1.95570455 14.0598977,1.799 C14.9420568,1.21752273 15.8727386,0.7315 16.8829659,0.404568182 C17.1796705,0.308318182 17.4859205,0.289227273 17.7873977,0.229568182" mask="url(#github-color-icon@3x-j)"/>
    </g>
    <g transform="translate(18.295 22.043)">
      <mask id="github-color-icon@3x-l" fill="#fff">
        <use xlink:href="#github-color-icon@3x-k"/>
      </mask>
      <path fill="#89DAF2" d="M2.582125,9.38119318 C2.58451136,9.49573864 2.51848864,9.58721591 2.45803409,9.67710227 C2.12314773,10.171875 2.00939773,10.7302841 1.99030682,11.3117614 C1.97678409,11.6744886 1.98871591,12.0372159 1.98632955,12.3999432 C1.98632955,12.5144886 1.99507955,12.6322159 1.90996591,12.7276705 L0.527465909,12.7276705 C0.525875,12.7117614 0.522693182,12.6966477 0.518715909,12.6807386 C0.522693182,12.6783523 0.525875,12.674375 0.529852273,12.6711932 C0.669852273,12.551875 0.841670455,12.604375 0.999965909,12.6003977 C1.15985227,12.5964205 1.26326136,12.5463068 1.24496591,12.3721023 C1.18371591,11.7755114 1.24576136,11.1709659 1.11769318,10.5791477 C1.04610227,10.2482386 0.922011364,9.93880682 0.736670455,9.65323864 C0.684965909,9.57289773 0.616556818,9.498125 0.606215909,9.39948864 C0.605420455,9.39471591 0.604625,9.38994318 0.604625,9.384375 C0.603829545,9.37085227 0.603829545,9.35732955 0.605420455,9.34301136 C0.626897727,9.253125 0.685761364,9.18630682 0.743034091,9.11869318 C1.09780682,8.70107955 1.24576136,8.21823864 1.24417045,7.67176136 C1.23860227,5.42221591 1.24178409,3.171875 1.24178409,0.922329545 C1.24178409,0.806988636 1.23303409,0.690852273 1.25292045,0.577897727 C1.26644318,0.501534091 1.25451136,0.394147727 1.37701136,0.396495 C1.38098864,0.396495 1.38496591,0.396495 1.38973864,0.396495 C1.38973864,0.397329545 1.39053409,0.398125 1.39053409,0.398125 C1.48519318,0.520625 1.462125,0.666988636 1.462125,0.805397727 C1.46451136,1.990625 1.46053409,3.17664773 1.46769318,4.361875 C1.46928409,4.493125 1.38973864,4.72619318 1.59894318,4.72539773 C1.77871591,4.72539773 1.71507955,4.50267045 1.71507955,4.37460227 C1.72064773,3.20607955 1.71746591,2.03835227 1.71985227,0.870625 C1.71985227,0.730625 1.698375,0.585056818 1.785875,0.458579545 C1.79701136,0.455397727 1.80576136,0.453011364 1.81530682,0.451420455 L1.81610227,0.451420455 C1.91076136,0.438693182 1.908375,0.531761364 1.92269318,0.592215909 C1.95132955,0.713920455 1.93939773,0.838806818 1.93939773,0.962897727 C1.94019318,3.19255682 1.94894318,5.42221591 1.93382955,7.65267045 C1.92985227,8.23255682 2.06507955,8.73528409 2.46678409,9.15767045 C2.51610227,9.20857955 2.55746591,9.26664773 2.57735227,9.33664773 C2.57894318,9.34460227 2.58053409,9.35255682 2.58053409,9.36051136 C2.582125,9.36767045 2.582125,9.37482955 2.582125,9.38119318" mask="url(#github-color-icon@3x-l)"/>
    </g>
    <path fill="#6ABAEA" d="M22.35975,32.6135568 C22.2269091,33.1592386 22.25475,33.7120795 22.2515682,34.2649205 C22.2507727,34.3770795 22.2650909,34.4932159 22.2189545,34.5982159 C22.2086136,34.622875 22.1942955,34.6467386 22.1767955,34.6706023 C21.9731591,34.7557159 21.7575909,34.6968523 21.5483864,34.7207159 C21.4545227,34.7318523 21.3519091,34.6992386 21.2683864,34.7700341 L20.2056591,34.7700341 C20.2056591,34.4534432 20.2191818,34.1368523 20.2024773,33.8202614 C20.1579318,32.9444659 20.3233864,32.1275341 20.8515682,31.4068523 C20.8603182,31.4044659 20.8682727,31.4036705 20.8762273,31.4036705 C20.951,31.3965114 21.0138409,31.4354886 21.0727045,31.4744659 C21.4378182,31.7146932 21.8379318,31.8674205 22.2595227,31.9708295 C22.3311136,31.9883295 22.41225,31.9970795 22.456,32.0662841 C22.4591818,32.0718523 22.4623636,32.0774205 22.4655455,32.0837841 L22.4655455,32.0845795 C22.4679318,32.0893523 22.4703182,32.0957159 22.4727045,32.1020795 C22.4870227,32.2834432 22.4019091,32.4449205 22.35975,32.6135568"/>
    <path fill="#FBC8AC" d="M28.6557727,13.6099886 C28.7027045,14.6210114 28.5841818,15.6081705 28.1649773,16.5380568 C27.6336136,17.716125 26.6735,18.3890795 25.4739545,18.7669205 C24.4692955,19.0827159 23.4320227,19.1940795 22.3875909,19.238625 C20.6527045,19.3126023 18.9178182,19.3332841 17.1853182,19.1893068 C16.0637273,19.0954432 14.95725,18.9164659 13.9016818,18.5004432 C11.9806591,17.7431705 11.0237273,16.3041932 10.9044091,14.2726023 C10.8924773,14.0697614 10.9036136,13.866125 10.9044091,13.6624886 C11.0189545,12.4677159 11.6529318,11.5712386 12.5502045,10.8338523 C13.1603182,10.3335114 13.8969091,10.1744205 14.6581591,10.1362386 C15.6500909,10.0869205 16.6380455,10.1839659 17.6252045,10.2714659 C18.886,10.3828295 20.1452045,10.4233977 21.4115682,10.3088523 C22.5641818,10.2038523 23.7191818,10.0805568 24.8813409,10.129875 C25.8239545,10.1712386 26.68225,10.4416932 27.3599773,11.1241932 C28.0464545,11.8138523 28.5627045,12.6045341 28.6557727,13.6099886"/>
    <path fill="#CA9982" d="M28.6557727,13.6099886 C28.5300909,13.1239659 28.3916818,12.6419205 28.1220227,12.212375 C27.461,11.1599886 26.6170227,10.3772614 25.3021364,10.2515795 C24.3921364,10.164875 23.4885,10.2006705 22.5824773,10.3008977 C22.1179318,10.3526023 21.6517955,10.3820341 21.1856591,10.4154432 C20.2239545,10.4846477 19.2598636,10.4854432 18.3005455,10.4082841 C17.0962273,10.3120341 15.8942955,10.1640795 14.6836136,10.2094205 C13.7457727,10.2444205 12.8866818,10.514875 12.2216818,11.2101023 C11.5702045,11.8902159 11.0603182,12.6554432 10.9346364,13.621125 C10.9330455,13.6362386 10.9139545,13.6489659 10.9044091,13.6624886 C10.8900909,12.7779432 11.2758864,12.0485114 11.7873636,11.363625 C12.5931591,10.2857841 13.6924773,9.84907955 15.0073636,9.82998864 C16.1512273,9.81328409 17.2871364,9.92464773 18.4278182,9.97953409 C19.3990682,10.0272614 20.3742955,10.0264659 21.3479318,9.95885227 C22.5403182,9.87692045 23.7319091,9.77589773 24.9282727,9.83476136 C27.0720227,9.94135227 28.2795227,11.6881705 28.6064545,13.0587386 C28.6486136,13.2393068 28.6820227,13.4222614 28.6557727,13.6099886"/>
    <path fill="#010000" d="M24.485125,22.4315 C24.4716023,22.4291136 24.4548977,22.42275 24.4342159,22.4124091 C24.3618295,22.3758182 24.3292159,22.2930909 24.2918295,22.2230909 C23.7334205,21.1794545 22.8067159,20.7347955 21.6803523,20.594 C20.6128523,20.4603636 19.5437614,20.5407045 18.4754659,20.5470682 C17.8112614,20.5518409 17.1502386,20.6115 16.4987614,20.7491136 C16.3778523,20.7745682 16.260125,20.8159318 16.1408068,20.8469545 C16.0867159,20.8612727 16.0167159,20.9018409 15.9777386,20.84775 C15.9681932,20.8350227 15.9602386,20.8175227 15.9546705,20.7936591 C16.1264886,20.5526364 16.3364886,20.3521818 16.5767159,20.1819545 C16.5950114,20.1684318 16.6133068,20.1557045 16.6308068,20.1437727 C16.7954659,20.0467273 16.9577386,20.1501364 17.1208068,20.1501364 C19.1285341,20.1453636 21.1354659,20.1445682 23.1431932,20.1429773 C23.1614886,20.1572955 23.1797841,20.1716136 23.1980795,20.1859318 L23.198875,20.1859318 C23.898875,20.7292273 24.3554659,21.4276364 24.5217159,22.3105909 C24.5280795,22.3662727 24.5559205,22.4482045 24.485125,22.4315"/>
    <path fill="#201F1F" d="M26.0635455,30.5581023 C26.0357045,30.5811705 26.0070682,30.6002614 25.9768409,30.6169659 L25.9768409,30.6177614 C25.9108182,30.6551477 25.8400227,30.676625 25.7644545,30.6893523 C25.7636591,30.6893523 25.7620682,30.6893523 25.7612727,30.6901477 C25.7238864,30.6957159 25.6857045,30.6981023 25.6475227,30.6996932 C24.9459318,30.7148068 24.2737727,30.6129886 23.6644545,30.2375341 C23.0058182,29.8310568 22.7019545,29.2249205 22.6836591,28.4676477 C22.6717273,27.9951477 22.6804773,27.5218523 22.6820682,27.0485568 L22.6820682,27.036625 C22.6820682,27.0286705 22.6820682,27.0215114 22.6812727,27.0135568 C22.6701364,26.2173068 22.6804773,25.4210568 22.6757045,24.6256023 C22.6733182,24.2159432 22.6168409,23.8142386 22.4768409,23.4284432 C22.4354773,23.3146932 22.4036591,23.1929886 22.2612727,23.0800341 C22.2421818,24.3996932 22.26525,25.6867386 22.2493409,26.9721932 L22.2493409,27.0143523 C22.2517273,27.9426477 22.2469545,28.8709432 22.2517273,29.7992386 C22.2557045,30.3592386 22.3957045,30.8532159 22.8666136,31.2270795 C23.2182045,31.5062841 23.1338864,31.8809432 22.7154773,32.0806023 C22.6995682,32.0877614 22.6836591,32.0957159 22.6669545,32.1020795 C22.6613864,32.1036705 22.6550227,32.1060568 22.6486591,32.1068523 C22.5842273,32.120375 22.5221818,32.1179886 22.4657045,32.0845795 L22.4657045,32.0837841 C22.4569545,32.0790114 22.4482045,32.0734432 22.4394545,32.0670795 C21.8651364,31.9835568 21.3480909,31.7592386 20.8771818,31.4243523 C20.8692273,31.4195795 20.8604773,31.4132159 20.8517273,31.4068523 C20.3084318,30.9279886 20.1191136,30.3218523 20.1262727,29.6059432 C20.1485455,27.3396932 20.1437727,25.0726477 20.1461591,22.8056023 C20.1461591,22.7029886 20.1795682,22.5940114 20.1135455,22.4961705 C20.11275,22.4961705 20.1119545,22.495375 20.1111591,22.4945795 C19.9775227,22.399125 19.8351364,22.3895795 19.6855909,22.4412841 C19.6792273,22.4436705 19.6712727,22.4468523 19.6641136,22.4492386 C19.5901364,22.5438977 19.6275227,22.6544659 19.6267273,22.7562841 C19.6259318,25.0201477 19.6171818,27.2824205 19.6354773,29.5462841 C19.6410455,30.2733295 19.4588864,30.9033295 18.9219545,31.4108295 C18.9155909,31.4219659 18.9092273,31.4323068 18.9012727,31.4426477 C18.7063864,31.7186705 18.39775,31.8300341 18.1034318,31.9485568 C17.8457045,32.0519659 17.5760455,32.1243523 17.29525,32.1315114 C17.2610455,32.1323068 17.2260455,32.1323068 17.19025,32.1315114 C17.1687727,32.1307159 17.1480909,32.1299205 17.1266136,32.1283295 C17.10275,32.1267386 17.0804773,32.1251477 17.0574091,32.1211705 C17.0430909,32.1179886 17.0295682,32.1156023 17.01525,32.1108295 C17.0080909,32.1092386 17.0009318,32.1076477 16.9953636,32.1052614 C16.6310455,31.8777614 16.5912727,31.6725341 16.84025,31.2771932 C16.8426364,31.2740114 16.8450227,31.2700341 16.8474091,31.2660568 L16.8474091,31.2652614 C17.409,30.9375341 17.5370682,30.4196932 17.5259318,29.8135568 C17.5084318,28.8820795 17.5171818,27.9498068 17.52275,27.0175341 L17.52275,26.9801477 C17.5108182,25.671625 17.5259318,24.3623068 17.514,23.0092386 C17.3628636,23.1190114 17.3254773,23.2375341 17.2857045,23.3512841 C17.1544545,23.7227614 17.1003636,24.1085568 17.0979773,24.4999205 C17.0908182,25.3415114 17.1035455,26.1831023 17.0916136,27.0246932 L17.0916136,27.054125 C17.0892273,27.5234432 17.1003636,27.9919659 17.0876364,28.4596932 C17.0597955,29.3665114 16.6461591,30.0195795 15.8292273,30.3982159 C15.8220682,30.4006023 15.8157045,30.4037841 15.8085455,30.4069659 C15.7934318,30.414125 15.7759318,30.4212841 15.7600227,30.4284432 C15.2095682,30.6511705 14.6400227,30.7267386 14.0553636,30.6965114 C14.0147955,30.6949205 13.9734318,30.6917386 13.9328636,30.6893523 C13.9209318,30.6877614 13.9113864,30.6869659 13.8994545,30.6861705 C13.7268409,30.6408295 13.5804773,30.5581023 13.5597955,30.3624205 C13.5383182,30.1524205 13.6536591,30.0100341 13.8262727,29.9106023 C13.9718409,29.8270795 14.1285455,29.7642386 14.2741136,29.679125 C14.7736591,29.3848068 15.0305909,28.952875 15.0274091,28.3698068 C15.0266136,28.121625 15.0258182,27.8742386 15.0282045,27.6268523 C15.0297955,27.5401477 15.0218409,27.4494659 15.0695682,27.3731023 C15.0783182,27.3571932 15.09025,27.342875 15.1053636,27.3277614 C15.1292273,26.4050341 15.1371818,25.4831023 15.1013864,24.560375 C15.1005909,24.5556023 15.1005909,24.5500341 15.1005909,24.5444659 C15.0894545,24.3551477 15.0791136,24.1650341 15.0743409,23.9757159 C15.0687727,23.8007159 15.0663864,23.6257159 15.0695682,23.4507159 C15.0735455,23.1834432 15.09025,22.915375 15.12525,22.6473068 C15.1308182,22.6083295 15.1363864,22.5701477 15.14275,22.5319659 C15.1435455,22.5208295 15.1451364,22.5104886 15.1475227,22.5001477 C15.1499091,22.4826477 15.1562727,22.4659432 15.1634318,22.4500341 C15.1745682,22.4261705 15.1904773,22.4046932 15.2079773,22.3840114 C15.3718409,21.8606023 15.5436591,21.3427614 15.8713864,20.8933295 C15.8968409,20.8583295 15.9270682,20.8265114 15.9549091,20.7938977 C15.9755909,20.7938977 15.9978636,20.7938977 16.0185455,20.7923068 C16.2555909,20.7771932 16.4679773,20.6570795 16.7042273,20.6252614 C17.3421818,20.5369659 17.9801364,20.465375 18.6244545,20.4677614 C19.4883182,20.4709432 20.3521818,20.3977614 21.2160455,20.4677614 C22.2191136,20.5504886 23.1792273,20.7437841 23.8991136,21.5320795 C24.1146818,21.7675341 24.2801364,22.040375 24.4280909,22.3219659 C24.4479773,22.3593523 24.4638864,22.3800341 24.4774091,22.3848068 C24.4957045,22.390375 24.5100227,22.3657159 24.5219545,22.3100341 C24.64525,22.7292386 24.64525,23.1627614 24.6492273,23.5923068 C24.6571818,24.7234432 24.6516136,25.8537841 24.6524091,26.9857159 C24.6524091,27.0819659 24.6619545,27.1782159 24.6675227,27.2752614 C24.6810455,27.2879886 24.6921818,27.3015114 24.7009318,27.3158295 C24.7510455,27.3921932 24.7430909,27.4844659 24.7438864,27.5727614 C24.7470682,27.8106023 24.7343409,28.0492386 24.7470682,28.2870795 C24.7804773,28.9099205 25.0541136,29.3975341 25.5950227,29.7244659 C25.7230909,29.8008295 25.8662727,29.8533295 25.9800227,29.9551477 C26.18525,30.1420795 26.2107045,30.3258295 26.0635455,30.5581023"/>
    <path fill="#89DAF2" d="M30.7073295,32.0060682 C30.1210795,32.6384545 29.378125,33.0290227 28.599375,33.3535682 C27.3624432,33.8690227 26.0658523,34.1720909 24.7485795,34.3940227 C24.723125,34.3987955 24.6952841,34.3916364 24.6690341,34.3900455 C24.6507386,34.3709545 24.6372159,34.3510682 24.626875,34.3295909 C24.5958523,34.2635682 24.5982386,34.1887955 24.5974432,34.1164091 C24.5950568,33.5333409 24.5974432,32.9502727 24.5958523,32.368 C24.5958523,31.7833409 25.0413068,30.9298182 25.7611932,30.6895909 C25.7619886,30.6895909 25.7635795,30.6895909 25.764375,30.6887955 C25.7826705,30.6832273 25.8009659,30.6768636 25.8192614,30.6720909 C25.9171023,30.6450455 25.9847159,30.5758409 26.0475568,30.4994773 C26.1485795,30.2481136 26.0825568,30.0516364 25.808125,29.9243636 C24.9673295,29.5345909 24.626875,28.8576591 24.6523295,27.9627727 C24.6586932,27.7368636 24.661875,27.51175 24.6674432,27.2858409 L24.6674432,27.2747045 C26.3458523,27.5586818 27.9948295,27.9389091 29.5046023,28.7637955 C30.0105114,29.0406136 30.4830114,29.3651591 30.8361932,29.8384545 C31.3715341,30.55675 31.3253977,31.3402727 30.7073295,32.0060682"/>
    <path fill="#6ABAEA" d="M26.0472386,30.4997955 C26.0305341,30.5475227 26.0066705,30.5857045 25.9764432,30.6167273 L25.9764432,30.6175227 C25.9263295,30.6700227 25.8611023,30.7058182 25.787125,30.7400227 C25.0807614,31.0780909 24.6941705,31.6396818 24.6742841,32.4271818 C24.6591705,33.0587727 24.6695114,33.6911591 24.6695114,34.32275 L24.6695114,34.3903636 C24.0737159,34.4937727 23.4763295,34.5892273 22.8709886,34.6162727 L22.8701932,34.6162727 C22.7930341,34.6258182 22.7476932,34.6107045 22.7198523,34.5804773 C22.6705341,34.5279773 22.6832614,34.4293409 22.6800795,34.3553636 C22.663375,33.9934318 22.6768977,33.6315 22.672125,33.2687727 C22.6681477,32.8813864 22.6912159,32.4924091 22.6490568,32.1066136 C22.6466705,32.0883182 22.6450795,32.0700227 22.6426932,32.0517273 C23.1223523,31.8313864 23.1462159,31.514 22.7126932,31.1958182 C22.3014432,30.8943409 22.1924659,30.43775 22.1813295,29.9763864 C22.155875,28.9884318 22.1773523,27.9980909 22.1797386,27.0093409 C22.2028068,26.9942273 22.2266705,26.9815 22.2497386,26.9719545 C22.4000795,26.9051364 22.5424659,26.93775 22.6816705,27.0133182 C22.7039432,27.0260455 22.7270114,27.0395682 22.7492841,27.0538864 C22.7532614,27.4428636 22.759625,27.8318409 22.7612159,28.2208182 C22.7643977,29.5619545 23.4309886,30.3462727 24.7538295,30.5650227 C25.0163295,30.6087727 25.279625,30.6286591 25.5461023,30.6342273 C25.7306477,30.6382045 25.8961023,30.6055909 26.0472386,30.4997955"/>
    <path fill="#89DAF2" d="M22.8701136 34.6165114C22.6442045 34.7008295 22.4071591 34.6443523 22.1764773 34.6706023 22.1772727 34.6483295 22.1772727 34.6268523 22.1772727 34.605375 22.1836364 33.9427614 22.1136364 33.2761705 22.2798864 32.6223068 22.3268182 32.4361705 22.3864773 32.251625 22.4397727 32.0670795 22.4453409 32.0662841 22.4509091 32.0662841 22.4556818 32.0654886 22.5185227 32.0615114 22.5805682 32.0559432 22.6426136 32.0511705 22.6744318 32.0575341 22.6975 32.067875 22.7157955 32.0806023 22.7834091 32.1315114 22.7563636 32.2269659 22.7563636 32.3049205 22.7595455 32.9906023 22.7571591 33.6746932 22.7595455 34.3611705 22.7603409 34.4319659 22.7356818 34.5186705 22.785 34.5727614 22.8017045 34.5926477 22.82875 34.6077614 22.8701136 34.6165114M15.1757614 34.0145114C15.1741705 34.1067841 15.1884886 34.204625 15.1423523 34.2881477 15.1320114 34.3064432 15.1192841 34.3239432 15.1025795 34.3406477 13.335875 34.0312159 11.6113295 33.6040568 10.0824659 32.6081477 9.74678409 32.3901932 9.44848864 32.1261023 9.21860227 31.7943977 8.71428409 31.0657614 8.77394318 30.319625 9.380875 29.6713295 10.0259886 28.9792841 10.8516705 28.5791705 11.7107614 28.2363295 12.8053068 27.799625 13.9467841 27.528375 15.1049659 27.3279205 15.1057614 27.3326932 15.1057614 27.335875 15.1057614 27.3398523 15.1328068 27.7495114 15.1431477 28.1615568 15.1001932 28.5680341 15.0357614 29.1725795 14.6817841 29.5774659 14.1464432 29.8359886 14.0509886 29.8813295 13.9515568 29.9179205 13.8600795 29.9688295 13.7137159 30.0499659 13.6103068 30.1645114 13.6087159 30.3434886 13.607125 30.5240568 13.7518977 30.5686023 13.878375 30.6290568 13.939625 30.6489432 13.9992841 30.6712159 14.0557614 30.6966705 14.7541705 30.9965568 15.1749659 31.6368977 15.1765568 32.4228068 15.1781477 32.953375 15.1789432 33.4839432 15.1757614 34.0145114"/>
    <path fill="#201F1F" d="M15.12525,22.6474659 C15.1117273,22.6816705 15.0942273,22.715875 15.0759318,22.7500795 C15.0711591,22.7564432 15.0655909,22.7636023 15.0576364,22.7675795 C15.0512727,22.7707614 15.0457045,22.7731477 15.0409318,22.7755341 C15.0361591,22.7779205 15.0313864,22.7795114 15.0274091,22.7818977 C14.7187727,22.9234886 14.714,22.9362159 14.9772955,23.1517841 C14.9820682,23.1557614 14.9876364,23.1605341 14.9932045,23.1645114 C15.0003636,23.1700795 15.0075227,23.1756477 15.0138864,23.1812159 C15.0337727,23.197125 15.0417273,23.2257614 15.0512727,23.2504205 C15.0600227,23.3180341 15.0647955,23.3840568 15.0695682,23.450875 C15.0791136,23.625875 15.0767273,23.8016705 15.0743409,23.975875 C15.0719545,24.1079205 15.0687727,24.2407614 15.0703636,24.3720114 C15.0703636,24.4261023 15.0536591,24.4754205 15.0250227,24.5207614 C15.0154773,24.5350795 15.0059318,24.5493977 14.994,24.5629205 C12.8399091,25.0568977 10.7438864,24.658375 9.53479545,22.4756477 C9.37252273,22.182125 9.20309091,21.8917841 9.0265,21.6070114 C8.67809091,21.0454205 8.21354545,20.6087159 7.61695455,20.3167841 C7.38547727,20.204625 7.15718182,20.0829205 6.98377273,19.8880341 C6.79365909,19.6748523 6.83343182,19.5022386 7.10229545,19.3988295 C7.53025,19.2341705 7.95661364,19.3001932 8.37502273,19.4401932 C9.19115909,19.7122386 9.79252273,20.2555341 10.2443409,20.9722386 C10.4909318,21.3628068 10.7486591,21.7430341 11.0978636,22.0484886 C12.1478636,22.9680341 13.3386591,23.0316705 14.6050227,22.6172386 C14.7728636,22.5631477 14.9367273,22.4987159 15.1021818,22.4382614 C15.1101364,22.4493977 15.1180909,22.4613295 15.1236591,22.4732614 C15.134,22.4931477 15.1403636,22.5130341 15.1419545,22.5313295 C15.1483182,22.5718977 15.1403636,22.6100795 15.12525,22.6474659"/>
    <path fill="#6ABAEA" d="M17.0991705 34.2817045C17.0991705 34.3676136 17.1015568 34.4559091 17.0625795 34.5330682 17.0498523 34.5577273 17.0339432 34.5807955 17.0124659 34.6022727 16.3697386 34.5569318 15.7309886 34.4869318 15.1025795 34.3405682L15.1025795 34.2817045C15.1025795 33.6389773 15.112125 32.9970455 15.0986023 32.3551136 15.0834886 31.5930682 14.6817841 31.0736364 14.0207614 30.7355682 13.9905341 30.7188636 13.9595114 30.7069318 13.9332614 30.6886364 13.9109886 30.6735227 13.8926932 30.6560227 13.878375 30.6289773 14.5147386 30.6552273 15.1391705 30.5923864 15.7397386 30.3625 15.7699659 30.3736364 15.7993977 30.3855682 15.8288295 30.3982955 16.2639432 30.5748864 16.6386023 30.8230682 16.8478068 31.2653409L16.8478068 31.2653409C16.8573523 31.2852273 16.8661023 31.3059091 16.8748523 31.3265909 16.6823523 31.7282955 16.7054205 31.85 17.0156477 32.0615909 17.0331477 32.0806818 17.0474659 32.1005682 17.0570114 32.12125 17.1007614 32.2015909 17.0991705 32.2938636 17.0999659 32.3845455 17.1023523 33.0169318 17.1031477 33.6493182 17.0991705 34.2817045M19.3985114 34.7202386C19.2091932 34.7098977 19.0182841 34.7210341 18.8289659 34.7234205 18.8241932 34.7242159 18.8194205 34.7242159 18.8146477 34.7242159 18.4097614 34.7218295 18.004875 34.7170568 17.6031705 34.6558068 17.5816932 34.6335341 17.5657841 34.6104659 17.5546477 34.5858068 17.5093068 34.4911477 17.5260114 34.3829659 17.5220341 34.2795568 17.506125 33.8325114 17.5514659 33.383875 17.4822614 32.937625 17.4377159 32.6448977 17.4058977 32.351375 17.1903295 32.1310341 17.1696477 32.1111477 17.1481705 32.0904659 17.1251023 32.071375 17.7908977 32.0594432 18.3707841 31.8128523 18.8997614 31.4278523 18.9077159 31.4222841 18.9156705 31.4167159 18.9220341 31.4111477 19.3682841 31.9814886 19.5735114 32.6297841 19.571125 33.3528523 19.5703295 33.7314886 19.5981705 34.1109205 19.6212386 34.4887614 19.632375 34.6589886 19.5774886 34.731375 19.3985114 34.7202386"/>
    <path fill="#89DAF2" d="M17.6010227,34.5877955 C17.6018182,34.6108636 17.6018182,34.6331364 17.6034091,34.6562045 C17.4061364,34.6379091 17.2088636,34.6204091 17.0123864,34.6021136 L17.0123864,34.5352955 C17.0131818,33.7271136 17.0147727,32.9189318 17.0155682,32.11075 L17.0155682,32.0614318 C17.0521591,32.0646136 17.0879545,32.0685909 17.1245455,32.0717727 C17.1929545,32.0845 17.2494318,32.1043864 17.2947727,32.1314318 C17.5365909,32.2690455 17.4920455,32.5752955 17.5405682,32.81075 C17.6590909,33.397 17.5835227,33.9943864 17.6010227,34.5877955"/>
    <path fill="#8ADAF2" d="M7.50320455,21.7875 C7.38865909,21.8742045 7.25661364,21.8773864 7.13013636,21.8018182 C6.94479545,21.69125 6.93365909,21.5082955 6.97661364,21.3348864 C7.06013636,20.9880682 7.17070455,20.6460227 7.27093182,20.3023864 C7.28763636,20.3 7.30434091,20.2976136 7.32104545,20.2960227 C7.4165,20.6420455 7.51036364,20.9888636 7.609,21.3340909 C7.65752273,21.5067045 7.65831818,21.6705682 7.50320455,21.7875"/>
    <path fill="#030304" d="M15.2076591,22.3836932 C15.2060682,22.3972159 15.2044773,22.4107386 15.2036818,22.4234659 C15.1376591,23.0669886 15.1583409,23.7136932 15.1511818,24.3588068 C15.1495909,24.4224432 15.1225455,24.4844886 15.10425,24.548125 C15.1034545,24.5521023 15.1018636,24.5560795 15.1010682,24.5608523 C15.0652727,24.5608523 15.0294773,24.5616477 14.9936818,24.5624432 L14.9936818,24.5250568 C14.9936818,24.0748295 14.9920909,23.6246023 14.9920909,23.174375 C14.9873182,23.1664205 14.9825455,23.1592614 14.9777727,23.1521023 C14.8982273,23.016875 14.9364091,22.8967614 15.0270909,22.7822159 C15.0318636,22.7758523 15.0366364,22.7694886 15.0422045,22.7639205 C15.0589091,22.6716477 15.0756136,22.5809659 15.0915227,22.4894886 C15.0947045,22.4727841 15.0986818,22.4552841 15.1018636,22.4377841 C15.1273182,22.4003977 15.1623182,22.3821023 15.2076591,22.3836932"/>
    <path fill="#FBFBFB" d="M19.6641932,22.4493182 C19.8399886,22.2480682 19.9776023,22.2623864 20.1128295,22.49625 C20.1096477,23.8851136 20.1024886,25.2731818 20.1040795,26.6620455 C20.1040795,26.8338636 20.0738523,26.9142045 19.8749886,26.9158102 C19.6506705,26.9173864 19.6657841,26.7901136 19.6657841,26.6421591 C19.6665795,25.2445455 19.6649886,23.8469318 19.6641932,22.4493182"/>
    <path fill="#FEFEFE" d="M16.8093864 14.0353182C16.8181364 14.7894091 16.6638182 15.4496364 16.2271136 16.0207727 15.4825682 16.9936136 14.3768864 16.9665682 13.6721136 15.9627045 12.9426818 14.9238409 12.9379091 13.1889545 13.6800682 12.1580455 13.9362045 11.8024773 14.26075 11.5169091 14.71575 11.4270227 15.3242727 11.3069091 15.7824545 11.5702045 16.1563182 12.0092955 16.5635909 12.4889545 16.8435909 13.2136136 16.8093864 14.0353182M23.0619773 14.0489205C23.0715227 13.3290341 23.2218636 12.6544886 23.6760682 12.0666477 24.3712955 11.1677841 25.4897045 11.1741477 26.1499318 12.1008523 26.6781136 12.8414205 26.8244773 13.671875 26.7083409 14.5651705 26.6240227 15.2142614 26.40925 15.7941477 25.9327727 16.2634659 25.2327727 16.953125 24.2511818 16.8672159 23.6673182 16.0646023 23.2282273 15.4624432 23.0484545 14.7847159 23.0619773 14.0489205"/>
    <path fill="#B8584D" d="M19.7613182,18.3547955 C19.3174545,18.3571818 18.9937045,18.1169545 18.7741591,17.7128636 C18.7216591,17.6166136 18.6747273,17.5100227 18.8004091,17.4344545 C18.9380227,17.3525227 18.9825682,17.4654773 19.0374545,17.5593409 C19.4327955,18.2426364 20.17575,18.2458182 20.5687045,17.5657045 C20.622,17.4734318 20.6641591,17.3549091 20.8033636,17.4304773 C20.9306364,17.5004773 20.8900682,17.6086591 20.8375682,17.7072955 C20.6148409,18.1241136 20.2791591,18.3595682 19.7613182,18.3547955"/>
    <path fill="#B8574D" d="M19.8102386,15.9629432 C20.0608068,15.9653295 20.2660341,16.1856705 20.2612614,16.4497614 C20.2572841,16.6899886 20.0425114,16.902375 19.803875,16.900793 C19.5660341,16.8983977 19.3544432,16.6844205 19.3528523,16.4433977 C19.3504659,16.1801023 19.5596705,15.9605568 19.8102386,15.9629432"/>
    <path fill="#89DAF2" d="M16.8746932,31.32675 C16.5907159,30.8956136 16.1619659,30.6315227 15.7395795,30.3626591 C16.6750341,29.9402727 17.0512841,29.1933409 17.0170795,28.1958409 C17.0035568,27.818 17.0202614,27.4385682 17.0234432,27.0599318 C17.2063977,26.9684545 17.3917386,26.9040227 17.5929886,27.0114091 C17.5945795,28.0606136 17.5993523,29.1090227 17.5969659,30.1582273 C17.5961705,30.6919773 17.3440114,31.0785682 16.8746932,31.32675"/>
    <path fill="#FEFEFE" d="M17.5932273 27.0115682C17.4031136 27.0274773 17.2122045 27.0441818 17.0228864 27.0600909 17.0284545 26.0077045 16.9608409 24.9545227 17.0650455 23.9037273 17.0912955 23.6380455 17.1636818 23.3827045 17.283 23.1440682 17.3482273 23.0136136 17.423 22.8855455 17.5932273 22.7908864L17.5932273 27.0115682zM22.7504773 27.0538864C22.5603636 27.0387727 22.3694545 27.0236591 22.1793409 27.0093409L22.1793409 22.8753636C22.3344545 22.9063864 22.379 23.0384318 22.4386591 23.1450227 22.6550227 23.534 22.73775 23.9635455 22.7472955 24.3970682 22.7663864 25.2816136 22.7512727 26.16775 22.7504773 27.0538864"/>
    <path fill="#87D7EE" d="M10.8885795,22.2058295 C10.8750568,22.3076477 10.8257386,22.3967386 10.6897159,22.3808295 C10.4860795,22.3577614 10.3747159,22.2249205 10.3436932,22.0340114 C10.3238068,21.9115114 10.3914205,21.830375 10.5234659,21.8240114 C10.6833523,21.8168523 10.8861932,22.0220795 10.8885795,22.2058295"/>
    <path fill="#87D5EC" d="M11.4323523,22.635375 C11.6073523,22.6536705 11.7616705,22.7411705 11.7855341,22.9448068 C11.8006477,23.0665114 11.6956477,23.1245795 11.5723523,23.1269659 C11.3838295,23.1309432 11.1682614,22.9519659 11.1801932,22.8008295 C11.1873523,22.6942386 11.2732614,22.6337841 11.4323523,22.635375"/>
    <path fill="#88D7EE" d="M12.6146364,23.4510341 C12.4627045,23.4359205 12.2964545,23.400125 12.2821364,23.1996705 C12.271,23.0366023 12.4125909,23.006375 12.5414545,23.0047841 C12.7116818,23.0023977 12.8819091,23.0509205 12.9025909,23.2402386 C12.9216818,23.4080795 12.7721364,23.4462614 12.6146364,23.4510341"/>
    <path fill="#87D6ED" d="M13.7969205,23.466625 C13.6537386,23.4475341 13.4930568,23.4276477 13.5010114,23.2383295 C13.5081705,23.0585568 13.6640795,23.0251477 13.8112386,23.0219659 C13.962375,23.0195795 14.1206705,23.0696932 14.1246477,23.2383295 C14.128625,23.4324205 13.953625,23.4546932 13.7969205,23.466625"/>
    <path fill="#87D5ED" d="M9.96338636,21.4872955 C9.78122727,21.46025 9.68259091,21.3385455 9.66031818,21.1524091 C9.64759091,21.0458182 9.67781818,20.9567273 9.80509091,20.9408182 C9.95304545,20.9233182 10.1415682,21.1150227 10.1431591,21.2884318 C10.1439545,21.3982045 10.1002045,21.4769545 9.96338636,21.4872955"/>
    <path fill="#86D4EB" d="M9.15003409,20.2109886 C9.32026136,20.2436023 9.43560227,20.3279205 9.45946591,20.4989432 C9.47219318,20.5991705 9.40060227,20.6468977 9.31151136,20.6453068 C9.14923864,20.6429205 9.04821591,20.5474659 9.01242045,20.3947386 C8.98776136,20.2865568 9.05855682,20.2356477 9.15003409,20.2109886"/>
    <path fill="#87D6EE" d="M15.0422045,22.7636023 C15.0255,22.9004205 15.0087955,23.0380341 14.9920909,23.1748523 C14.8314091,23.1875795 14.6587955,23.1668977 14.6707273,22.969625 C14.68425,22.7604205 14.8560682,22.7214432 15.0422045,22.7636023"/>
    <path fill="#84D0E7" d="M8.60554545,20.0928636 C8.48781818,20.0729773 8.37963636,20.0228636 8.36054545,19.894 C8.34622727,19.7929773 8.43213636,19.7635455 8.52043182,19.7667273 C8.64611364,19.7715 8.74952273,19.8263864 8.76622727,19.9576364 C8.77975,20.0554773 8.69543182,20.0865 8.60554545,20.0928636"/>
    <path fill="#B7574D" d="M16.3821477 14.1157386C16.3654432 14.6494886 16.2413523 15.1569886 15.8444205 15.5586932 15.4212386 15.9882386 14.8620341 15.9810795 14.4356705 15.553125 13.7388523 14.8515341 13.743625 13.3322159 14.4452159 12.6346023 14.872375 12.2114205 15.4355568 12.2114205 15.8547614 12.6457386 16.246125 13.0514205 16.368625 13.5589205 16.3821477 14.1157386M25.9493977 14.1122386C25.9326932 14.5863295 25.8284886 15.0373523 25.5317841 15.4239432 25.0704205 16.0237159 24.3568977 16.0245114 23.8939432 15.4303068 23.3490568 14.7318977 23.3403068 13.4989432 23.8732614 12.7917841 24.352125 12.1578068 25.0942841 12.1641705 25.559625 12.8092841 25.8388295 13.195875 25.9366705 13.6397386 25.9493977 14.1122386"/>
    <path fill="#FDFBFB" d="M14.6226818,12.9516705 C14.8215455,12.9516705 14.97825,13.1036023 14.9790455,13.2992841 C14.9790455,13.4854205 14.8112045,13.6540568 14.6234773,13.6540568 C14.43575,13.6548523 14.2679091,13.4878068 14.2679091,13.3000795 C14.2679091,13.1051932 14.4230227,12.9516705 14.6226818,12.9516705"/>
    <path fill="#FDFCFC" d="M24.637375,13.3093864 C24.6174886,13.4987045 24.5156705,13.6156364 24.3144205,13.6068864 C24.1139659,13.5973409 24.0145341,13.4740455 24.0232841,13.2775682 C24.0304432,13.08825 24.1513523,12.98325 24.3279432,12.9848409 C24.5204432,12.9864318 24.6294205,13.1049545 24.637375,13.3093864"/>
  </g>
</svg>
