<svg xmlns="http://www.w3.org/2000/svg" xmlns:xlink="http://www.w3.org/1999/xlink" width="780" height="542" viewBox="0 0 780 542">
  <defs>
    <filter id="banner-image@3x-a" width="125.3%" height="140.1%" x="-12.7%" y="-20%" filterUnits="objectBoundingBox">
      <feOffset dx="-20" dy="3" in="SourceAlpha" result="shadowOffsetOuter1"/>
      <feGaussianBlur in="shadowOffsetOuter1" result="shadowBlurOuter1" stdDeviation="6"/>
      <feColorMatrix in="shadowBlurOuter1" result="shadowMatrixOuter1" values="0 0 0 0 0   0 0 0 0 0   0 0 0 0 0  0 0 0 0.192772925 0"/>
      <feMerge>
        <feMergeNode in="shadowMatrixOuter1"/>
        <feMergeNode in="SourceGraphic"/>
      </feMerge>
    </filter>
    <filter id="banner-image@3x-b" width="108.2%" height="113%" x="-4.1%" y="-6.5%" filterUnits="objectBoundingBox">
      <feOffset in="SourceAlpha" result="shadowOffsetOuter1"/>
      <feGaussianBlur in="shadowOffsetOuter1" result="shadowBlurOuter1" stdDeviation="6.5"/>
      <feColorMatrix in="shadowBlurOuter1" result="shadowMatrixOuter1" values="0 0 0 0 0   0 0 0 0 0   0 0 0 0 0  0 0 0 0.0579710145 0"/>
      <feMerge>
        <feMergeNode in="shadowMatrixOuter1"/>
        <feMergeNode in="SourceGraphic"/>
      </feMerge>
    </filter>
    <rect id="banner-image@3x-c" width="648" height="409.062" x="0" y="0" rx="3"/>
    <rect id="banner-image@3x-e" width="178.56" height="135.394" x="0" y="0" rx="2"/>
    <rect id="banner-image@3x-g" width="178.56" height="135.394" x="0" y="0" rx="2"/>
  </defs>
  <g fill="none" fill-rule="evenodd" filter="url(#banner-image@3x-a)" transform="translate(66 66)">
    <g filter="url(#banner-image@3x-b)">
      <mask id="banner-image@3x-d" fill="#fff">
        <use xlink:href="#banner-image@3x-c"/>
      </mask>
      <rect width="649" height="410.062" x="-.5" y="-.5" stroke="#EDF1F5" rx="3"/>
      <rect width="653.76" height="409.062" x="-2.88" y="34.569" fill="#140837" mask="url(#banner-image@3x-d)"/>
      <g mask="url(#banner-image@3x-d)">
        <path fill="#FFF" fill-rule="nonzero" d="M67.7053629 9.56593698C68.5084635 9.26922734 69.3715529 9.1717577 70.2205986 9.28188862 71.7979597 9.44533226 72.9468657 10.2308445 73.7641024 11.5416187 74.1893759 12.2255672 74.5860984 13.5093513 74.5464268 14.337719 74.5162838 16.1229711 74.2227336 17.4194595 73.3182127 18.5302816 72.5110193 19.5225964 71.3258604 20.1324311 70.0492016 20.2123821 67.778353 20.4218526 65.8106245 19.3094572 65.0250813 17.178248 64.4669034 15.7178324 64.4310276 14.1093065 64.9235381 12.6254569 65.3916629 11.1861556 66.2692186 10.121348 67.7053629 9.56593698zM54.1523704 9.21977196L54.4357568 9.23427812C55.435084 9.28630557 56.4204501 9.49183454 57.3572478 9.84364663 57.6127162 9.94521045 57.7698088 10.0293108 57.6746249 10.3816066 57.5670679 10.8672538 57.4938833 11.3598796 57.4556154 11.8558203 57.409634 12.238257 57.3223478 12.3065002 56.9811416 12.1414585 56.176602 11.7227844 55.2989134 11.4630875 54.3960914 11.3765749 53.9152974 11.3432564 53.4439558 11.3448463 53.0234456 11.6019211 52.8250852 11.7141264 52.6954831 11.917601 52.6776618 12.1447999 52.6598406 12.3719987 52.756132 12.5931922 52.9345716 12.7349534 53.3741433 13.1221554 53.9390851 13.2348275 54.4786122 13.3935181 55.3910741 13.6648849 56.3289569 13.8679961 57.1319285 14.4170643 57.8604498 14.8683953 58.2984604 15.6691288 58.2855565 16.5260281 58.2871401 17.2306094 58.3538307 17.9478866 57.8634585 18.550904 57.2953288 19.4649537 56.4114592 19.8585006 55.3990027 20.0679711 54.4907032 20.2340888 53.5596148 20.2319382 52.6520924 20.0616262 52.393772 20.1059088 52.1284311 20.0459918 51.9142051 19.8950029 51.8906366 19.8902803 51.8667852 19.8871001 51.8428028 19.8854824 51.2308141 19.7735549 50.6415387 19.5612253 50.09881 19.2570813 49.9401215 19.177736 49.9321805 19.0476087 49.9607336 18.8889202 50.0607303 18.3366805 50.1622714 17.7844368 50.2368514 17.2274359 50.2828762 16.8910158 50.4542731 16.8989588 50.6684801 17.0385961 51.2106637 17.351428 51.781989 17.6107837 52.3743869 17.8130002 52.3857585 17.8165376 52.3968992 17.8207785 52.4077446 17.8256983 53.2741817 18.0510341 54.1358514 18.2985884 55.0403723 17.9827991 55.4370948 17.8447412 55.7687619 17.5321294 55.7782596 17.1496825 55.7989894 16.7866264 55.6001634 16.4464909 55.2736408 16.2864209 54.7166399 15.9769847 54.0993553 15.8674882 53.4995072 15.692924 52.6743876 15.4826012 51.885417 15.1498977 51.158844 14.7058822 50.3606316 14.1885508 49.9813829 12.6857655 50.1606837 11.8558244 50.4717077 10.4196905 51.4238329 9.69765611 52.7473217 9.36916868 53.2995704 9.23589828 53.8693537 9.1903778 54.4357568 9.23427812zM44.8176459 9.32631531C45.8608982 9.33811693 46.894299 9.5297665 47.8724067 9.89283664 48.1389937 9.98488002 48.2897413 10.108652 48.2072184 10.4387272 48.0913873 10.9100296 48.0215624 11.3924506 47.9501601 11.8732734 47.9152539 12.1176605 47.8311432 12.1922404 47.5994645 12.0668786 46.8766385 11.6857268 46.0942479 11.4302972 45.2857645 11.3115175 44.7926983 11.2104343 44.2815897 11.242753 43.8051832 11.4051383 43.4812664 11.5048766 43.2455041 11.7846865 43.2021576 12.1208278 43.15932 12.4448963 43.3235037 12.7612079 43.6131762 12.9126849 44.2019057 13.2840216 44.8795113 13.4189039 45.534917 13.6029886 46.1982221 13.7677461 46.839975 14.0095377 47.4470898 14.3234331 48.5166918 14.916928 48.9641672 15.9261987 48.8245464 17.2655363 48.6467942 18.9793758 47.3995206 19.7823432 45.9840257 20.02672 44.2844348 20.3203011 42.6578713 20.0219649 41.0820999 19.3586451 40.7171061 19.2031218 40.5901482 19.0126922 40.7091651 18.6112146 40.8188712 18.2050955 40.890595 17.7896592 40.9234113 17.3702653 40.9599054 17.0068696 41.0868653 17.0211472 41.3566278 17.1798357 42.4564481 17.8695625 43.7357336 18.21851 45.0334427 18.1827512 45.323685 18.1706265 45.6087999 18.1021768 45.8729125 17.9812133 46.2024086 17.8572743 46.4251894 17.5475184 46.4378564 17.1957114 46.4917068 16.8359407 46.3311932 16.4777392 46.0268377 16.2784841 45.484133 15.9277761 44.8589074 15.8135246 44.2558817 15.6405502 43.5049008 15.4522372 42.7784704 15.1769003 42.0913396 14.8201296 40.9281767 14.1695099 40.6282713 12.8555581 40.888503 11.7098277 41.2376109 10.1784748 42.5261852 9.56911459 43.7512609 9.38344212 44.1019565 9.33108069 44.4621849 9.34376843 44.8176459 9.32631531zM80.3925451 9.62146776C81.4319669 9.22315751 82.4872334 9.15968787 83.483806 9.71668875 84.2169589 10.1276867 84.6644819 10.7434022 84.6565389 11.6558641 84.6343018 14.274239 84.6438326 16.8926098 84.6549594 19.5125621 84.6549594 19.8077166 84.6025794 19.9330909 84.2709061 19.91405 83.7434318 19.8838988 83.214666 19.8838988 82.6871917 19.91405 82.3238249 19.9346642 82.2492078 19.795033 82.2523854 19.4601904 82.2650917 17.4464268 82.2587386 15.4326612 82.2587386 13.4204855 82.2711208 13.1175577 82.2363276 12.8145465 82.1556056 12.5223094 81.9778089 11.8539634 81.2935438 11.4547547 80.6242341 11.6288884 79.8466731 11.7970995 79.2420576 12.249359 78.6961773 12.7984272 78.5801838 12.9440135 78.5327411 13.1326126 78.5660418 13.3157544 78.5660418 15.3691854 78.5580988 17.421041 78.5739827 19.4744783 78.5771603 19.8299393 78.4676742 19.9283255 78.1248802 19.9124601 77.5440917 19.8870661 76.9617153 19.8918294 76.3824773 19.9108724 76.0889271 19.9219826 75.9936979 19.8267617 75.9968734 19.531603 76.007994 17.9129721 76.0016388 16.2943515 76.0016388 14.6757206 76.0016388 13.0967634 76.0095818 11.5162164 75.9952573 9.9372592 75.9936896 9.63734343 76.0587367 9.51039381 76.3888222 9.52943677 76.888717 9.55800017 77.391748 9.54688989 77.8931933 9.53260406 78.1280496 9.52625916 78.2169236 9.60719225 78.2343974 9.8436363 78.2550075 10.1181663 78.3391182 10.3863452 78.3724366 10.6593018 78.4025775 10.9052684 78.4771574 10.9274869 78.6580852 10.7672085 79.1622287 10.2835916 79.7498882 9.8953985 80.3925451 9.62146776zM32.1066368 4.66085222C32.7652857 4.51009749 33.445303 4.47626169 34.1156638 4.56088855 34.3790691 4.59579479 34.5123822 4.68784437 34.5393454 4.97029876 34.5837845 5.44002164 34.6567746 5.90974453 34.742469 6.3747103 34.7900836 6.63653395 34.6996197 6.70318947 34.4536428 6.6825608 34.1791149 6.66193007 33.8998196 6.65716469 33.6237039 6.66193007 32.8715245 6.67461781 32.4557839 7.0348442 32.3970507 7.76798677 32.3589668 8.26626894 32.3875199 8.76772665 32.3764386 9.26759659 32.3700854 9.52149583 32.5303246 9.53578167 32.7160156 9.53578167 33.1650809 9.53578167 33.6141834 9.54371434 34.0616961 9.53419389 34.2664115 9.52784899 34.3679547 9.57545536 34.39492 9.80555452 34.455243 10.3149408 34.5425292 10.8195802 34.6361315 11.3242114 34.6837461 11.5812862 34.5742599 11.6606315 34.3425792 11.6606315 33.8681012 11.6590417 33.3920293 11.6590417 32.9175555 11.6606315 32.3843423 11.6622193 32.3779892 11.6685642 32.3779892 12.1843036 32.3764324 14.6058999 32.3700854 17.0290757 32.3859301 19.450672 32.3875137 19.8220087 32.2764439 19.9330929 31.9130399 19.9124622 31.386182 19.8854783 30.8577734 19.9076968 30.3293256 19.906109 29.8199414 19.9045316 29.8183516 19.9029438 29.8183516 19.3760941L29.8183516 15.8214634C29.8183516 14.5709937 29.8119984 13.3205239 29.8231169 12.0700521 29.8262946 11.7717261 29.7437737 11.6542866 29.4216291 11.6527092 28.3139825 11.6527092 28.3139825 11.6415989 28.3139825 10.5180787 28.3139825 10.3990618 28.3123948 10.2816326 28.3139825 10.1626157 28.3219255 9.51357348 28.2044964 9.53738183 28.9614473 9.53738183L29.0896772 9.53702093C29.8174099 9.53345781 29.8094896 9.49144257 29.8215292 8.69315291 29.8310599 8.05046594 29.7897985 7.41094419 29.9246622 6.76666531 30.1817556 5.55903859 30.9672596 4.91634955 32.1066368 4.66085222zM62.352782 9.53102041C62.6669836 9.52149996 62.7574474 9.63417201 62.7542698 9.94361855 62.7399737 11.5479615 62.7479167 13.1523066 62.7479167 14.7566599 62.7479167 16.3213334 62.7399737 17.884417 62.7542698 19.4490883 62.7574392 19.7839289 62.6717531 19.9267439 62.3131103 19.9124663 61.7212032 19.88866 61.1261185 19.8981805 60.5342114 19.9092908 60.2549181 19.9140603 60.1358859 19.8347108 60.1358859 19.5300214 60.1453989 16.3223843 60.1453989 13.1142221 60.1358859 9.9055347 60.1343133 9.59608816 60.2565058 9.52626535 60.5326236 9.53261025 61.1388269 9.54530624 61.7465787 9.55007163 62.352782 9.53102041zM38.2748935 9.53102041C38.5890951 9.51992045 38.6843223 9.62623934 38.6811468 9.93884904 38.6668506 11.5289207 38.6747915 13.1205759 38.6747915 14.7106351 38.6747915 16.3022904 38.6652628 17.8923476 38.6811468 19.4840049 38.6843223 19.820425 38.5684437 19.920399 38.2463012 19.9108786 37.6543941 19.8934254 37.0593093 19.8965927 36.4658144 19.9092908 36.1722622 19.9156336 36.0849759 19.8045597 36.0849759 19.5141561 36.0966237 16.3202742 36.0960945 13.125333 36.0833722 9.92933272 36.0817983 9.60243306 36.1992275 9.52467758 36.4944068 9.53261025 37.0879017 9.54689608 37.6829864 9.55165114 38.2748935 9.53102041zM71.3504471 12.439801C70.4443425 11.0925328 68.5955877 11.0861879 67.7624711 12.4429765 67.3592318 13.1423817 67.1689576 13.9442984 67.215001 14.7503068 67.1929049 15.3833146 67.3104833 16.0134214 67.5593827 16.5958613 67.8719924 17.3417019 68.3893216 17.884417 69.2256158 17.9939114 70.0689009 18.1483986 70.9204645 17.7689375 71.3694673 17.0386003 72.1391246 15.8770045 72.1295876 13.5966437 71.3504471 12.439801zM61.46252 4.82589601C62.080852 4.82782744 62.6369542 5.20255318 62.8708999 5.77492339 63.1048456 6.3472936 62.970427 7.00425681 62.5304726 7.43874312 62.0905182 7.87322942 61.4319253 7.99942144 60.8625256 7.75833599 60.2931259 7.51725054 59.9253841 6.95650553 59.9311857 6.3381977 59.9273387 5.93262349 60.0880659 5.54281327 60.3766509 5.25781509 60.6652358 4.97281691 61.0570256 4.81697723 61.46252 4.82589601zM37.3973379 4.82589601C37.8028373 4.81709776 38.1947234 4.97233644 38.4841967 5.25643569 38.7736699 5.54053495 38.9362242 5.92944354 38.9350319 6.3350366 38.9336541 6.73420307 38.7714264 7.11596264 38.48502 7.3940042 38.1986135 7.67204576 37.8122144 7.82288969 37.4131826 7.81243205 37.0140216 7.83000774 36.6249643 7.68399252 36.3359308 7.40813389 36.0468972 7.13227527 35.8829028 6.75044827 35.8818503 6.35090195 35.870902 5.94484841 36.0267327 5.55202794 36.3130596 5.26390261 36.5993866 4.97577728 36.9912237 4.8174902 37.3973379 4.82589601zM14.4017184 23.7003738C14.6588188 23.6775444 14.8859225 23.8670396 14.9095066 24.1240719 14.8650778 24.4239959 14.7254033 24.6033214 14.4254979 24.6080703 14.3046992 24.6165146 14.1862059 24.5719696 14.1008853 24.4860393 14.0155647 24.4001089 13.9718647 24.2813014 13.981169 24.1605659 13.9627587 24.040841 13.9995717 23.9192206 14.081287 23.8298025 14.1630023 23.7403843 14.2808237 23.6927939 14.4017184 23.7003738zM10.2117792 23.6856382L10.2837069 23.6860879C10.5550572 23.6781553 10.7185132 23.8368438 10.720101 24.1700884 10.7233538 24.2831362 10.6793215 24.3924205 10.5986032 24.4716351 10.517885 24.5508497 10.4077921 24.5928194 10.2948254 24.5874416 10.1684128 24.6003596 10.0428976 24.5557078 9.95304592 24.4658541 9.8631942 24.3760003 9.81854517 24.2504842 9.831466 24.1240719 9.82407961 24.003255 9.86987472 23.8852461 9.95682421 23.8010378 10.0437737 23.7168294 10.1631885 23.6748366 10.2837069 23.6860879zM12.4640916 22.4229284C12.7920028 22.4270301 13.0585206 22.6886468 13.0687071 23.0164253 13.0886935 23.181337 13.0358747 23.3467772 12.924026 23.4695989 12.8121774 23.5924207 12.6523879 23.6604471 12.4863308 23.6559368 12.3215122 23.6663237 12.1597775 23.6078248 12.0397391 23.494406 11.9197006 23.3809871 11.8521312 23.2228271 11.8531506 23.0576847 11.8565357 22.7176829 12.1244675 22.4393015 12.4640916 22.4229284zM18.3229183 22.2737602C18.5779867 22.2671279 18.7919224 22.4648753 18.8053393 22.7196769 18.7735714 23.0338785 18.6022137 23.2084324 18.3229183 23.2100202 18.2029495 23.2164028 18.0859946 23.1710816 18.0016525 23.0855265 17.9173104 22.9999714 17.8736639 22.8823813 17.8817588 22.7625158 17.8636189 22.6365814 17.9024386 22.5091038 17.9876903 22.4146544 18.072942 22.320205 18.19579 22.2685728 18.3229183 22.2737602zM6.38474404 22.2325008C6.50315616 22.2206493 6.62080887 22.2613246 6.70661692 22.3437798 6.79242497 22.4262351 6.83775478 22.5421741 6.83062968 22.6609643 6.81955862 22.9989743 6.66244956 23.1417872 6.37997865 23.1322667 6.25330939 23.1464 6.12729735 23.100636 6.03921782 23.0085119 5.95113828 22.9163878 5.91107396 22.7884494 5.93087617 22.6625418 5.92586583 22.5427719 5.97293901 22.4266954 6.05995654 22.3442461 6.14697406 22.2617967 6.26541797 22.2210454 6.38474404 22.2325008zM8.8079281 21.81197C9.13685291 21.8201271 9.40626674 22.0758359 9.43157004 22.4038875 9.44038786 22.6306153 9.32497009 22.8441359 9.13045149 22.960951 8.93593289 23.077766 8.69321923 23.0793156 8.497225 22.9649936 8.30123078 22.8506716 8.18309623 22.6386421 8.1890185 22.4118202 8.21205252 22.0832444 8.47879278 21.8247185 8.8079281 21.81197zM16.0996843 21.762778C16.4422239 21.7715392 16.7202284 22.0426261 16.7376162 22.3848363 16.7254285 22.7162259 16.4550672 22.9795947 16.123472 22.9830965 15.9629964 22.9912394 15.8064792 22.9316053 15.692107 22.8187436 15.5777349 22.7058819 15.5160254 22.5501714 15.5220341 22.3896016 15.5154534 22.2298628 15.5726291 22.0740575 15.6809718 21.9564919 15.7893145 21.8389263 15.9399406 21.7692404 16.0996843 21.762778zM13.9113545 20.8376098C14.1167639 20.8261314 14.3179822 20.8988476 14.4686 21.0389871 14.6192177 21.1791265 14.7062296 21.3745886 14.7095669 21.5802914 14.6925906 22.0059094 14.3482915 22.3453449 13.9224751 22.3562646 13.7239446 22.3529599 13.5348905 22.2707852 13.3970402 22.1278777 13.2591898 21.9849702 13.1838768 21.7930793 13.1877241 21.5945586 13.1708867 21.3949712 13.2405093 21.1977546 13.378918 21.0529731 13.5173267 20.9081916 13.7112116 20.8297678 13.9113545 20.8376098zM10.6947255 20.7804912C11.1233664 20.7922692 11.46179 21.1484304 11.4516743 21.5771138 11.4403799 21.9924399 11.0958148 22.3206916 10.6804293 22.3118441 10.4740256 22.3151998 10.2757057 22.2316945 10.133869 22.0817075 9.9920323 21.9317205 9.91972625 21.7290489 9.93459695 21.5231542 9.93682014 21.323842 10.0181767 21.1335871 10.1607489 20.9942908 10.3033211 20.8549945 10.4954155 20.7780816 10.6947255 20.7804912zM17.0010277 19.7299715C17.4116825 19.7503858 17.7412159 20.0765007 17.7659113 20.4869203 17.7711585 20.692452 17.6910442 20.8909775 17.5446143 21.0353003 17.3981844 21.1796231 17.1985186 21.2568518 16.9930847 21.2486263 16.7941277 21.2604142 16.5994819 21.187411 16.4573476 21.0476947 16.3152134 20.9079783 16.2388815 20.7146136 16.2472543 20.5154837 16.2373537 20.3097963 16.3125183 20.109096 16.4550969 19.9605138 16.5976756 19.8119316 16.7951069 19.7285579 17.0010277 19.7299715zM5.599207 19.9775258C5.93068455 19.977688 6.19960536 20.2458979 6.20064489 20.5773739 6.19630422 20.9195438 5.9222717 21.1970844 5.58018469 21.2057771 5.23992331 21.180325 4.9761808 20.897948 4.97398141 20.5567431 4.99514466 20.2281006 5.26990764 19.9735565 5.599207 19.9775258zM7.636783 19.6585588C7.84274157 19.6470656 8.04420127 19.7217538 8.19289308 19.8647286 8.34158488 20.0077033 8.42411053 20.2060814 8.42069717 20.4123321 8.40243948 20.8229991 8.07722859 21.1536885 7.66692386 21.1788035 7.46097757 21.1835484 7.26218803 21.1031632 7.11742628 20.9566012 6.97266453 20.8100392 6.8947422 20.6102714 6.902032 20.4043995 6.88678611 20.2042651 6.95888479 20.0073239 7.09974419 19.8643385 7.24060358 19.7213531 7.43644274 19.6463125 7.636783 19.6585588zM19.2972538 19.8807274C19.6390643 19.8865706 19.9161978 20.159516 19.9272448 20.5011979 19.9199215 20.8353411 19.6458116 21.1017756 19.3115952 21.0996087 18.9773789 21.0974417 18.7067468 20.8274753 18.7037569 20.4932652 18.7124353 20.1659149 18.9703406 19.8997353 19.2972538 19.8807274zM12.416477 18.858769C12.6959133 18.8651879 12.9610551 18.9836028 13.1523356 19.1874107 13.343616 19.3912186 13.4449958 19.6633296 13.4336989 19.9426113 13.437879 20.3239183 13.2350288 20.6775265 12.9037599 20.8664004 12.5724909 21.0552744 12.1648683 21.049729 11.83886 20.8519133 11.5128516 20.6540976 11.3196959 20.2951021 11.3342472 19.91405 11.3291724 19.627916 11.4424743 19.3523854 11.6473684 19.1525934 11.8522624 18.9528015 12.1305619 18.846482 12.416477 18.858769zM9.80604923 18.3033567C10.1111275 18.3029016 10.403539 18.4253071 10.6173154 18.6429596 10.8310918 18.8606121 10.9482237 19.1551757 10.942286 19.4601966 10.9538028 19.7722192 10.833005 20.0745937 10.6096664 20.2927922 10.3863278 20.5109908 10.0812231 20.6247167 9.76955315 20.6059393 9.13639435 20.5957374 8.62954874 20.0775546 8.63333224 19.444325 8.65505663 18.8110731 9.17244033 18.3076878 9.80604923 18.3033567zM21.520492 19.5776257C21.8029588 19.6093647 22.0282863 19.7585328 22.0267006 20.075912 22.0333513 20.2054674 21.9879832 20.3323133 21.9006773 20.4282638 21.8133714 20.5242144 21.6913596 20.5813218 21.5617534 20.5868964 21.2769381 20.6078699 21.0290194 20.3940476 21.0079302 20.1092408 21.001147 19.9695967 21.0523236 19.8333485 21.1493633 19.7327017 21.2464029 19.6320548 21.3806934 19.5759416 21.520492 19.5776257zM14.4474009 18.5391827C14.7841813 18.3476007 15.1979556 18.3518711 15.5307102 18.5503631 15.8634649 18.7488551 16.0638131 19.1109158 16.0552452 19.4982804 16.0330293 20.0747206 15.5640668 20.533234 14.9872724 20.5424573 14.7020828 20.5449408 14.4276049 20.4339457 14.2243056 20.233924 14.0210064 20.0339023 13.9055652 19.7612645 13.9034124 19.4760722 13.9028423 19.0886133 14.1106204 18.7307647 14.4474009 18.5391827zM3.24746862 19.5252643C3.37284691 19.5339726 3.48948442 19.5926374 3.57122642 19.6881036 3.65296842 19.7835698 3.69297494 19.9078491 3.68227495 20.0330731 3.67996367 20.1537084 3.62671936 20.2677341 3.53570933 20.3469515 3.4446993 20.4261689 3.32442106 20.4631816 3.20461939 20.4488365 3.08393991 20.4547171 2.96653309 20.4085609 2.88216731 20.3220708 2.79780153 20.2355808 2.75457867 20.1170627 2.76345784 19.9965667 2.76122123 19.8686655 2.81192696 19.7455232 2.90357577 19.6562807 2.99522459 19.5670383 3.11967218 19.5196262 3.24746862 19.5252643zM17.258121 16.9814755C17.5640167 16.9779525 17.8582997 17.0984616 18.0738656 17.3155236 18.2894315 17.5325857 18.4079023 17.8276951 18.4022636 18.1335591 18.4105926 18.443989 18.295198 18.7450011 18.0814901 18.970312 17.8677822 19.195623 17.5732857 19.3267565 17.2628492 19.3348587 16.9505332 19.3367468 16.6504102 19.2137409 16.429269 18.9931926 16.2081278 18.7726444 16.0843167 18.4728527 16.0853813 18.1605327 16.0919737 17.5145601 16.6121932 16.9915351 17.258121 16.9814755zM7.50451074 17.0321818C7.78818053 17.0330913 8.05864579 17.1521507 8.25089005 17.3607449 8.48264469 17.536472 8.62665192 17.8041918 8.64553697 18.094422 8.66442202 18.3846523 8.55632284 18.6687765 8.34929484 18.8730548 8.15017803 19.0952783 7.8694864 19.2272986 7.57133412 19.2389602 7.27318183 19.2506219 6.98303603 19.1409289 6.76717035 18.9349367 6.54777031 18.7317464 6.42213426 18.4468922 6.42002859 18.1478634 6.41792292 17.8488346 6.53953499 17.5622394 6.75605181 17.3559795 6.9496221 17.1486153 7.22084095 17.0312827 7.50451074 17.0321818zM19.5067326 17.6701894C19.9186116 17.6802852 20.2515645 18.0090562 20.2668652 18.4207747 20.2696775 18.6263156 20.1893764 18.824284 20.0441722 18.9697855 19.898968 19.1152871 19.7011644 19.1959931 19.4956182 19.1936013 19.2967942 19.1994071 19.1044168 19.1227529 18.9640693 18.9818016 18.8237218 18.8408504 18.747894 18.6481457 18.7545532 18.4493485 18.7428704 18.2440565 18.8174321 18.0432097 18.9602465 17.8952728 19.1030609 17.7473358 19.3011565 17.6657454 19.5067326 17.6701894zM5.1850438 17.5146615C5.39121229 17.513811 5.5887153 17.5975251 5.73146991 17.7462775 5.87422451 17.89503 5.94974377 18.0958094 5.94040695 18.3017681 5.94342335 18.5003183 5.86478085 18.6913976 5.7228777 18.8303032 5.58097454 18.9692089 5.3882601 19.0437546 5.18981951 19.0365005 4.99079292 19.0438891 4.79717668 18.9708152 4.65266233 18.8337686 4.50814798 18.696722 4.42491355 18.5072514 4.42173137 18.308113 4.41956917 17.880664 4.75783106 17.5290441 5.1850438 17.5146615zM3.20619684 17.1401641C3.36629339 17.1353137 3.52116003 17.1974476 3.63350921 17.3116058 3.74585839 17.425764 3.80551086 17.5816033 3.79810396 17.741602 3.80552794 17.9012609 3.74734197 18.0570119 3.63705451 18.1726958 3.52676706 18.2883797 3.37397113 18.3539341 3.21413983 18.3541399 2.98890768 18.3687833 2.77409688 18.257459 2.65619899 18.0649907 2.5383011 17.8725224 2.5367181 17.6305839 2.65208738 17.4365893 2.76745666 17.2425948 2.98079235 17.1284692 3.20619684 17.1401641zM21.682354 17.0148023C22.0247689 17.0354515 22.2918545 17.319228 22.291735 17.6622649 22.2740943 17.994904 21.9930044 18.2519637 21.6601169 18.2398862 21.4997131 18.2371069 21.3471559 18.1699798 21.2367399 18.053595 21.1263239 17.9372102 21.0673139 17.7813335 21.0729752 17.6210055 21.0921405 17.2932628 21.3545156 17.032255 21.682354 17.0148023zM18.4073543 15.2408157C18.7305142 15.0472213 19.1325135 15.0411576 19.4613653 15.2249172 19.7902172 15.4086768 19.9957418 15.7542196 20.0002349 16.1309038 20.0139125 16.416037 19.9076251 16.69388 19.7071363 16.8970849 19.5066475 17.1002899 19.2302598 17.2103062 18.9449684 17.2004665 18.6653007 17.2121567 18.3933791 17.1069529 18.1944024 16.9100799 17.9954258 16.7132069 17.8873379 16.4424189 17.896055 16.1626427 17.8891851 15.7859944 18.0841943 15.4344101 18.4073543 15.2408157zM5.8609705 15.0551806C6.45368958 15.0643542 6.92753368 15.5508468 6.92109354 16.1436018 6.91281403 16.4283384 6.79015961 16.6977297 6.58083372 16.8909295 6.37150784 17.0841292 6.09316799 17.1848402 5.80868162 17.1703153 5.23020349 17.161051 4.76645517 16.6888241 4.76766962 16.110273 4.77957887 15.5176026 5.26825142 15.046007 5.8609705 15.0551806zM23.5866231 16.0166522C23.8427316 16.0091544 24.0568652 16.2097986 24.0660238 16.4658531 24.0751825 16.7219076 23.8759313 16.9373379 23.6199416 16.9481571 23.4935773 16.9589813 23.3690403 16.912431 23.2807576 16.8213746 23.1924749 16.7303183 23.1497983 16.6044012 23.1645252 16.4784321 23.1514238 16.359365 23.1902426 16.240424 23.2710598 16.152009 23.351877 16.0635941 23.466861 16.0142732 23.5866231 16.0166522zM1.1495531 15.9388864C1.27605538 15.9182517 1.40487405 15.9585555 1.49705741 16.0476108 1.58924078 16.136666 1.63396586 16.2640172 1.61770886 16.3911562 1.62838783 16.512097 1.58507626 16.6315753 1.49937873 16.717579 1.4136812 16.8035828 1.29435813 16.8473203 1.17338003 16.8370728 1.04746587 16.8503105.922180421 16.8069091.831438011 16.7186174.740695602 16.6303257.693881257 16.5062752.70366746 16.3800459.696091867 16.2600423.740802101 16.1426292.82627815 16.0580592.911754199 15.9734891 1.02963706 15.9300325 1.1495531 15.9388864zM21.1348839 14.8661564C21.341282 14.8578961 21.5415328 14.9373847 21.6860767 15.0849499 21.8306206 15.2325151 21.9059502 15.434367 21.8934226 15.6405502 21.9031733 15.8398232 21.8294963 16.0341555 21.6900854 16.1768771 21.5506746 16.3195987 21.3581248 16.3978157 21.1586778 16.392744 20.7333184 16.3924572 20.3873517 16.0500189 20.3827046 15.6246848 20.3975593 15.2145079 20.7248463 14.8844583 21.1348839 14.8661564zM2.89752139 14.9533015C3.11314032 14.6514364 3.49545543 14.518019 3.85207174 14.6201899 4.24167652 14.7753725 4.48393237 15.1671308 4.44870502 15.5850214 4.45192397 15.7864161 4.31790702 15.9642529 4.12342411 16.0166605 3.81077311 16.4625771 3.21413983 16.437181 2.89199523 15.9642908 2.67968912 15.6600866 2.68190245 15.2551667 2.89752139 14.9533015zM1.89542264 13.6299622C2.23601204 13.644336 2.50932333 13.9162732 2.52541362 14.2567859 2.51751321 14.5859741 2.25161345 14.8504691 1.92238795 14.8566257 1.75646807 14.8673041 1.59392521 14.8063757 1.47590671 14.6892644 1.35788821 14.572153 1.29570745 14.4100851 1.30510536 14.2440878 1.30832742 13.9154064 1.56712533 13.6461708 1.89542264 13.6299622zM22.9312567 13.5236433C23.0972731 13.520142 23.2571922 13.5862128 23.372325 13.7058712 23.4874579 13.8255297 23.547317 13.987876 23.5374207 14.1536343 23.5220318 14.4800729 23.2608759 14.7412475 22.9344384 14.7566599 22.7695585 14.752112 22.6133542 14.6817758 22.5006585 14.561336 22.3879628 14.4408962 22.3281475 14.2803687 22.3345511 14.1155504 22.3307641 13.9565964 22.3925758 13.8030925 22.5054581 13.6911179 22.6183404 13.5791433 22.7723384 13.518573 22.9312567 13.5236433zM19.8621956 12.5984833C20.4545671 12.6120706 20.9250503 13.1009859 20.9158744 13.6934421 20.9150144 14.0747437 20.709603 14.4262567 20.377827 14.614183 20.046051 14.8021092 19.6389462 14.7975409 19.3114709 14.6022167 18.9839956 14.4068926 18.786524 14.0508586 18.7942207 13.6696338 18.7890673 13.3845514 18.8998255 13.1095819 19.1011426 12.9076661 19.3024597 12.7057504 19.5770992 12.5941763 19.8621956 12.5984833zM4.95654274 12.5810302C5.33544757 12.5821791 5.68483685 12.7857774 5.87264283 13.1148657 6.06044881 13.443954 6.05802123 13.8483291 5.86627771 14.1751389 5.6745342 14.5019486 5.32272567 14.7013374 4.94383435 14.6979371 4.66523507 14.6983541 4.3979494 14.587758 4.20109703 14.3906112 4.00424467 14.1934643 3.8940483 13.9260136 3.89488175 13.6474153 3.88251762 13.3618102 3.99023213 13.0840622 4.19192535 12.8814715 4.39361856 12.6788808 4.67088556 12.5699342 4.95654274 12.5810302zM21.734734 11.6717439C21.9407111 11.6656923 22.1403168 11.7435379 22.2878115 11.8874423 22.4353061 12.0313468 22.5180458 12.228974 22.5170793 12.4350376 22.5071028 12.8630752 22.1533008 13.2026963 21.7252136 13.1951559 21.3115064 13.1822078 20.9849132 12.8393654 20.9920524 12.4255172 20.988093 12.2263425 21.064705 12.0340035 21.2045226 11.8920977 21.3443403 11.7501919 21.5355226 11.6707373 21.734734 11.6717439zM3.05068381 11.3559462C3.53607402 11.3908656 3.92452866 11.7726011 3.96791539 12.2573082 3.96946169 12.70639 3.55212707 13.0920043 3.07288373 13.1523066 2.6698081 13.2030885 2.15883407 12.6714838 2.15089107 12.2414325 2.1413603 11.8431223 2.6348998 11.3591218 3.05068381 11.3559462zM24.335631 11.9177105C24.4623882 11.9068265 24.5875342 11.9521304 24.6779506 12.041633 24.7683669 12.1311356 24.8149396 12.2558151 24.8053436 12.3826762 24.8205345 12.5028611 24.7817177 12.6236025 24.6993356 12.7124188 24.6169535 12.8012352 24.4994663 12.8490055 24.3784803 12.8428787 24.2527345 12.853149 24.1281559 12.8123088 24.0328954 12.7295868 23.937635 12.6468648 23.8797323 12.5292424 23.8722716 12.4032987 23.9055901 12.1224156 24.0373134 11.9288207 24.335631 11.9177105zM.47675211 11.8304345C.598330173 11.8194123.71822245 11.8649173.801869459 11.9538324.885516468 12.0427475.92362322 12.1651923.905205274 12.2858716.918043971 12.4064913.877142854 12.5266481.793380049 12.6143849.709617243 12.7021217.591483901 12.7485445.470398951 12.7413066.34130096 12.7571643.212153836 12.7122093.120806556 12.6196165.0294592764 12.5270236-.013742641 12.3972795.00386193314 12.2684081-.013620094 11.9510289.213303515 11.8367774.47675211 11.8304345zM4.9628959 9.8309465C5.63414628 9.78968504 6.17208562 10.5704422 6.17844084 11.0100036 6.184794 11.6050884 5.56111076 12.1573321 4.91051589 12.1541702 4.25193259 12.1525626 3.80286935 11.663803 3.8092225 10.9560544 3.81394866 10.3070122 4.29954722 9.87379987 4.9628959 9.8309465zM19.8447219 9.96424928C20.1310639 9.96065049 20.4069085 10.0719367 20.6105895 10.2732295 20.8142704 10.4745223 20.9288022 10.7490352 20.928581 11.0353997 20.9279673 11.6164589 20.4575493 12.0875961 19.8764918 12.0890971 19.5906411 12.1007177 19.3127154 11.9935831 19.108626 11.7931006 18.9045367 11.5926182 18.7924639 11.3166468 18.7989861 11.0306344 18.8011859 10.4506024 19.2648438 9.97778898 19.8447219 9.96424928zM1.86683239 9.90712247C2.20822243 9.92532139 2.48354326 10.193177 2.51111746 10.5339379 2.49291936 10.8782386 2.20843604 11.1480635 1.86365478 11.1480635 1.53124469 11.1359809 1.26778592 10.8633993 1.2670215 10.5307706 1.28382249 10.2025542 1.53951948 9.93669546 1.86683239 9.90712247zM22.5782006 9.85433476C22.7755801 9.73287914 23.0232085 9.72765694 23.2255329 9.84068326 23.4278574 9.95370958 23.5532421 10.1673115 23.5533047 10.3990659 23.5567065 10.7532958 23.2802634 11.0472388 22.9264913 11.0655592 22.7551388 11.0674335 22.5900796 11.0010642 22.4677215 10.8810906 22.3453634 10.7611169 22.275759 10.5973957 22.2742612 10.4260395 22.2645531 10.1944885 22.3808211 9.97579038 22.5782006 9.85433476zM21.2062883 8.46145772C21.411455 8.45633937 21.6100391 8.53405654 21.7572322 8.67707315 21.9044253 8.82008976 21.9878249 9.01635521 21.9886126 9.22158419 21.9713453 9.63240828 21.6453668 9.96319157 21.2348393 9.98646779 21.0296262 9.99016054 20.8318631 9.90960393 20.6876389 9.7635717 20.5434146 9.61753947 20.4653277 9.41878826 20.4715765 9.21363707 20.4631756 9.01473736 20.5372908 8.82119831 20.6763962 8.6787857 20.8155016 8.53637308 21.0072461 8.4577317 21.2062883 8.46145772zM3.68733824 8.22716458C3.90073422 8.2343807 4.10164612 8.32952297 4.24244725 8.49003765 4.54292725 8.8296885 4.51829325 9.34684863 4.18688963 9.65640084 4.03643614 9.80583424 3.82667211 9.879543 3.61581293 9.85707088 3.40495374 9.83459877 3.21543566 9.71833689 3.09985524 9.54055118L3.09985524 9.54055118C2.93914713 9.40340116 2.84825956 9.20251602 2.85143687 8.99207319 2.85461419 8.78163036 2.95152497 8.58358065 3.11573917 8.45193728 3.26706206 8.30130096 3.47394225 8.21994845 3.68733824 8.22716458zM18.5743123 7.576488C18.971909 7.41078407 19.4302635 7.50252788 19.73345 7.80849988 20.0366365 8.11447188 20.1241846 8.5736463 19.9548515 8.96971092 19.7855183 9.36577555 19.3930772 9.61973572 18.9624029 9.6119535 18.6834802 9.61725745 18.4145482 9.5081304 18.2181885 9.30996661 18.0218288 9.11180283 17.9151658 8.84188412 17.9230203 8.56302155 17.9191771 8.13229411 18.1767156 7.74219192 18.5743123 7.576488zM5.89596787 7.47282813C6.2735334 7.47694463 6.61985997 7.68332658 6.803159 8.0134389 6.98645803 8.34355122 6.97854252 8.74663056 6.78242459 9.06929204 6.58630665 9.39195353 6.23214452 9.58457956 5.85470847 9.57386965 5.47057047 9.57945725 5.1139719 9.37507068 4.92463119 9.04079039 4.73529048 8.7065101 4.74336034 8.29557057 4.94567894 7.96898152 5.14799753 7.64239248 5.51234541 7.45216356 5.89596787 7.47282813zM23.6278846 7.78386244C23.7664376 7.76557054 23.9061534 7.80787119 24.0112923 7.89994377 24.1164312 7.99201634 24.176795 8.12493008 24.1769425 8.2646853 24.1828465 8.40878181 24.1301725 8.54913216 24.0309201 8.65376309 23.9316677 8.75839402 23.7942898 8.8183947 23.6500824 8.82009634 23.5112626 8.82560827 23.37664 8.77187076 23.2797742 8.67227987 23.1829085 8.57268898 23.1329257 8.4366276 23.142286 8.29801409 23.1232658 7.95682859 23.2835401 7.79655018 23.6278846 7.78386244zM1.17338003 7.71720693C1.30080412 7.70521782 1.42734869 7.74772732 1.52169237 7.83421378 1.61603605 7.92070024 1.66936155 8.0430807 1.66847013 8.17106447 1.68276628 8.45986995 1.47646308 8.60745856 1.20987611 8.67410582.945545704 8.66379002.735599171 8.44826224.732220543 8.1837522.726663178 8.06279083.770517682 7.94476723.853713367 7.85678419.936909051 7.76880115 1.05229712 7.71841882 1.17338003 7.71720693zM2.77703896 6.42154148C2.98796905 6.29026261 3.2543016 6.28677957 3.46859264 6.41249749 3.68288369 6.5382154 3.80978575 6.77239701 3.79810396 7.02056869 3.80680799 7.20468396 3.73891614 7.38419008 3.6105494 7.51646319 3.48218266 7.64873629 3.30479178 7.72197716 3.12049836 7.7187947 2.75126935 7.71181682 2.45737236 7.40726521 2.46354207 7.03802181 2.44537431 6.7902405 2.56610886 6.55282035 2.77703896 6.42154148zM7.44643326 5.29640192L7.54631913 5.30038222C8.07476693 5.36227442 8.79522178 5.75264373 8.72381945 6.51593749 8.81900947 7.14275292 8.07794248 7.73466831 7.52570905 7.70769267 6.89865866 7.66413606 6.40033888 7.16378828 6.35932934 6.53656616 6.33553958 5.93355081 6.98455493 5.23373703 7.54631913 5.30038222zM17.2819087 5.44636654C17.5743876 5.43944091 17.8570104 5.55225155 18.0643298 5.75867474 18.2716491 5.96509792 18.385683 6.24722939 18.3800245 6.53973551 18.3720748 7.14846174 17.8763907 7.63778021 17.2676126 7.63786161 16.9751856 7.63005369 16.6978871 7.50619328 16.4969228 7.29361894 16.2959584 7.0810446 16.187851 6.79723373 16.1964621 6.50482927 16.1974083 6.21969417 16.3129484 5.94691122 16.517092 5.74784259 16.7212356 5.54877396 16.9968401 5.44013595 17.2819087 5.44636654zM21.6093639 6.31439553C21.8273197 6.31359675 22.0290635 6.42941391 22.1382738 6.61803642 22.2474841 6.80665892 22.2474841 7.03928347 22.1382738 7.22790598 22.0290635 7.41652848 21.8273197 7.53234564 21.6093639 7.53154272 21.2807313 7.53386287 21.010603 7.27290743 21.0015729 6.94439065 20.9974529 6.77991573 21.0594461 6.62065513 21.173679 6.50224981 21.2879119 6.38384449 21.4448471 6.31618025 21.6093639 6.31439553zM19.6082758 5.63045124C19.8075832 5.61317004 20.0047856 5.68181702 20.1502799 5.81912513 20.2957742 5.95643325 20.3757134 6.14933461 20.36999 6.34930798 20.383696 6.55431856 20.3135433 6.75610352 20.1756164 6.90839725 20.0376896 7.06069098 19.8438198 7.15042999 19.6384579 7.15703875 19.2125958 7.14583206 18.8697659 6.80370745 18.8576821 6.37786933 18.8610036 5.96522771 19.1956238 5.6320232 19.6082758 5.63045124zM5.04537753 5.48128311C5.45150109 5.35039809 5.89031334 5.5515433 6.05624628 5.94465078 6.20968284 6.33630138 6.03174059 6.7797151 5.6501299 6.95665085 5.26851922 7.1335866 4.81511851 6.98289828 4.6153366 6.61273593 4.5915489 6.57465208 4.60266744 6.51434972 4.59790206 6.46515558L4.59790206 6.46515558C4.48837872 5.9906673 4.66295122 5.60823273 5.04537753 5.48128311zM9.72348012 4.0629582L9.823523 4.07212683C10.5328634 3.98960803 11.0406557 4.68307485 11.0073372 5.21151233 11.0035093 5.63366704 10.7726965 6.02106586 10.4032654 6.22539375 10.0338343 6.42972164 9.58300795 6.4193291 9.22338465 6.19819489 8.86376135 5.97706069 8.65104513 5.57943754 8.66667406 5.15755487 8.69363937 4.49899635 9.29348743 3.98642422 9.823523 4.07212683zM15.0539093 4.09909627C15.3457897 4.102678 15.6236142 4.22501684 15.8233269 4.43790601 16.0230395 4.65079518 16.1274025 4.93585942 16.1123535 5.22737354 16.109932 5.83470489 15.6168064 6.32570814 15.0094702 6.32551002 14.3906072 6.30345133 13.8974529 5.80053357 13.8875296 5.18135702 13.9159839 4.56282274 14.4349779 4.08125841 15.0539093 4.09909627zM12.0285697 3.74293397C12.4315921 3.58119323 12.8923609 3.67816105 13.1960099 3.9886193 13.499659 4.29907756 13.5863863 4.76188314 13.4157491 5.16122012 13.2451118 5.5605571 12.8507162 5.81777817 12.416477 5.81293577 12.1316167 5.81023254 11.8595498 5.69424521 11.6603599 5.49058849 11.4611699 5.28693178 11.3512436 5.01236002 11.3548573 4.7275098 11.3596445 4.29327004 11.6255474 3.90467471 12.0285697 3.74293397zM21.5347916 4.21342543L21.6109558 4.21810702C21.7328424 4.20814596 21.8525963 4.25444559 21.9360819 4.34380833 22.0195676 4.43317106 22.0576261 4.55579324 22.039409 4.67672169 22.0187989 4.96553543 21.875955 5.14326697 21.5712842 5.13215875 21.451233 5.13706222 21.3350099 5.08938047 21.2529929 5.00157638 21.170976 4.91377228 21.1313169 4.79457283 21.1443817 4.67513392 21.1271388 4.54767351 21.1711128 4.41955745 21.2629971 4.32955332 21.3548814 4.23954919 21.4838791 4.19823304 21.6109558 4.21810702zM3.26806839 4.12924745C3.3869911 4.11259725 3.5073482 4.14770246 3.59867143 4.22567623 3.68999465 4.30364999 3.7435296 4.41701762 3.74572395 4.53708021 3.74731172 4.89571882 3.55848229 5.04012156 3.27601138 5.04012156 3.1552131 5.05217551 3.03558447 5.00799213 2.9516217 4.92031216 2.86765893 4.8326322 2.82869603 4.71120291 2.84596838 4.59103973 2.8313172 4.47164216 2.86959955 4.35180701 2.95075812 4.26301668 3.03191669 4.17422634 3.14783818 4.12535705 3.26806839 4.12924745zM17.161304 3.48814825C17.5879048 3.50591258 17.9267332 3.85309848 17.9340996 4.28000542 17.9301746 4.47944661 17.846601 4.66902325 17.7020174 4.8064561 17.5574339 4.94388896 17.3638654 5.01774763 17.1644816 5.01156022 16.964763 5.02456254 16.7688677 4.95245193 16.6252454 4.81306315 16.4816232 4.67367438 16.4036855 4.48002356 16.4107083 4.28000542 16.4012408 4.07437985 16.4759118 3.87376422 16.6175208 3.72437077 16.7591298 3.57497731 16.9554664 3.48968758 17.161304 3.48814825zM7.56304707 3.42855383C7.75673217 3.35198038 7.97341338 3.35861204 8.16205319 3.44688679 8.53038276 3.62398219 8.70410436 4.05175681 8.56354104 4.43551638 8.36990699 4.87508809 7.9271969 5.0829708 7.54159298 4.91476178 7.09407827 4.71957713 6.94650824 4.33078733 7.13692751 3.85313177L7.13692751 3.85313177C7.21579491 3.65813669 7.36936198 3.50512728 7.56304707 3.42855383zM5.49765763 3.56590373C5.66425872 3.55428197 5.82761118 3.61609385 5.94478517 3.73509489 6.06195916 3.85409593 6.12123639 4.01838513 6.10703852 4.18478649 6.09303526 4.51151291 5.83224877 4.77367634 5.50560062 4.78939993 5.33993198 4.78813968 5.18186805 4.71969768 5.06759457 4.59974244 4.95332109 4.4797872 4.89262349 4.3185907 4.89939734 4.1530558 4.89183731 3.99317052 4.95283124 3.8376511 5.06706911 3.72553435 5.18130697 3.6134176 5.3379421 3.55534879 5.49765763 3.56590373zM18.9176793 3.53562326C19.1112503 3.42481478 19.3498068 3.42822423 19.540132 3.54451935 19.7304573 3.66081447 19.8423398 3.87153502 19.832061 4.09434121 19.8307975 4.31388273 19.7118517 4.5158709 19.520476 4.62346014 19.3291004 4.73104938 19.0947159 4.72769956 18.9064931 4.6146851 18.7182704 4.50167064 18.6051456 4.29636573 18.6101567 4.07687776 18.6062495 3.85386883 18.7241083 3.64643173 18.9176793 3.53562326zM14.1303268 2.35986288C14.4040251 2.35925399 14.6569236 2.50581797 14.7924655 2.74359836 14.9280073 2.98137875 14.9252663 3.27366486 14.7852888 3.50886142 14.6453114 3.74405798 14.3897086 3.88585321 14.1160699 3.88010947 13.6990506 3.87233303 13.3661769 3.52999785 13.3700882 3.11292442 13.3739995 2.69585099 13.7132351 2.35981889 14.1303268 2.35986288zM10.8740634 2.30750129C11.2998816 2.32659875 11.639293 2.67016196 11.6532122 3.09618084 11.6427964 3.51074756 11.3014063 3.84011911 10.8867325 3.83567658 10.6866842 3.85048949 10.4898182 3.77925214 10.3455722 3.63985392 10.2013262 3.5004557 10.1234032 3.30613899 10.1313714 3.10570129 10.1185571 2.89995397 10.1908222 2.69797581 10.3312473 2.54705546 10.4716724 2.39613511 10.6679273 2.3095244 10.8740634 2.30750129zM8.61938646 1.68689904L8.71428868 1.68702044C8.88031044 1.68408051 9.03987471 1.75128777 9.15376302 1.87212369 9.26765133 1.9929596 9.3253033 2.15621958 9.31254897 2.3217768 9.28377233 2.64666254 9.01800369 2.89952502 8.69208876 2.91210647 8.52655031 2.90679487 8.37033481 2.83421367 8.25951838 2.71112465 8.14870194 2.58803563 8.09286693 2.42508236 8.10490779 2.25989699 8.10105625 2.10032198 8.16531556 1.94665211 8.28161461 1.83731983 8.39791367 1.72798755 8.55525528 1.67333129 8.71428868 1.68702044zM15.7248956 1.68923176C15.920001 1.58824149 16.1546306 1.60156882 16.3370451 1.72400281 16.5194596 1.84643679 16.6206817 2.05852822 16.6011338 2.27735011 16.598854 2.43598121 16.5317699 2.58677239 16.4154721 2.69467899 16.2991742 2.8025856 16.1437905 2.85821062 15.9854328 2.8486265 15.8193977 2.85222449 15.6598749 2.78405233 15.5477203 2.66156995 15.4355658 2.53908756 15.3816734 2.37419183 15.3998458 2.20911508 15.4052025 1.98948711 15.5297902 1.79022202 15.7248956 1.68923176zM6.46249952 1.33791259C6.61370226 1.3416012 6.75675238 1.40723515 6.85816161 1.51944942 6.95957083 1.63166369 7.01043583 1.78060631 6.99884902 1.93140955 6.99726125 2.29321546 6.81796052 2.50427372 6.50693653 2.50745133 6.24190017 2.51061862 5.87218017 2.15040049 5.88644123 1.9044236 5.89914548 1.67908776 6.25143094 1.33155943 6.46249952 1.33791259zM18.4054413 1.53309725C18.7228184 1.5442096 18.8830576 1.70289817 18.8719762 1.97742608 18.8847424 2.10483359 18.8387078 2.23110802 18.7469394 2.3204064 18.6551709 2.40970478 18.5276877 2.45227766 18.4006759 2.43604075 18.1551233 2.42949289 17.9598393 2.22787208 17.9611293 1.98223566 17.9624321 1.73659925 18.1598332 1.53705088 18.4054413 1.53309725zM12.208617.945945185C12.4563022.876735414 12.7208142.969984953 12.8703366 1.17922402 13.0718765 1.45692954 13.1750467 1.76002086 12.8370181 2.03138354 12.5688434 2.25671938 12.2879603 2.3582832 11.9721709 2.11866154 11.6595715 2.01234265 11.6214835 1.76161069 11.6627037 1.49342562 11.708708 1.2128826 11.928207.992753527 12.208617.945945185zM14.5207354.000156571495C14.8202869.0148859952 15.0598157.254435319 15.0745194.553988101 15.0392933.833437334 14.8204695 1.05422118 14.5413455 1.09193777 14.3970019 1.08766346 14.2603402 1.02593094 14.161713.920451074 14.0630858.814971206 14.0106585.674476676 14.0160753.530171497 14.0057436.391128279 14.0546987.254201088 14.1508434.153226005 14.246988.0522509211 14.381353-.00335225748 14.5207354.000156571495zM9.99511404.301038632C10.0872813-.0853519526 10.3822665.00813673389 10.6201455.0715671528 10.8470609.131869513 10.9517817.515895988 10.8438833.747584982 10.7157803.990520541 10.41811 1.0881074 10.1710431.968165756 9.89814216.812663052 9.77122145.59687657 9.9948415.301775739L9.9948415.301775739z" transform="translate(38.23 60.212)"/>
      </g>
      <g fill="#EDF1F5" fill-opacity=".297" mask="url(#banner-image@3x-d)">
        <g transform="translate(40.32 109.467)">
          <rect width="322.082" height="13.488"/>
          <polygon points="0 31.688 247.755 31.688 247.755 54.734 0 54.734"/>
        </g>
      </g>
      <rect width="652.76" height="143" x="-2.38" y="265.526" fill="#FFF" stroke="#EDF1F5" mask="url(#banner-image@3x-d)"/>
      <g fill="#EDF1F5" mask="url(#banner-image@3x-d)">
        <g transform="translate(174.24 302.475)">
          <rect width="299.52" height="14.404"/>
          <rect width="230.4" height="14.404" x="34.56" y="20.165"/>
        </g>
      </g>
      <g fill="#EDF1F5" mask="url(#banner-image@3x-d)">
        <g transform="translate(233.28 360.09)">
          <rect width="181.44" height="5.761"/>
          <rect width="143.242" height="5.761" x="19.099" y="8.642"/>
          <rect width="181.44" height="5.761" y="17.284"/>
        </g>
      </g>
      <g mask="url(#banner-image@3x-d)">
        <g transform="translate(417.6 109.467)">
          <mask id="banner-image@3x-f" fill="#fff">
            <use xlink:href="#banner-image@3x-e"/>
          </mask>
          <rect width="177.56" height="134.394" x=".5" y=".5" stroke="#EDF1F5" rx="2"/>
          <rect width="106.56" height="11.523" x="60.48" y="37.449" fill="#EDF1F5" mask="url(#banner-image@3x-f)" opacity=".227"/>
          <rect width="106.56" height="11.523" x="60.48" y="66.257" fill="#EDF1F5" mask="url(#banner-image@3x-f)" opacity=".227"/>
          <rect width="106.56" height="11.523" x="60.48" y="80.66" fill="#EDF1F5" mask="url(#banner-image@3x-f)" opacity=".227"/>
          <rect width="106.56" height="11.523" x="60.48" y="95.064" fill="#EDF1F5" mask="url(#banner-image@3x-f)" opacity=".227"/>
          <rect width="36.44" height="10.523" x="60.98" y="115.729" fill="#743B95" stroke="#F9F9F9" stroke-opacity=".235" mask="url(#banner-image@3x-f)" rx="5.261"/>
          <rect width="62.36" height="10.523" x="104.18" y="115.729" stroke="#EDF1F5" mask="url(#banner-image@3x-f)" opacity=".323" rx="5.261"/>
          <rect width="106.56" height="11.523" x="60.48" y="51.853" fill="#EDF1F5" mask="url(#banner-image@3x-f)" opacity=".227"/>
          <rect width="50.84" height="117.109" x=".5" y="26.426" stroke="#EDF1F5" mask="url(#banner-image@3x-f)" opacity=".154"/>
          <line x1="1.44" x2="50.4" y1="38.89" y2="38.89" stroke="#EDF1F5" stroke-linecap="square" mask="url(#banner-image@3x-f)" opacity=".269"/>
          <line x1="7.2" x2="33.12" y1="33.128" y2="33.128" stroke="#EDF1F5" stroke-linecap="square" mask="url(#banner-image@3x-f)" opacity=".269"/>
          <line x1="7.2" x2="24.48" y1="44.651" y2="44.651" stroke="#EDF1F5" stroke-linecap="square" mask="url(#banner-image@3x-f)" opacity=".269"/>
          <line x1="7.2" x2="38.88" y1="56.174" y2="56.174" stroke="#EDF1F5" stroke-linecap="square" mask="url(#banner-image@3x-f)" opacity=".269"/>
          <line x1="7.2" x2="30.24" y1="67.697" y2="67.697" stroke="#EDF1F5" stroke-linecap="square" mask="url(#banner-image@3x-f)" opacity=".269"/>
          <line x1="7.2" x2="44.64" y1="79.22" y2="79.22" stroke="#EDF1F5" stroke-linecap="square" mask="url(#banner-image@3x-f)" opacity=".269"/>
          <line x1="7.2" x2="38.88" y1="90.743" y2="90.743" stroke="#EDF1F5" stroke-linecap="square" mask="url(#banner-image@3x-f)" opacity=".269"/>
          <line x1="7.2" x2="38.88" y1="102.265" y2="102.265" stroke="#EDF1F5" stroke-linecap="square" mask="url(#banner-image@3x-f)" opacity=".269"/>
          <line x1="1.44" x2="50.4" y1="73.458" y2="73.458" stroke="#EDF1F5" stroke-linecap="square" mask="url(#banner-image@3x-f)" opacity=".269"/>
          <line x1="1.44" x2="50.4" y1="84.981" y2="84.981" stroke="#EDF1F5" stroke-linecap="square" mask="url(#banner-image@3x-f)" opacity=".269"/>
          <line x1="1.44" x2="50.4" y1="96.504" y2="96.504" stroke="#EDF1F5" stroke-linecap="square" mask="url(#banner-image@3x-f)" opacity=".269"/>
          <line x1="1.44" x2="50.4" y1="108.027" y2="108.027" stroke="#EDF1F5" stroke-linecap="square" mask="url(#banner-image@3x-f)" opacity=".269"/>
          <line x1="1.44" x2="50.4" y1="61.935" y2="61.935" stroke="#EDF1F5" stroke-linecap="square" mask="url(#banner-image@3x-f)" opacity=".269"/>
          <line x1="1.44" x2="50.4" y1="50.413" y2="50.413" stroke="#EDF1F5" stroke-linecap="square" mask="url(#banner-image@3x-f)" opacity=".269"/>
          <line x1="1.44" x2="220.396" y1="27.367" y2="27.367" stroke="#EDF1F5" stroke-linecap="square" mask="url(#banner-image@3x-f)" opacity=".269"/>
          <rect width="117.08" height="10.523" x="49.46" y="9.142" fill="#FFF" stroke="#EDF1F5" mask="url(#banner-image@3x-f)" opacity=".269" rx="2"/>
          <mask id="banner-image@3x-h" fill="#fff">
            <use xlink:href="#banner-image@3x-g"/>
          </mask>
          <rect width="177.56" height="134.394" x=".5" y=".5" stroke="#EDF1F5" rx="2"/>
          <rect width="40.32" height="17.284" x="5.76" y="112.348" fill="#EDF1F5" mask="url(#banner-image@3x-h)" opacity=".269"/>
          <ellipse cx="11.52" cy="14.404" fill="#EDF1F5" opacity=".529" rx="2.88" ry="2.881"/>
          <ellipse cx="23.04" cy="14.404" fill="#EDF1F5" opacity=".529" rx="2.88" ry="2.881"/>
          <ellipse cx="34.56" cy="14.404" fill="#EDF1F5" opacity=".529" rx="2.88" ry="2.881"/>
        </g>
      </g>
      <g mask="url(#banner-image@3x-d)">
        <g transform="translate(469.44 60.495)">
          <rect width="37.44" height="14.404" fill="#EDF1F5" opacity=".233"/>
          <rect width="37.44" height="14.404" x="48.96" fill="#EDF1F5" opacity=".233"/>
          <g transform="translate(100.8)">
            <rect width="14.4" height="2.881" x="5.76" y="5.761" fill="#743B95"/>
            <rect width="8.64" height="2.881" x="23.04" y="5.761" fill="#743B95"/>
            <rect width="36.44" height="13.404" x=".5" y=".5" stroke="#743B95"/>
          </g>
        </g>
      </g>
      <g mask="url(#banner-image@3x-d)">
        <g transform="translate(40.32 201.65)">
          <rect width="132.48" height="34.569" fill="#743B95" rx="17.284"/>
          <rect width="63.36" height="5.761" x="14.4" y="14.404" fill="#FFF"/>
          <rect width="25.92" height="5.761" x="86.4" y="14.404" fill="#FFF"/>
        </g>
      </g>
    </g>
    <g transform="translate(11.52 11.523)">
      <ellipse cx="33.12" cy="5.761" fill="#00B68A" rx="4.32" ry="4.321"/>
      <ellipse cx="18.72" cy="5.761" fill="#FFC600" rx="4.32" ry="4.321"/>
      <ellipse cx="4.32" cy="5.761" fill="#E75545" rx="4.32" ry="4.321"/>
      <rect width="504" height="11.523" x="48.96" fill="#FFF" opacity=".625"/>
    </g>
  </g>
</svg>
