<svg xmlns="http://www.w3.org/2000/svg" width="37" height="28" viewBox="0 0 37 28">
  <g fill="none" fill-rule="evenodd">
    <path fill="#8B3EB7" d="M24.0387844,0 C20.4285094,0 17.2204937,1.76544667 15.3321062,4.49199333 C14.3447844,3.99453833 13.2336281,3.71092167 12.0599187,3.71092167 C8.10046781,3.71092167 4.82234875,6.926045 4.82234875,10.8989883 C4.82234875,11.3343883 4.86948906,11.7581333 4.9445875,12.1735833 C2.03649156,13.45715 0,16.35655 0,19.7300833 C0,24.3023667 3.75393906,28 8.32138094,28 L28.6785844,28 C33.2460031,28 37,24.3023667 37,19.7300833 C37,17.1486 35.7966906,14.84805 33.9335094,13.3336 C34.2974969,12.3076333 34.5074719,11.2108617 34.5074719,10.07027 C34.5074719,4.477025 29.75355,0.00166185833 24.0365875,0.00166185833 L24.0387844,0 Z"/>
    <path fill="#FFF" d="M24.0387844,3.11206 C28.1863688,3.11206 31.4304594,6.26015833 31.4304594,10.0685783 C31.4304594,11.1809133 31.158625,12.2217667 30.6679125,13.1546333 C30.274325,13.90305 30.546275,14.8337 31.2802625,15.2447167 C32.8694125,16.13605 33.9231031,17.794 33.9231031,19.73055 C33.9231031,22.5978667 31.62945,24.8889667 28.6785844,24.8889667 L8.32138094,24.8889667 C5.37052688,24.8889667 3.07693156,22.5978667 3.07693156,19.73055 C3.07693156,17.24835 4.80535188,15.2058667 7.16910844,14.6907833 C8.12622906,14.4807833 8.64864594,13.4338167 8.2462825,12.5336167 C8.02371594,12.03125 7.89928031,11.4817033 7.89928031,10.8995017 C7.89928031,8.64491833 9.72582,6.82298167 12.0577219,6.82298167 C13.135,6.82298167 14.0986188,7.21462 14.8309875,7.859425 C15.6061375,8.54133 16.8094469,8.27932 17.2396875,7.33814667 C18.3530406,4.890795 20.9487063,3.11206 24.0365875,3.11206 L24.0387844,3.11206 Z"/>
  </g>
</svg>
