<svg xmlns="http://www.w3.org/2000/svg" width="137" height="40" viewBox="0 0 137 40">
  <path fill="#FFF" d="M109.357152 15.4508237C110.654314 14.9715807 112.048369 14.8141485 113.41974 14.9920311 115.967481 15.2560239 117.823185 16.524777 119.143179 18.6419288 119.830077 19.7466368 120.47086 21.8201944 120.406783 23.1581672 120.358096 26.041692 119.883956 28.1357694 118.422982 29.9299603 117.119209 31.5327392 115.20495 32.5177392 113.142901 32.6468754 109.475045 32.9852104 106.296786 31.1884784 105.027983 27.7461666 104.126419 25.3873152 104.068472 22.7892373 104.863971 20.3925355 105.620083 18.0677877 107.037504 16.3479191 109.357152 15.4508237zM85.1970456 15.1330052C86.0890333 14.9177479 87.0093426 14.8442236 87.9241923 14.915131 89.5382974 14.9991653 91.1298527 15.3311341 92.6429608 15.8993781 93.0555913 16.0634232 93.3093259 16.1992614 93.1555858 16.7682867 92.9818605 17.5527 92.8636533 18.3483852 92.8018434 19.1494247 92.7275746 19.7671332 92.5865905 19.8773592 92.0354771 19.6107852 90.7359912 18.9345462 89.3183557 18.5150859 87.860125 18.3753514 87.0835505 18.3215357 86.3222433 18.3241036 85.6430387 18.7393287 85.3226485 18.9205619 85.1133163 19.2492124 85.0845315 19.6161821 85.0557468 19.9831519 85.211276 20.3404217 85.4994901 20.5693933 86.2094828 21.1947989 87.1219722 21.3767859 87.993412 21.6331017 89.467213 22.0714112 90.9820737 22.3994746 92.2790269 23.2863251 93.4557285 24.0153114 94.1631997 25.3086496 94.1423574 26.6927064 94.1425172 26.7638336 94.1430879 26.8350408 94.143824 26.906278L94.1482631 27.3336616C94.1536773 28.2587048 94.1041249 29.1719036 93.4605882 29.9632695 92.5429497 31.4396351 91.1153307 32.0752889 89.4800191 32.4136239 88.0129412 32.6819359 86.5090548 32.6784622 85.043232 32.4033757 84.6259949 32.4749005 84.1974185 32.3781231 83.8514024 32.1342471 83.8133349 32.1266193 83.7748103 32.1214826 83.736074 32.1188697 82.7475949 31.9380853 81.795802 31.5951322 80.9191911 31.1038813 80.6628786 30.9757234 80.6500525 30.7655429 80.6961712 30.5092304 80.857685 29.6172575 81.0216934 28.7252778 81.1421543 27.8256145 81.2164932 27.2822315 81.4933321 27.295061 81.8393175 27.5206021 82.715048 28.0258856 83.637848 28.4447948 84.5946843 28.7714132 84.6130516 28.7771269 84.631046 28.7839767 84.6485634 28.791923 86.0480256 29.1558836 87.4397874 29.5557314 88.9007623 29.045671 89.5415452 28.8226811 90.0772512 28.3177531 90.0925919 27.7000279 90.1260744 27.1136227 89.8049324 26.5642386 89.2775357 26.3056948 88.3778724 25.8058959 87.3808392 25.6290381 86.4119695 25.3470833 85.079243 25.0073717 83.8049042 24.4699917 82.6313494 23.7528214 81.3420832 22.9172321 80.7295238 20.4899453 81.0191288 19.1494314 81.5214923 16.8297994 83.0593572 15.6635754 85.1970456 15.1330052zM72.3890977 15.0637887C74.0741503 15.0828506 75.7432909 15.3924015 77.3231224 15.9788294 77.7537116 16.1274971 77.9971979 16.3274126 77.8639076 16.8605474 77.6768182 17.6217913 77.5640376 18.4009937 77.4487091 19.1776148 77.3923289 19.5723468 77.2564739 19.6928077 76.8822684 19.4903243 75.7147658 18.874691 74.4510549 18.4621232 73.1451991 18.2702712 72.3488025 18.1070024 71.523264 18.1592033 70.7537762 18.4214868 70.2305883 18.5825833 69.849787 19.03453 69.779774 19.5774626 69.7105832 20.1008954 69.9757713 20.6117994 70.4436479 20.8564638 71.3945591 21.4562438 72.4890221 21.6741046 73.5476281 21.9714367 74.6189931 22.2375517 75.6555472 22.6280916 76.6361541 23.1350928 78.3637665 24.093701 79.0865252 25.7238667 78.8610108 27.887154 78.5739069 30.6553336 76.5593207 31.9522801 74.2730247 32.3469954 71.5278594 32.8211854 68.9006472 32.3393151 66.3554741 31.2679264 65.765939 31.0167263 65.5608777 30.709146 65.7531129 30.0606827 65.9303092 29.4047224 66.0461569 28.7337131 66.0991616 28.0563115 66.1581065 27.4693576 66.3631711 27.4924186 66.7988894 27.7487311 68.5753101 28.8627722 70.6416017 29.4263893 72.737651 29.368632 73.2064479 29.3490483 73.6669632 29.2384889 74.0935556 29.0431097 74.6257552 28.8429244 74.9855888 28.3426092 75.0060484 27.7743734 75.0930273 27.1932746 74.833767 26.6147106 74.3421745 26.2928754 73.4656022 25.7264146 72.4557429 25.5418764 71.4817407 25.2624896 70.2687625 24.9583281 69.0954379 24.513606 67.9855898 23.9373529 66.1068586 22.8864774 65.6224538 20.7641931 66.042778 18.9136187 66.6066542 16.4401899 68.6879489 15.4559562 70.6666812 15.1560595 71.2331219 15.0714857 71.81496 15.0919789 72.3890977 15.0637887zM129.849386 15.5405166C131.528252 14.8971691 133.232709 14.7946534 134.842365 15.6943167 136.026548 16.3581573 136.749383 17.352656 136.736554 18.826457 136.700637 23.0556349 136.716031 27.2848061 136.734003 31.5165318 136.734003 31.993263 136.649399 32.1957665 136.113683 32.1650118 135.261711 32.1163118 134.407653 32.1163118 133.55568 32.1650118 132.968773 32.1983077 132.848252 31.9727766 132.853385 31.4319414 132.873908 28.1793269 132.863646 24.9267091 132.863646 21.6766592 132.883646 21.1873727 132.827448 20.6979515 132.697067 20.2259325 132.409891 19.1464255 131.304672 18.5016268 130.223608 18.7828862 128.967698 19.0545794 127.991128 19.7850651 127.109426 20.6719156 126.922075 20.9070655 126.845446 21.2116892 126.899233 21.5074983 126.899233 24.8241834 126.886403 28.138324 126.912059 31.4550191 126.917191 32.0291568 126.74035 32.1880695 126.186672 32.1624439 125.248587 32.1214276 124.307937 32.1291213 123.372357 32.1598793 122.898217 32.1778246 122.744404 32.0240244 122.749533 31.5472865 122.767495 28.9328871 122.75723 26.3185043 122.75723 23.7041048 122.75723 21.1537859 122.770059 18.6008992 122.746922 16.0505803 122.74439 15.5661588 122.849454 15.3611108 123.382605 15.3918689 124.190031 15.4380042 125.002523 15.420059 125.812453 15.3969846 126.191791 15.3867364 126.33534 15.5174589 126.363563 15.8993614 126.396852 16.34278 126.532707 16.7759403 126.586523 17.2168177 126.635206 17.6141009 126.755667 17.6499881 127.0479 17.3911077 127.862189 16.6099737 128.811372 15.9829673 129.849386 15.5405166zM51.858379 7.52817064C52.9222233 7.28467283 54.0205818 7.23002153 55.1033432 7.36671014 55.5287931 7.42309042 55.7441194 7.57176814 55.7876702 8.02798618 55.8594478 8.78667878 55.9773409 9.54537137 56.1157537 10.2963803 56.1926604 10.7192757 56.0465439 10.8269372 55.649244 10.7936179 55.2058288 10.7602953 54.7547132 10.7525983 54.3087334 10.7602953 53.0938194 10.7807885 52.4223185 11.3626232 52.3274532 12.5467891 52.2659404 13.3516105 52.3120591 14.1615609 52.2941606 14.9689467 52.283899 15.3790427 52.542716 15.4021171 52.8426427 15.4021171 53.5679694 15.4021171 54.293356 15.4149299 55.0161748 15.3995525 55.3468295 15.3893043 55.5108412 15.4661977 55.5543954 15.837852 55.6518286 16.6606086 55.7928127 17.4756981 55.9439983 18.2907743 56.020905 18.7059994 55.8440638 18.8341573 55.469855 18.8341573 54.703482 18.8315894 53.9345346 18.8315894 53.1681683 18.8341573 52.3069267 18.8367219 52.2966651 18.8469701 52.2966651 19.6799882 52.2941506 23.5913309 52.283899 27.5052248 52.3094912 31.4165674 52.3120491 32.0163474 52.1326501 32.1957698 51.5456829 32.1624472 50.6947062 32.118863 49.8412249 32.1547502 48.9876803 32.1521856 48.1649271 32.1496378 48.1623592 32.1470732 48.1623592 31.2961098L48.1623592 25.5546992C48.1623592 23.5349506 48.1520977 21.515202 48.1700563 19.4954501 48.1751887 19.0135964 48.0419017 18.8239091 47.5215763 18.8213612 45.7325146 18.8213612 45.7325146 18.803416 45.7325146 16.9887154 45.7325146 16.7964802 45.7299501 16.6068095 45.7325146 16.4145743 45.7346529 16.239853 45.7311661 16.0953202 45.7295302 15.9757663L45.7293991 15.8145185C45.737214 15.4549787 45.8236219 15.4100769 46.3828588 15.4050968L46.7782944 15.4047017C48.1623592 15.4021338 48.1469652 15.4021338 48.1674917 14.04111 48.1828857 13.0030472 48.1162405 11.9700969 48.3340713 10.9294629 48.7493264 8.97891398 50.0180661 7.94084787 51.858379 7.52817064zM100.711707 15.3944268C101.219203 15.3790494 101.365319 15.5610364 101.360187 16.0608519 101.337096 18.6521737 101.349925 21.2434988 101.349925 23.8348373 101.349925 26.3620851 101.337096 28.886765 101.360187 31.4140095 101.365306 31.9548413 101.226907 32.1855149 100.64763 32.1624539 99.6915861 32.1240022 98.7304101 32.1393795 97.7743665 32.1573248 97.3232543 32.1650284 97.1309944 32.0368639 97.1309944 31.544732 97.1463597 26.3637826 97.1463597 21.181985 97.1309944 15.9993392 97.1284545 15.4995237 97.3258188 15.3867464 97.771802 15.3969947 98.7509366 15.4175011 99.7325724 15.4251981 100.711707 15.3944268zM61.8212971 15.3944268C62.328793 15.3764982 62.4826032 15.5482236 62.4774741 16.0531482 62.454383 18.621419 62.4672092 21.1922477 62.4672092 23.7604984 62.4672092 26.3313271 62.4518185 28.8995745 62.4774741 31.4704065 62.4826032 32.0137895 62.2954371 32.1752667 61.7751151 32.1598893 60.8190715 32.1316992 59.8578955 32.136815 58.8992873 32.1573248 58.425144 32.1675697 58.28416 31.9881639 58.28416 31.5191064 58.3029734 26.3603743 58.3021186 21.1999313 58.2815697 16.0377776 58.2790275 15.5097719 58.4686982 15.3841819 58.9454694 15.3969947 59.9040775 15.420069 60.8652536 15.4277493 61.8212971 15.3944268zM115.244663 20.0926655C113.78113 17.9165688 110.795036 17.9063206 109.449393 20.0977946 108.798084 21.2274682 108.490755 22.5227175 108.565124 23.8245757 108.529434 24.8470047 108.719346 25.8647482 109.121366 26.8055003 109.626291 28.0101761 110.461877 28.886765 111.812652 29.0636195 113.17472 29.3131461 114.550158 28.7002436 115.275384 27.5206088 116.518528 25.6444088 116.503124 21.9611885 115.244663 20.0926655zM99.2737631 7.79474804C100.272488 7.79786767 101.1707 8.40312163 101.548567 9.32760935 101.926434 10.2520971 101.709322 11.3132187 100.998711 12.0149975 100.288101 12.7167762 99.2243468 12.9206005 98.304657 12.5312013 97.3849672 12.141802 96.7909937 11.2360912 96.8003644 10.2374054 96.7941508 9.58232528 97.0537561 8.95270698 97.5198761 8.49238023 97.9859962 8.03205348 98.6188119 7.78034251 99.2737631 7.79474804zM60.4038764 7.79474804C61.0588357 7.78053717 61.691807 8.03127742 62.1593619 8.49015224 62.6269168 8.94902706 62.889473 9.57718905 62.8875473 10.2322997 62.8853218 10.8770301 62.623293 11.4936451 62.1606916 11.9427355 61.6980903 12.391826 61.0739816 12.6354679 60.4294686 12.6185768 59.7847471 12.6469649 59.1563449 12.4111223 58.6895003 11.9655577 58.2226556 11.5199931 57.9577731 10.9032692 57.9560732 10.2579252 57.9383895 9.60207086 58.190086 8.96759044 58.652559 8.50221274 59.115032 8.03683505 59.7479241 7.78117104 60.4038764 7.79474804zM23.2615386 38.2806512C23.6768051 38.2437775 24.0436211 38.5498485 24.0817139 38.965005 24.009953 39.4494398 23.7843518 39.7390849 23.299947 39.7467552 23.1048339 39.7603945 22.9134445 39.6884458 22.7756354 39.5496518 22.6378262 39.4108577 22.5672423 39.2189608 22.5822707 39.0239498 22.5525345 38.8305711 22.6119945 38.6341308 22.7439804 38.4897034 22.8759663 38.3452759 23.0662704 38.2684083 23.2615386 38.2806512zM16.4939828 38.2568504L16.6101598 38.2575769C17.0484426 38.2447641 17.3124554 38.5010766 17.31502 39.0393305 17.320274 39.2219244 17.2491534 39.3984395 17.1187779 39.5263863 16.9884024 39.654333 16.8105812 39.7221222 16.6281184 39.713436 16.4239377 39.7343011 16.2212067 39.6621798 16.0760789 39.5170488 15.9309512 39.3719178 15.8588344 39.1691851 15.879704 38.965005 15.8677736 38.7698626 15.9417415 38.5792556 16.0821816 38.4432429 16.2226217 38.3072302 16.4154995 38.2394038 16.6101598 38.2575769zM20.1318996 36.2173318C20.661539 36.2239569 21.0920164 36.646518 21.1084696 37.1759433 21.1407514 37.4423073 21.0554389 37.7095248 20.8747819 37.9079056 20.6941248 38.1062863 20.4360342 38.216162 20.1678201 38.2088769 19.9016064 38.2256539 19.6403739 38.1311669 19.4464887 37.9479737 19.2526036 37.7647805 19.143466 37.5093218 19.1451125 37.2425851 19.1505802 36.6934169 19.5833415 36.2437775 20.1318996 36.2173318zM29.5950289 35.9763966C30.0070133 35.9656841 30.3525604 36.285084 30.3742313 36.6966375 30.3229201 37.2041334 30.0461445 37.4860715 29.5950289 37.488636 29.4012562 37.4989452 29.2123515 37.4257428 29.0761229 37.2875549 28.9398943 37.149367 28.8693967 36.9594363 28.8824717 36.7658306 28.8531721 36.5624224 28.9158734 36.3565216 29.0535712 36.2039677 29.1912691 36.0514139 29.3896921 35.968018 29.5950289 35.9763966zM10.3125867 35.9097548C10.503845 35.8906123 10.6938767 35.9563107 10.8324732 36.0894917 10.9710696 36.2226728 11.044286 36.4099365 11.0327776 36.6018055 11.0148957 37.1477565 10.7611344 37.3784267 10.3048897 37.3630494 10.1002945 37.3858773 9.89676091 37.3119596 9.75449557 37.1631615 9.61223022 37.0143634 9.54751865 36.8077184 9.57950303 36.6043534 9.57141035 36.410902 9.64744258 36.2234162 9.78799258 36.0902447 9.92854258 35.9570733 10.1198522 35.891252 10.3125867 35.9097548zM14.2264927 35.2305168C14.7577706 35.2436921 15.1929256 35.6567109 15.2337953 36.1865771 15.2480378 36.552786 15.061616 36.8976628 14.7474311 37.0863415 14.4332462 37.2750203 14.0412171 37.2775231 13.7246488 37.0928712 13.4080805 36.9082192 13.2172706 36.5657508 13.2268362 36.1993899 13.2640405 35.668677 13.6948772 35.251108 14.2264927 35.2305168zM26.0040793 35.1510622C26.5573465 35.1652132 27.0063771 35.6030707 27.0344618 36.1558057 27.0147762 36.6910636 26.578091 37.1164547 26.042501 37.1221109 25.7833021 37.1352631 25.5304968 37.0389426 25.3457638 36.8566493 25.1610309 36.6743561 25.0613581 36.4228536 25.0710634 36.1635027 25.0604344 35.9054938 25.1527841 35.6538384 25.3277783 35.4639474 25.5027726 35.2740564 25.7460626 35.1615003 26.0040793 35.1510622zM22.4695068 33.656738C22.8012824 33.6381982 23.1262886 33.7556489 23.3695652 33.982001 23.6128418 34.2083532 23.7533826 34.5240618 23.7587729 34.8563113 23.731353 35.5437661 23.1752439 36.0920195 22.4874687 36.109657 22.1668039 36.1043193 21.8614452 35.9715913 21.6387904 35.7407683 21.4161357 35.5099453 21.2944908 35.2000047 21.3007048 34.8793557 21.2735092 34.5569836 21.3859631 34.2384411 21.6095197 34.0045912 21.8330763 33.7707413 22.1462377 33.6440717 22.4695068 33.656738zM17.2740337 33.5644806C17.9663711 33.5835043 18.51299 34.158773 18.4966514 34.8511789 18.4784087 35.5220102 17.9218699 36.0521997 17.2509427 36.0379094 16.9175611 36.0433294 16.5972364 35.9084523 16.3681429 35.6661945 16.1390494 35.4239367 16.0222613 35.0965833 16.0462803 34.7640239 16.0498712 34.4420965 16.1812777 34.1347983 16.4115592 33.909808 16.6418406 33.6848177 16.9521098 33.5605886 17.2740337 33.5644806zM27.4599218 31.8676897C28.1232081 31.9006628 28.6554678 32.4274009 28.6953556 33.0903073 28.7038309 33.4222803 28.5744309 33.7429372 28.3379185 33.9760462 28.1014062 34.2091553 27.7789076 34.3338944 27.4470923 34.3206086 27.1257387 34.3396483 26.8113484 34.2217342 26.5817742 33.9960655 26.3522001 33.7703968 26.2289096 33.4580757 26.2424333 33.1364427 26.2264418 32.804218 26.347847 32.4800486 26.5781389 32.2400598 26.8084308 32.0000711 27.1273203 31.8654065 27.4599218 31.8676897zM9.04379367 32.2675374C9.57919352 32.2677993 10.0135522 32.7010099 10.0152313 33.2364071 10.0082203 33.7890772 9.56560515 34.2373586 9.01306898 34.2513989 8.46348158 34.2102889 8.03748682 33.7541959 8.03393437 33.2030846 8.06811708 32.6722637 8.51191202 32.2611262 9.04379367 32.2675374zM12.4767674 31.7528268C12.7587634 31.7704991 13.027238 31.8874068 13.2330944 32.0853482 13.4732602 32.3162798 13.6065549 32.6366985 13.6010417 32.9698331 13.571552 33.6331391 13.046274 34.1672659 12.3835531 34.2078314 12.0509104 34.2154954 11.7298271 34.0856578 11.4960091 33.848932 11.2621911 33.6122063 11.1363316 33.2895429 11.148106 32.9570203 11.123481 32.6337649 11.2399342 32.315667 11.4674491 32.0847182 11.6949641 31.8537693 12.0112819 31.7325644 12.3348699 31.7523445zM31.1687677 32.1111894C31.7208572 32.1206273 32.1684809 32.5614865 32.186324 33.1133683 32.1744954 33.6530737 31.7317553 34.0834166 31.1919318 34.0799166 30.6521082 34.0764165 30.2149855 33.6403689 30.2101562 33.1005556 30.2241735 32.5718219 30.6407401 32.1418909 31.1687677 32.1111894zM20.0549928 30.4605305C20.5063361 30.4708983 20.934591 30.6621611 21.2435456 30.99135 21.5525002 31.3205388 21.716248 31.7600503 21.6980014 32.2111438 21.704753 32.8270278 21.3771111 33.3981728 20.8420482 33.7032405 20.3069852 34.0083081 19.6485965 33.9993513 19.1220305 33.679841 18.5954644 33.3603308 18.2834808 32.7804841 18.3069841 32.1650118 18.2987873 31.7028505 18.4817916 31.2578157 18.8127348 30.9351133 19.143678 30.612411 19.5931851 30.4406847 20.0549928 30.4605305zM15.8386511 29.563433C16.331411 29.562698 16.8037118 29.7604063 17.1490017 30.1119569 17.4942916 30.4635075 17.683482 30.9392843 17.6738915 31.4319514 17.6924933 31.9359278 17.4973817 32.4243207 17.136647 32.7767532 16.7759123 33.1291857 16.2831096 33.3128749 15.7797029 33.2825459 14.75703 33.2660678 13.938377 32.4291031 13.9444881 31.4063158 13.9795772 30.3834925 14.8152511 29.5704287 15.8386511 29.563433zM34.7597238 31.6216221C35.2159619 31.6728866 35.5799092 31.9138217 35.5773479 32.42645 35.5880901 32.6357068 35.5148119 32.8405873 35.3737961 32.9955658 35.2327804 33.1505444 35.0357078 33.2427838 34.826369 33.2517878 34.3663376 33.285664 33.9659013 32.9403 33.9318382 32.4802824 33.9208821 32.2547304 34.0035421 32.0346635 34.1602798 31.8720995 34.3170175 31.7095355 34.5339223 31.6189019 34.7597238 31.6216221zM23.3353245 29.9443374C23.8792896 29.6348957 24.5476144 29.6417932 25.085077 29.9623958 25.6225396 30.2829985 25.9461404 30.867796 25.9323017 31.4934642 25.8964188 32.4245256 25.1389542 33.1651128 24.2073206 33.1800102 23.7466848 33.1840215 23.3033502 33.0047431 22.9749829 32.6816697 22.6466157 32.3585963 22.460156 31.9182339 22.4566787 31.4575937 22.455758 30.8317732 22.7913595 30.253779 23.3353245 29.9443374zM5.24528495 31.5370483C5.44779494 31.551114 5.63618689 31.6458688 5.7682159 31.800065 5.90024492 31.9542613 5.96486313 32.1549961 5.94758059 32.357257 5.94384743 32.5521062 5.85784765 32.7362794 5.71084899 32.8642308 5.56385033 32.9921821 5.36957789 33.0519648 5.1760752 33.0287946 4.9811547 33.0382929 4.79152015 32.9637418 4.65525323 32.8240437 4.51898631 32.6843457 4.44917309 32.4929162 4.46351466 32.2982921 4.4599021 32.0917071 4.54180158 31.8928086 4.68983201 31.748665 4.83786243 31.6045213 5.03886916 31.5279417 5.24528495 31.5370483zM27.8751769 27.4283413C28.3692571 27.4226509 28.8445806 27.6172963 29.1927609 27.9678931 29.5409411 28.31849 29.7322943 28.7951483 29.7231868 29.2891773 29.7366396 29.7905812 29.5502552 30.2767735 29.205076 30.6406939 28.8598967 31.0046143 28.3842283 31.2164201 27.8828139 31.2295067 27.3783635 31.2325563 26.8936074 31.0338783 26.5364219 30.6776505 26.1792364 30.3214227 25.9792576 29.8372017 25.9809772 29.3327448 25.9916251 28.2893752 26.8318796 27.4445895 27.8751769 27.4283413zM12.1212248 27.5102417C12.5794059 27.5117108 13.0162592 27.7040146 13.3267706 28.0409341 13.7010988 28.3247671 13.9336981 28.757186 13.9642011 29.2259635 13.9947041 29.694741 13.8201032 30.1536562 13.4857132 30.4836049 13.1641014 30.8425384 12.7107305 31.0557765 12.2291574 31.0746123 11.7475842 31.0934482 11.2789431 30.9162729 10.9302786 30.583556 10.5759054 30.2553646 10.3729791 29.7952705 10.369578 29.3122816 10.366177 28.8292927 10.5626038 28.3663864 10.91232 28.0332371 11.2249732 27.6983041 11.6630437 27.5087895 12.1212248 27.5102417zM31.507116 28.5407463C32.1723797 28.5570531 32.7101625 29.0880813 32.7348761 29.7530857 32.7394185 30.0850737 32.6097167 30.4048306 32.3751841 30.6398435 32.1406515 30.8748564 31.8211606 31.0052121 31.4891641 31.001349 31.1680253 31.0107264 30.8572988 30.8869151 30.6306107 30.6592518 30.4039225 30.4315885 30.2814462 30.1203334 30.2922021 29.7992378 30.2733321 29.4676518 30.3937635 29.1432458 30.6244361 28.9042992 30.8551087 28.6653527 31.1750712 28.5335685 31.507116 28.5407463zM8.37484063 28.2895391C8.7078423 28.2881652 9.02684756 28.4233795 9.25742364 28.6636434 9.48799972 28.9039072 9.60997781 29.2282043 9.59489705 29.5608672 9.59976912 29.8815639 9.4727464 30.1901935 9.24354557 30.4145528 9.01434475 30.6389121 8.70307394 30.7593178 8.38255431 30.747601 8.06108819 30.7595351 7.74836082 30.6415066 7.51494241 30.42015 7.281524 30.1987934 7.14708443 29.8927622 7.1419446 29.5711154 7.13845223 28.8807032 7.68481009 28.3127696 8.37484063 28.2895391zM5.17862309 27.6846538C5.43720974 27.6768195 5.68734909 27.7771777 5.86881457 27.9615651 6.05028005 28.1459525 6.14663023 28.3976629 6.13466667 28.6560914 6.14665782 28.9139712 6.05267632 29.165539 5.87454091 29.3523906 5.69640551 29.5392423 5.44961077 29.6451252 5.19145255 29.6454576 4.8276594 29.6691096 4.48069875 29.4892995 4.29027103 29.1784263 4.09984332 28.8675531 4.09728648 28.4767759 4.28363 28.1634375 4.46997352 27.8500991 4.81455159 27.6657643 5.17862309 27.6846538zM35.0211621 27.4821704C35.5742279 27.515523 36.0056224 27.9738764 36.0054293 28.5279469 35.9769363 29.0652227 35.5229221 29.4804235 34.985245 29.4609161 34.726162 29.4564269 34.4797529 29.3480038 34.3014098 29.16002 34.1230667 28.9720363 34.0277542 28.7202655 34.0368984 28.461305 34.0678541 27.9319376 34.4916402 27.5103599 35.0211621 27.4821704zM29.7314091 24.6168417C30.2533744 24.3041496 30.9026803 24.2943556 31.4338392 24.5911626 31.9649981 24.8879697 32.2969597 25.4460876 32.304217 26.0545048 32.326309 26.5150496 32.1546344 26.9638194 31.8308065 27.2920343 31.5069786 27.6202493 31.0605594 27.7979468 30.599759 27.7820537 30.148042 27.8009357 29.7088366 27.6310114 29.387451 27.3130238 29.0660655 26.9950361 28.8914828 26.5576614 28.9055627 26.1057693 28.8944664 25.49741 29.2094438 24.9295338 29.7314091 24.6168417zM9.46659195 24.3170054C10.423947 24.3318225 11.1892961 25.1176014 11.1788941 26.0750146 11.1655211 26.5349188 10.9674106 26.9700374 10.6293092 27.2820921 10.2912077 27.5941467 9.84163544 27.7568143 9.38213537 27.7333538 8.44778219 27.7183903 7.69873967 26.9556531 7.70070125 26.0211822 7.71993696 25.0639056 8.50923691 24.3021883 9.46659195 24.3170054zM38.0969221 25.8699666C38.5105865 25.8578562 38.8564532 26.1819351 38.8712463 26.5955122 38.8860393 27.0090893 38.5642103 27.3570507 38.1507378 27.3745256 37.9466352 27.3920089 37.745484 27.3168212 37.6028906 27.1697477 37.4602971 27.0226742 37.3913661 26.819294 37.4151529 26.6158297 37.3939918 26.4235135 37.4566915 26.2314009 37.5872268 26.0885938 37.7177621 25.9457867 37.9034833 25.866124 38.0969221 25.8699666zM1.85674883 25.7443599C2.06107429 25.7110309 2.26914115 25.7761292 2.41803497 25.9199705 2.5669288 26.0638119 2.63916838 26.2695084 2.61291021 26.4748623 2.63015879 26.6702049 2.5602023 26.8631853 2.42178435 27.0020979 2.2833664 27.1410105 2.09063674 27.2116549 1.89523389 27.1951032 1.69185837 27.2164846 1.48949833 27.1463831 1.34293192 27.0037751 1.19636552 26.8611671 1.12075137 26.6608016 1.13655797 26.4569171 1.12432193 26.2630883 1.19653754 26.0734436 1.33459776 25.9368467 1.47265798 25.8002499 1.66306141 25.7300592 1.85674883 25.7443599zM34.1368928 24.0116951C34.4702654 23.9983531 34.7937087 24.1267425 35.0271749 24.3650885 35.260641 24.6034346 35.3823129 24.9294643 35.3620784 25.2624896 35.3778276 25.5843538 35.258825 25.8982377 35.0336498 26.1287605 34.8084746 26.3592832 34.4974697 26.4856187 34.1753245 26.4774269 33.4882875 26.4769637 32.9294848 25.9238602 32.9219789 25.236864 32.9459722 24.5743496 33.4746035 24.0412562 34.1368928 24.0116951zM4.68005301 24.1524512C5.02831896 23.6648811 5.64583122 23.4493864 6.22183499 23.6144119 6.85112146 23.8650616 7.24241114 24.4978265 7.18551222 25.1728 7.19071143 25.498091 6.97424834 25.7853317 6.66012113 25.8699799 6.15512978 26.5902208 5.19145255 26.5492012 4.67112721 25.7853928 4.32821211 25.2940447 4.33178705 24.6400213 4.68005301 24.1524512zM3.06147126 22.0150042C3.61158848 22.0382207 4.05303866 22.4774515 4.07902757 23.0274447 4.06626689 23.559147 3.63678776 23.9863571 3.1050254 23.9963011 2.83703296 24.0135489 2.57449505 23.9151378 2.38387253 23.7259805 2.19325 23.5368232 2.09281615 23.2750525 2.10799557 23.0069349 2.11319982 22.4760514 2.5312081 22.0411842 3.06147126 22.0150042zM37.0383795 21.8432788C37.306528 21.8376236 37.5648279 21.9443405 37.7507895 22.1376119 37.9367512 22.3308833 38.0334351 22.5931038 38.0174508 22.8608351 37.9925947 23.3880961 37.5707778 23.8099432 37.0435187 23.8348373 36.7772059 23.8274915 36.5249061 23.713885 36.3428809 23.5193516 36.1608556 23.3248183 36.0642424 23.0655355 36.0745856 22.7993224 36.0684688 22.5425811 36.1683066 22.2946429 36.3506332 22.1137824 36.5329598 21.932922 36.781696 21.8350893 37.0383795 21.8432788zM32.0812571 20.348968C33.0380507 20.370914 33.7979713 21.1606061 33.7831505 22.1175365 33.7817614 22.7334116 33.4499825 23.3011726 32.9141007 23.6047096 32.3782188 23.9082466 31.7206663 23.9008678 31.1917309 23.5853819 30.6627955 23.2698959 30.3438409 22.6948327 30.3562727 22.0790815 30.3479489 21.6186187 30.5268446 21.1744902 30.8520104 20.8483575 31.1771762 20.5222249 31.6207716 20.3420113 32.0812571 20.348968zM8.00576757 20.3207778C8.61777159 20.3226336 9.18210231 20.6514838 9.485445 21.1830246 9.78878769 21.7145653 9.78486669 22.3677087 9.47516411 22.8955692 9.16546154 23.4234297 8.59722328 23.7454808 7.9852411 23.7399886 7.5352498 23.7406621 7.10353215 23.5620283 6.78557781 23.2435983 6.46762347 22.9251683 6.28963518 22.4931841 6.29098137 22.0431943 6.27101093 21.5818873 6.44499052 21.133271 6.77076377 20.8060482 7.09653702 20.4788254 7.54437642 20.3028557 8.00576757 20.3207778zM35.1057659 18.8521059C35.4384583 18.8423314 35.7608599 18.968067 35.999092 19.2005003 36.2373242 19.4329336 36.3709647 19.7521395 36.3694036 20.0849718 36.3532897 20.7763346 35.7818316 21.3248878 35.0903885 21.3127086 34.422172 21.291795 33.8946614 20.7380387 33.9061926 20.0695944 33.8997974 19.7478891 34.0235404 19.4372247 34.2493727 19.2080196 34.4752051 18.9788145 34.7840011 18.8504801 35.1057659 18.8521059zM4.92743971 18.3420321C5.71143803 18.3984335 6.33886681 19.0150096 6.4089447 19.7979046 6.41144228 20.5232579 5.73736679 21.1460989 4.96329684 21.2434988 4.31225236 21.3255214 3.48693126 20.4668777 3.47410179 19.7722623 3.45870777 19.1289149 4.25586875 18.3471613 4.92743971 18.3420321zM39.3067136 19.2493891C39.5114507 19.2318094 39.7135856 19.3049839 39.8596253 19.4495478 40.0056651 19.5941117 40.0808889 19.795493 40.0653895 20.000398 40.0899258 20.1945196 40.0272292 20.3895402 39.8941662 20.5329956 39.7611033 20.6764511 39.571339 20.7536093 39.3759234 20.7437133 39.1728198 20.7603018 38.9716015 20.6943371 38.8177375 20.5607252 38.6638736 20.4271133 38.5703497 20.2371306 38.5582993 20.0337073 38.612115 19.5800271 38.8248733 19.2673344 39.3067136 19.2493891zM.770046136 19.1084218C.966418035 19.0906188 1.16006707 19.1641181 1.29517304 19.307733 1.43027901 19.4513479 1.49182872 19.6491198 1.46208021 19.84404 1.48281717 20.038864 1.41675401 20.2329403 1.28146101 20.3746521 1.14616801 20.5163638.955359993 20.5913455.759784565 20.5796549.551266539 20.6052682.342669152 20.5326572.195125768 20.383102.047582384 20.2335468-.0221970021 20.0239852.00623776303 19.8158332-.0219990653 19.3032048.344526105 19.1186666.770046136 19.1084218zM8.01602914 15.8788649C9.1002273 15.8122198 9.96910256 17.0732925 9.97936746 17.7832684 9.98962903 18.7444445 8.98226092 19.6364241 7.93142538 19.631317 6.86768699 19.6287204 6.14236368 18.8392798 6.15262525 17.6961301 6.1602589 16.6478024 6.94459375 15.9480814 8.01602914 15.8788649zM32.0530336 16.0941745C32.5155309 16.0883618 32.9610729 16.2681104 33.2900567 16.5932368 33.6190405 16.9183633 33.8040313 17.3617543 33.8036741 17.824288 33.8026829 18.7628101 33.0428675 19.523787 32.1043481 19.5262114 31.6426444 19.544981 31.193741 19.3719379 30.8640976 19.0481204 30.5344542 18.7243028 30.353435 18.278556 30.3639697 17.816591 30.3675227 16.8797281 31.1164192 16.1160437 32.0530336 16.0941745zM3.01529252 16.0019037C3.56670293 16.0312985 4.0113989 16.4639366 4.05593653 17.0143309 4.0265431 17.5704426 3.56704796 18.0062617 3.01016007 18.0062617 2.47325399 17.9867459 2.04771752 17.5464744 2.04648284 17.0092152 2.07361966 16.4790826 2.48661935 16.0496698 3.01529252 16.0019037zM36.4681263 15.9166415C36.786932 15.7204673 37.1868994 15.7120325 37.5136922 15.8945917 37.8404849 16.0771509 38.0430053 16.4221589 38.0431064 16.7964868 38.048601 17.368636 37.6020924 17.8434104 37.0306825 17.8730013 36.7539154 17.8760287 36.4873131 17.7688295 36.2896813 17.5750491 36.0920495 17.3812687 35.979625 17.1168274 35.9772057 16.8400543 35.9615254 16.466055 36.1493205 16.1128156 36.4681263 15.9166415zM34.2522246 13.6668778C34.5836082 13.6586107 34.9043596 13.7841388 35.1421047 14.0151381 35.3798498 14.2461373 35.5145561 14.5631437 35.5158285 14.8946279 35.4879385 15.5581876 34.9614206 16.0924661 34.29834 16.1300617 33.9668814 16.1360262 33.6474562 16.0059118 33.4145062 15.7700417 33.1815563 15.5341716 33.0554311 15.2131503 33.0655242 14.8817918 33.051955 14.5605306 33.1716653 14.2479279 33.3963472 14.0179042 33.6210292 13.7878805 33.9307333 13.6608596 34.2522246 13.6668778zM5.95575877 13.2884494C6.30043424 13.3001048 6.62494551 13.4537778 6.85236634 13.7130399 7.3376992 14.2616412 7.29791056 15.096954 6.76263012 15.5969402 6.51961887 15.8383038 6.18080972 15.9573576 5.84023167 15.9210608 5.49965363 15.884764 5.19354556 15.6969788 5.006861 15.4098208L5.006861 15.4098208 5.00598391 15.4090537C4.74728657 15.1882972 4.6004857 14.8638291 4.60561767 14.5239236 4.61074965 14.184018 4.76727916 13.8641297 5.03251659 13.6515004 5.27693211 13.4081939 5.61108331 13.276794 5.95575877 13.2884494zM30.0010784 12.2374819C30.6432733 11.9698382 31.3836038 12.1180221 31.8733081 12.6122256 32.3630125 13.1064291 32.5044196 13.8480839 32.230914 14.4878042 31.9574085 15.1275246 31.3235408 15.537719 30.6279192 15.5251492 30.1774054 15.5337161 29.7430287 15.357455 29.4258701 15.0373825 29.1087115 14.7173099 28.9364302 14.2813394 28.9491168 13.8309229 28.9429093 13.1352154 29.3588835 12.5051255 30.0010784 12.2374819zM9.36899546 12.0687339L9.52311941 12.0700513C10.1329602 12.0767002 10.6923441 12.4100467 10.9884072 12.9432414 11.2844703 13.4764362 11.2716852 14.1274866 10.9549171 14.6486468 10.638149 15.1698071 10.0661092 15.4809351 9.45647756 15.4636365 8.836021 15.4726615 8.26004587 15.142538 7.9542243 14.6026112 7.64840272 14.0626844 7.6614371 13.3989382 7.98822045 12.8714342 8.3150038 12.3439303 8.90349553 12.0366741 9.52311941 12.0700513zM38.1635673 12.5724314C38.3873571 12.5428865 38.6130249 12.6112101 38.7828443 12.759925 38.9526638 12.9086399 39.0501629 13.1233211 39.0504011 13.3490526 39.0599372 13.5817961 38.9748586 13.8084888 38.814547 13.9774879 38.6542354 14.1464869 38.4323437 14.2433995 38.1994211 14.246148 37.9752004 14.2550508 37.7577591 14.1682544 37.6013023 14.007396 37.4448455 13.8465376 37.3641137 13.6267724 37.3792324 13.402885 37.3485111 12.8518049 37.6073848 12.5929245 38.1635673 12.5724314zM1.89523389 12.4647699C2.10104825 12.4454052 2.30544201 12.5140662 2.45782516 12.6537585 2.61020831 12.7934507 2.69633921 12.9911186 2.6948994 13.197837 2.71799043 13.6643132 2.38477118 13.9026972 1.95418206 14.0103453 1.52723774 13.9936833 1.18813381 13.6455646 1.18267667 13.2183301 1.17370046 13.0229543 1.2445339 12.8323235 1.3789109 12.690214 1.51328789 12.5481045 1.69966177 12.4667274 1.89523389 12.4647699zM4.48545077 10.3720216C4.82614334 10.1599811 5.25632151 10.1543553 5.60244266 10.3574139 5.94856382 10.5604724 6.153535 10.9387206 6.13466667 11.3395655 6.14872534 11.636947 6.03906699 11.9268838 5.83173007 12.1405303 5.62439316 12.3541767 5.33787284 12.4724748 5.0402036 12.4673345 4.4438279 12.4560639 3.96912788 11.9641546 3.97909314 11.3677557 3.94974873 10.9675413 4.1447582 10.5840622 4.48545077 10.3720216zM12.0697042 8.55399977L12.1887534 8.56113432C13.042298 8.66110209 14.2059708 9.29162343 14.0906423 10.5244893 14.2443925 11.5369165 13.0474271 12.4929734 12.1554641 12.4494026 11.1426574 12.3790503 10.3377754 11.5708926 10.2715371 10.5578086 10.2331121 9.58382308 11.2813964 8.45348954 12.1887534 8.56113432zM27.9135986 8.79692701C28.3860081 8.78574078 28.8424982 8.96795161 29.1773587 9.30136467 29.5122193 9.63477772 29.6964059 10.0904742 29.6872663 10.5629277 29.6744261 11.5461373 28.8738011 12.3364806 27.8905076 12.336612 27.4181818 12.3240007 26.9702917 12.1239424 26.6456957 11.7805941 26.3210997 11.4372457 26.1464855 10.9788367 26.160394 10.5065474 26.1619223 10.0459995 26.3485418 9.6054027 26.6782729 9.28386867 27.0080039 8.96233463 27.4531581 8.78686341 27.9135986 8.79692701zM34.9032691 10.1989604C35.2553094 10.1976702 35.5811644 10.3847371 35.75756 10.6893987 35.9339556 10.9940602 35.9339556 11.3697935 35.75756 11.674455 35.5811644 11.9791166 35.2553094 12.1661835 34.9032691 12.1648866 34.3724643 12.1686341 33.9361553 11.747141 33.9215699 11.2165234 33.9149154 10.9508648 34.0150463 10.6936284 34.1995543 10.5023811 34.3840624 10.3111338 34.6375428 10.201843 34.9032691 10.1989604zM31.6711277 9.09425911C31.9930475 9.06634665 32.3115673 9.1772247 32.5465685 9.39900365 32.7815697 9.62078261 32.9106868 9.93235532 32.9014424 10.2553507 32.9235803 10.5864821 32.8102701 10.9124035 32.5874918 11.1583871 32.3647135 11.4043707 32.0515766 11.5493164 31.7198777 11.5599909 31.0320287 11.5418899 30.4782925 10.989293 30.458775 10.3014827 30.4641398 9.63498734 31.0046156 9.09679814 31.6711277 9.09425911zM8.14925281 8.85332396C8.80522027 8.64191954 9.51398626 8.96680765 9.7819998 9.60175165 10.0298293 10.2343425 9.74241841 10.9505408 9.12604393 11.2363259 8.50966945 11.5221111 7.77734031 11.2787206 7.45465418 10.6808374 7.41623249 10.6193246 7.43419107 10.5219248 7.42649406 10.4424668L7.42649406 10.4424668C7.24959285 9.67607717 7.53156094 9.05837196 8.14925281 8.85332396zM13.9983415 8.33044073C14.0418957 7.26674237 15.0107654 6.43884003 15.8668746 6.57726618 17.0125955 6.44398249 17.8327774 7.56406446 17.7789617 8.41759238 17.7727788 9.09945325 17.399972 9.72517668 16.8032698 10.0552054 16.2065676 10.3852342 15.4783966 10.3684482 14.897536 10.0112741 14.3166753 9.65409988 13.9730978 9.0118622 13.9983415 8.33044073zM24.3149521 6.620827C24.7863948 6.62661219 25.2351347 6.82421289 25.557709 7.16806974 25.8802833 7.51192659 26.0488495 7.97236005 26.0245425 8.44321129 26.0206314 9.42416795 25.2241388 10.2172324 24.2431744 10.2169124 23.2435918 10.1812834 22.4470531 9.36897471 22.431025 8.36888577 22.4769841 7.36983423 23.3152591 6.59201544 24.3149521 6.620827zM19.4284481 6.04555655C20.0794066 5.78431422 20.8236366 5.94093585 21.3140881 6.4423855 21.8045396 6.94383515 21.9446208 7.69135498 21.669009 8.33636082 21.3933971 8.98136666 20.7563724 9.39682805 20.0549928 9.38900664 19.5948887 9.3846404 19.1554486 9.19729861 18.8337185 8.86835394 18.5119885 8.53940927 18.3344365 8.09592319 18.3402733 7.63583543 18.3480056 6.93445489 18.7774897 6.30679888 19.4284481 6.04555655zM34.803247 6.80514472L34.9058403 6.81305221C35.1027105 6.79696317 35.296136 6.87174597 35.4309814 7.01608393 35.5658267 7.16042189 35.6272985 7.35848024 35.5978744 7.55380289 35.5645852 8.0202925 35.3338649 8.30736303 34.8417631 8.28942113 34.6478573 8.29734117 34.4601347 8.220326 34.3276616 8.07850554 34.1951884 7.93668508 34.1311314 7.7441551 34.1522335 7.55123833 34.124383 7.34536532 34.1954094 7.1384333 34.3438202 6.99305936 34.492231 6.84768542 34.700587 6.78095191 34.9058403 6.81305221zM5.39369163 6.66330755C5.54652463 6.66808398 5.69454124 6.72452385 5.81254486 6.82527792 5.9600494 6.95122052 6.04651861 7.13433098 6.0500629 7.3282551 6.05262746 7.90752528 5.74763169 8.14076341 5.29138698 8.14076341 5.09627457 8.16023285 4.90305139 8.08886821 4.7674354 7.94724824 4.63181941 7.80562827 4.56888686 7.60949667 4.59678501 7.41541008 4.57312054 7.2225601 4.63495388 7.02900334 4.76604054 6.88558991 4.89712721 6.74217648 5.08436266 6.6632432 5.27855751 6.66952694zM27.7187988 5.63402873C28.407841 5.66272152 28.9551139 6.22349337 28.9670121 6.91302999 28.9606723 7.23516579 28.825685 7.54136842 28.5921548 7.76334886 28.3586246 7.98532929 28.0459744 8.10462522 27.7239313 8.09463137 27.4013474 8.11563261 27.0849389 7.99916013 26.8529614 7.77402052 26.6209839 7.5488809 26.4950996 7.23609766 26.5064428 6.91302999 26.4911509 6.58090525 26.6117589 6.25687251 26.8404846 6.01557341 27.0692103 5.77427432 27.3863315 5.63651504 27.7187988 5.63402873zM12.2157722 5.5377723C12.5286108 5.41409148 12.8785925 5.4248029 13.183282 5.56738354 13.778205 5.85342659 14.0587987 6.54436469 13.8317619 7.16421003 13.5190058 7.87420268 12.8039441 8.20997316 12.1811197 7.93828331 11.4582976 7.62302264 11.2199437 6.99505252 11.5275074 6.22354714L11.5275074 6.22354714C11.6548933 5.90859267 11.9029336 5.66145311 12.2157722 5.5377723zM8.87977194 5.75961875C9.14886469 5.74084738 9.41271025 5.84068541 9.60196872 6.03289493 9.7912272 6.22510444 9.8869713 6.49046303 9.86403901 6.75923315 9.84142107 7.28695901 9.42020084 7.71040325 8.89260141 7.73579987 8.62501475 7.73376431 8.36971119 7.62321736 8.18513759 7.42946663 8.00056399 7.2357159 7.90252573 6.97535262 7.91346679 6.70798199 7.90125588 6.44973659 7.99977279 6.19854289 8.18428887 6.01745283 8.36880494 5.83636276 8.62180072 5.74257049 8.87977194 5.75961875zM30.5556819 5.71070997C30.8683362 5.53173301 31.2536508 5.53723993 31.5610626 5.72507886 31.8684744 5.91291779 32.049186 6.25327191 32.0325838 6.61314667 32.030543 6.96774835 31.8384227 7.293998 31.5293144 7.46777526 31.220206 7.64155253 30.84163 7.63614192 30.5376141 7.45360189 30.2335983 7.27106186 30.0508801 6.93945503 30.0589739 6.58493985 30.0526631 6.22473763 30.2430276 5.88968692 30.5556819 5.71070997zM22.8231891 3.81163136C23.2652643 3.81064789 23.673744 4.04737683 23.8926701 4.43143779 24.1115962 4.81549875 24.1071688 5.2875969 23.8810784 5.66748447 23.654988 6.04737205 23.2421404 6.27639854 22.8001615 6.26712129 22.1265953 6.25456086 21.5889403 5.70162386 21.5952579 5.02797024 21.6015754 4.35431663 22.1495059 3.8115603 22.8231891 3.81163136zM17.5636988 3.72705734C18.2514769 3.7579034 18.7996915 4.3128239 18.8221736 5.00092615 18.8053503 5.67053094 18.2539396 6.20252919 17.584162 6.19535366 17.2610455 6.21927934 16.9430691 6.10421736 16.7100842 5.87906249 16.4770993 5.65390761 16.3512387 5.34004885 16.3641089 5.0163035 16.3434113 4.6839821 16.4601332 4.35774862 16.6869467 4.1139833 16.9137602 3.87021797 17.2307496 3.73032506 17.5636988 3.72705734zM13.9473355 2.72290344L14.0752483 2.72486171C14.3434053 2.72011316 14.6011322 2.82866578 14.7850837 3.02383897 14.9690351 3.21901216 15.0621542 3.48270836 15.0415535 3.75011503 14.9950737 4.27486784 14.5658063 4.68328927 14.0393912 4.70361073 13.7720148 4.69503146 13.5196968 4.5777989 13.340707 4.37898651 13.1617172 4.18017412 13.0715329 3.91697334 13.0909812 3.65016726 13.0847603 3.39242301 13.1885514 3.14421667 13.3763967 2.96762407 13.5642419 2.79103146 13.8183788 2.7027511 14.0752483 2.72486171zM25.3987236 2.72843342C25.7138562 2.56531476 26.0928281 2.58684095 26.3874626 2.78459533 26.682097 2.98234971 26.84559 3.32491806 26.8140164 3.6783574 26.8103342 3.93457706 26.7019805 4.17813375 26.5141372 4.35242362 26.3262939 4.5267135 26.0753192 4.61655857 25.8195411 4.60107839 25.5513628 4.60688984 25.2937027 4.49677871 25.1125516 4.29894616 24.9314006 4.10111361 24.844354 3.83477536 24.8737058 3.56814473 24.8823579 3.21340342 25.083591 2.89155207 25.3987236 2.72843342zM10.4381767 2.16098555C10.6823982 2.16694336 10.9134516 2.27295478 11.0772469 2.45420236 11.2410423 2.63544993 11.323199 2.87602085 11.3044841 3.11959703 11.3019195 3.70398298 11.0123145 4.04488257 10.509951 4.05001503 10.0818664 4.0551308 9.48469772 3.47330941 9.50773206 3.07600953 9.52825187 2.71204892 10.0972605 2.15072398 10.4381767 2.16098555zM29.7283192 2.47624622C30.2409442 2.4941948 30.4997613 2.7505073 30.4818627 3.19392255 30.5024825 3.39971013 30.4281279 3.60366755 30.2799042 3.74790157 30.1316805 3.89213559 29.9257707 3.96089897 29.7206222 3.93467323 29.3240076 3.92409719 29.0085866 3.59844089 29.0106701 3.20169094 29.0127744 2.804941 29.3316152 2.48263209 29.7283192 2.47624622zM19.719259 1.52788298C20.1193181 1.41609592 20.5465557 1.56671182 20.7880632 1.90467306 21.1135887 2.35322076 21.2802284 2.84277139 20.7342474 3.2810742 20.3010938 3.64503481 19.8474136 3.80907988 19.3373532 3.42204491 18.8324452 3.2503195 18.7709258 2.84533929 18.8375043 2.41216893 18.9118101 1.95903813 19.2663431 1.60348743 19.719259 1.52788298zM23.4537738.000252893007C23.937607.0240437385 24.324492.41096186 24.3482413.894797081 24.2913444 1.34616121 23.9379019 1.70276949 23.4870631 1.76368901 23.2539206 1.75678519 23.0331856 1.65707533 22.8738838 1.4867051 22.714582 1.31633487 22.6299018 1.08940925 22.6386509.856328696 22.6219633.63174722 22.7010352.410583533 22.8563273.247489398 23.0116193.0843952633 23.2286445-.00541453906 23.4537738.000252893007zM16.144027.486235154C16.2928948-.137859781 16.7693525.0131423865 17.1535728.115594684 17.5200847.212994567 17.6892288.83327101 17.5149522 1.20749319 17.3080414 1.59988073 16.8272466 1.75750223 16.4281862 1.56377347 15.9873988 1.31260676 15.7823975.964070188 16.1435868.487425723L16.1435868.487425723 16.1435868.486832106z"/>
</svg>
