<svg xmlns="http://www.w3.org/2000/svg" width="57" height="58" viewBox="0 0 57 58">
  <path fill="#8B3EB7" fill-rule="evenodd" d="M43.5985583,27.648481 C44.9001612,27.6760073 46.2056964,27.5816313 47.4955023,27.707466 C49.1313536,27.8686917 49.8195122,29.0130012 49.8667003,30.5387472 C49.9256853,32.4223356 49.8667003,34.3098564 49.8981589,36.1973772 C49.9060236,36.6535281 49.6976099,37.5579651 50.4368888,37.3849424 C53.3743431,36.6889191 55.0298561,38.706207 56.9449033,40.2280206 C56.9449033,45.4934172 56.9173769,50.7627461 56.9684973,56.032075 C56.9763619,56.8696623 56.8072715,57.0387527 55.9696842,57.031145 C50.9677541,56.9797677 45.9658239,57.007294 40.9599615,57.007294 C40.9520968,50.9593628 40.9638938,44.9114316 40.9088411,38.8635004 C40.9009765,37.8057023 41.1290519,37.3416867 42.2851584,37.4242658 C43.641814,37.5225741 45.0141989,37.3810101 46.3747868,37.4675214 C47.5662843,37.5461681 48.1600669,37.286634 48.0499615,35.9103168 C47.9241268,34.3609768 47.9359238,32.7841105 48.0420968,31.2308381 C48.1482699,29.7050922 47.4522466,29.2764676 46.083794,29.3787084 C45.2422743,29.4416257 44.3968223,29.3787084 43.5513703,29.3905054 C43.0008434,29.39837 42.7255799,29.1820916 42.7059182,28.5922414 C42.6862566,27.9355414 42.926129,27.6327516 43.5985583,27.648481 Z M13.2723908,27.648481 C13.8661734,27.636684 14.2633392,27.7625187 14.2712039,28.4900006 C14.2751362,29.1781593 13.9684141,29.4258964 13.3313758,29.3905054 C13.2016088,29.3826407 13.0718417,29.386573 12.9420747,29.3905054 C9.10515443,29.5645668 8.96036499,29.5711352 8.95490124,33.2152857 L8.95472611,34.8333423 C8.95629172,37.3967698 9.02048165,37.3979862 11.6522688,37.4478598 C13.5004662,37.4832508 16.03289,39.9645542 16.0368223,41.7970223 C16.044687,46.8658021 16.0250253,51.9385142 16.0132283,57.007294 L16.0132283,57.007294 L0.0322188682,57.007294 C0.0322188682,51.0262125 0.0597452131,45.045131 0.00469252319,39.0679818 C-0.0031721468,37.8686196 0.213106278,37.1961903 1.56189718,37.4439274 C1.75064926,37.4793184 1.95119835,37.4635891 2.14388276,37.4478598 C2.59201166,37.411525 3.08545993,37.452264 3.58270639,37.5062843 L4.0088794,37.5543522 C5.14265626,37.6832714 6.23429762,37.7863552 6.78797039,37.1018143 C7.59409906,36.1030012 7.0475045,34.0070666 7.09076018,32.3948093 C7.11042186,31.616207 7.02391049,30.8218753 7.14974521,30.0590023 C7.36995597,28.7180761 8.12103195,27.778248 9.57206357,27.6917366 C10.8028844,27.6170223 12.0376376,27.6681426 13.2723908,27.648481 Z M27.0709543,0.130000661 C31.022951,-0.628939993 35.2069554,2.01752146 36.2332948,5.91839777 C37.3068223,10.0158908 35.0771883,14.2234893 31.1094623,15.6312652 C30.3465893,15.9025963 29.3202499,15.7295736 29.3163176,17.1491465 C29.3084529,19.5871942 29.2022799,19.5871942 31.6639216,19.5871942 C33.6772771,19.5911266 35.6906326,19.5675325 37.7000558,19.5950589 C39.9414867,19.6265176 40.9245705,20.5742103 40.9520968,22.7802502 C40.9874878,25.4463734 40.9914202,28.1085642 40.9520968,30.7746873 C40.9206381,32.8588248 39.9414867,33.8537056 37.8219582,33.9048259 C35.4900835,33.963811 33.1464119,34.0149313 30.8145372,33.8851643 C29.3163176,33.8025852 29.3045206,34.5851199 29.3399116,35.6586473 C29.3753026,36.6535281 29.1747535,37.6287472 30.7712815,37.4793184 C32.0768167,37.3613484 33.3037053,37.3416867 34.4991351,38.4859962 C36.0366781,39.9606218 36.6147313,41.4667061 36.5793403,43.5823024 C36.5006936,48.0533672 36.3355355,52.5322968 36.6737164,57.007294 L36.6737164,57.007294 L20.3034058,57.007294 C20.6376542,51.2346263 20.4213758,45.4540938 20.4095788,39.681426 C20.4056465,37.9944543 20.6966393,37.1411376 22.5880924,37.4242658 C23.6026348,37.5736945 24.6722299,37.3574161 25.6985694,37.4714538 C27.1889243,37.6326795 27.7158572,37.1725963 27.6804662,35.5800006 C27.6450752,34.1682924 27.2007214,33.8340439 25.8873215,33.8930289 C23.7520636,33.9913373 21.6050087,33.9441493 19.4618861,33.9126906 C16.972718,33.8772996 16.044687,32.9492685 16.0250253,30.4994238 C16.009296,27.9040827 15.9974989,25.3048093 16.03289,22.7055359 C16.0604163,20.6135337 17.0435001,19.6343822 19.155164,19.5989912 C21.2982865,19.5596679 23.4414091,19.6540439 25.5805993,19.5518032 C26.292352,19.5164122 27.6254135,20.3028792 27.5978872,18.6355691 C27.5939548,18.4035614 27.6142457,18.1651046 27.633404,17.9279376 L27.6512458,17.6914872 C27.7083945,16.8281806 27.6366862,16.0168962 26.1861789,15.6391299 C22.9420026,14.7976102 21.0741434,12.4618032 20.5865339,9.12718313 C19.9691573,4.86453199 22.8240325,0.943994005 27.0709543,0.130000661 Z M23.5082588,39.1859518 C22.4150697,39.1584255 22.2184529,39.610644 22.2459793,40.5662014 C22.3010319,42.7761737 22.2617086,44.986146 22.2617086,47.1961182 C22.2617086,49.4060905 22.3206936,51.6160628 22.2381146,53.8221027 C22.1948589,54.9546152 22.5723631,55.2495403 23.6655522,55.2259463 C26.9097286,55.1590966 30.1578373,55.1708936 33.4020136,55.2220139 C34.3850974,55.2377433 34.7547369,54.9821415 34.7350752,53.9282757 C34.6760902,50.0942491 34.7311429,46.2602225 34.7036165,42.4261959 C34.6957519,40.8414649 33.0913592,39.2410045 31.4908988,39.2174105 C28.828708,39.1820195 26.1665172,39.2567339 23.5082588,39.1859518 Z M44.0783032,39.1859518 C42.8828733,39.1544932 42.6823242,39.6892907 42.7059182,40.7116978 C42.7609709,42.850888 42.7255799,44.997943 42.7255799,47.1410655 C42.7255799,49.3471055 42.7688356,51.5570777 42.7059182,53.7631177 C42.6744596,54.8327128 42.9654523,55.2495403 44.1097618,55.2259463 C47.3500059,55.1551642 50.5981146,55.1590966 53.8383586,55.2220139 C54.9040214,55.2416756 55.1360292,54.8405774 55.1242322,53.8653584 C55.0809765,50.0313318 55.1242322,46.2012375 55.0967058,42.3672108 C55.0849088,40.8571942 53.5355688,39.2449369 52.0570109,39.2213428 C49.3987524,39.1820195 46.7365616,39.2606662 44.0783032,39.1859518 Z M3.24493656,39.1820195 C2.08489774,39.1466285 1.81749896,39.6027793 1.8450253,40.6605775 C1.90794266,42.8666174 1.86468698,45.0765897 1.86468698,47.2865619 C1.86468698,49.4965342 1.911875,51.7065065 1.8450253,53.9125464 C1.80963429,54.9506828 2.17140911,55.2416756 3.17808686,55.2220139 C6.42226324,55.1708936 9.66643961,55.1748259 12.910616,55.2220139 C13.8858351,55.2338109 14.3026626,54.9821415 14.2869332,53.9204111 C14.2358129,50.0863844 14.2869332,46.2523578 14.2554745,42.4222635 C14.2436775,40.8650589 12.5881645,39.2331399 11.0309598,39.2134782 C8.43561875,39.1820195 5.83634532,39.2567339 3.24493656,39.1820195 Z M4.47968975,51.6121304 C6.86268475,51.6396568 9.2496121,51.6357244 11.6326071,51.6160628 C12.3089687,51.6081981 12.4937885,51.9070555 12.5291795,52.5401615 C12.5724352,53.3384255 12.2263897,53.5271776 11.5107047,53.5035836 C10.2877485,53.4642602 9.06086002,53.4917865 7.83790383,53.4917865 C6.74078237,53.4917865 5.64759324,53.4878542 4.55047178,53.4917865 C4.00780955,53.4957189 3.52806468,53.4996512 3.54772635,52.7092519 C3.56345569,52.0407549 3.65783173,51.6042657 4.47968975,51.6121304 Z M45.4113647,51.6081981 C47.7982921,51.6435891 50.1891517,51.6357244 52.5760791,51.6160628 C53.2721024,51.6081981 53.4372604,51.9424466 53.4451251,52.5676878 C53.4569221,53.1968614 53.2878317,53.5193129 52.5918084,53.4996512 C51.3649199,53.4681925 50.1380314,53.4917865 48.9111429,53.4917865 C47.751104,53.4917865 46.5871329,53.4799895 45.4270941,53.4996512 C44.8451085,53.5075159 44.4361456,53.4367339 44.4558073,52.6777932 C44.4715366,51.9896346 44.5973714,51.5964011 45.4113647,51.6081981 Z M31.9588467,51.6160628 C32.7335167,51.5924687 32.9301334,51.9817699 32.9419304,52.6817255 C32.9537274,53.4249369 32.5486969,53.4996512 31.9667114,53.4957189 C29.6505661,53.4839219 27.3344207,53.4839219 25.0182754,53.4957189 C24.4480869,53.4996512 24.0194623,53.4445985 24.0351917,52.6935225 C24.0469887,52.0014316 24.2239438,51.5964011 25.0064784,51.6160628 C26.2294346,51.6435891 27.4523908,51.6239274 28.675347,51.6239274 C29.7685361,51.6199951 30.8656576,51.6435891 31.9588467,51.6160628 Z M31.8133503,48.0572996 C32.4700502,48.0455026 32.9419304,48.1320139 32.9497951,48.9735336 C32.9576598,49.763933 32.6037496,49.9684144 31.8841323,49.9566174 C29.6112427,49.929091 27.3344207,49.929091 25.0615311,49.9605497 C24.3143875,49.9684144 24.0194623,49.7010156 24.027327,48.942075 C24.0351917,48.0808936 24.5621246,48.0533672 25.1912982,48.0612319 C26.292352,48.0730289 27.3973381,48.0651643 28.5023242,48.0651643 C29.6073104,48.0651643 30.7122965,48.0808936 31.8133503,48.0572996 Z M52.4266503,48.0533672 C53.1580647,48.0455026 53.4569221,48.2657133 53.4569221,49.0443157 C53.4569221,49.8897677 53.0125683,49.9684144 52.3558683,49.9566174 C51.2587469,49.9330234 50.1616254,49.9487527 49.0605716,49.9487527 C47.9005328,49.9487527 46.7365616,49.9369557 45.5765228,49.9526851 C44.9434168,49.9644821 44.4479426,49.940888 44.4518517,49.0679097 C44.4518517,48.3168337 44.6917474,48.0415702 45.4506881,48.0533672 C47.7786304,48.0887583 50.1026404,48.0848259 52.4266503,48.0533672 Z M4.40761934,48.0641207 L4.54653944,48.0651643 C5.71444294,48.1084199 6.88234643,48.0769613 8.05024992,48.0769613 C9.21422108,48.0769613 10.3821246,48.0966229 11.5500281,48.0690966 C12.15954,48.0572996 12.5134501,48.1831343 12.5173825,48.9106163 C12.5252471,49.6341659 12.3443597,49.9644821 11.5421634,49.9487527 C9.21028875,49.9094294 6.87448176,49.929091 4.53867477,49.940888 C3.94489219,49.9448204 3.56738803,49.834715 3.55559102,49.0993684 C3.54379402,48.3600894 3.77186945,48.0376379 4.54653944,48.0651643 Z M11.416368,44.5181981 C12.0258799,44.5103334 12.5606775,44.4749424 12.5292188,45.3793795 C12.5095571,46.1068614 12.3050757,46.4175159 11.5304057,46.4057189 C9.21426041,46.3703279 6.89418276,46.3742602 4.57410511,46.4017865 C3.8426908,46.4096512 3.55563035,46.1619141 3.53990101,45.3951088 C3.52417167,44.5103334 4.03144288,44.5103334 4.65275181,44.5181981 C5.81279063,44.5299951 6.97282946,44.5221304 8.13286828,44.5221304 C9.22605741,44.5221304 10.3231789,44.5299951 11.416368,44.5181981 Z M52.399124,44.5103334 C53.0754856,44.4906717 53.4687191,44.6165065 53.4569221,45.4462291 C53.4451251,46.2523578 53.0754856,46.4096512 52.3833947,46.4017865 C50.0593847,46.3781925 47.7353747,46.3703279 45.4113647,46.4057189 C44.5973714,46.4175159 44.4715366,46.0242824 44.4558073,45.3361238 C44.4361456,44.5811154 44.8411761,44.5064011 45.4231617,44.5142658 C46.6500502,44.5339274 47.8769388,44.5221304 49.1038273,44.5181981 C50.2009487,44.5181981 51.3020025,44.5417921 52.399124,44.5103334 Z M24.9858026,44.5127618 L25.1008545,44.5142658 C26.256961,44.5417921 27.4169998,44.5221304 28.5770386,44.5221304 C29.7331451,44.5221304 30.8931839,44.5457244 32.0492904,44.5142658 C32.713855,44.4946041 32.9615921,44.7580705 32.9419304,45.4147705 C32.9183364,46.0164177 32.7649754,46.3978542 32.0689521,46.3939219 C29.6859571,46.3821249 27.3068944,46.3821249 24.9238994,46.3939219 C24.2436054,46.3978542 24.0666504,46.0439441 24.0312593,45.4304998 C23.980139,44.5929125 24.4362898,44.4985364 25.1008545,44.5142658 Z M25.8165394,40.8532225 C26.5164951,41.234659 27.6175489,40.4088687 27.6686692,41.7812536 C27.712908,42.9845481 27.0316309,42.9469452 26.3697084,42.8711863 L26.1817577,42.8495416 C26.0266435,42.8323708 25.876648,42.8195305 25.7418251,42.8272547 C25.0025461,42.8665781 23.9172216,43.2283529 23.9998007,41.7891183 C24.0902444,40.2201166 25.3761179,41.4509375 25.8165394,40.8532225 Z M5.41558548,40.9279369 C5.58286096,41.0083985 5.78519588,41.0076249 5.99181731,40.9913825 L6.16925341,40.9752061 C6.67089617,40.9273319 7.14596412,40.8990494 7.15367754,41.832374 C7.16547455,43.3187966 6.04475908,42.8036607 5.34087111,42.7997284 C5.19172326,42.7988857 5.02144915,42.8227807 4.84660928,42.8460308 L4.67086084,42.8681258 C4.0840487,42.934792 3.50784124,42.9002838 3.55559102,41.8245093 C3.62637305,40.271237 4.84932924,41.3251027 5.41558548,40.9279369 Z M44.4676043,41.7930899 C44.581642,40.279141 45.7416809,41.100999 46.3983808,41.0341493 C46.9803664,40.9751643 48.0735555,40.444299 48.0617585,41.863872 C48.0499615,43.3738886 46.893855,42.626745 46.2371551,42.8548204 C45.5214701,42.6778653 44.3535666,43.3109712 44.4676043,41.7930899 Z M19.5326681,21.4314593 C18.2507269,21.4000007 17.8181701,21.8443545 17.8535611,23.1105664 C17.9282754,25.5722081 17.9007491,28.0377821 17.8653581,30.5033562 C17.8535611,31.5100339 18.1012982,32.0802225 19.2692017,32.0724381 C25.4272383,32.0408991 31.5852749,32.0448315 37.7393791,32.0684255 C38.7499892,32.0724381 39.1353581,31.6358686 39.1274934,30.6724466 C39.1117641,28.0771055 39.099967,25.4817644 39.1353581,22.8864233 C39.1510874,21.7893018 38.6870719,21.4196623 37.6135444,21.439324 C34.6328345,21.486512 31.6521246,21.4550533 28.6714146,21.4550533 C25.623855,21.4550533 22.5762954,21.5061737 19.5326681,21.4314593 Z M32.0807491,25.7923795 C32.7649754,25.7923795 32.9891185,26.1069663 32.9379981,26.7046812 C32.9655245,27.3220578 32.784637,27.6720356 32.0886137,27.7034943 C31.2667557,27.7428177 31.1566504,27.3141932 31.1487857,26.6456962 C31.1369887,25.9496729 31.4555078,25.7884472 32.0807491,25.7923795 Z M27.5978872,26.6103445 C27.5821578,25.8789302 27.9793237,25.7530955 28.5691739,25.8120805 C29.3084529,25.7295015 29.3753026,26.1974493 29.3753026,26.7637056 C29.3753026,27.3692852 29.1904829,27.6878043 28.5062566,27.7035336 C27.6608045,27.7231953 27.6175489,27.2434505 27.5978872,26.6103445 Z M24.9553581,25.7884865 C25.6317197,25.8002835 25.8440658,26.0716146 25.8244041,26.7047206 C25.8047424,27.2631121 25.7693514,27.754654 25.0143431,27.683872 C24.4087635,27.7507217 24.050921,27.5462402 24.0312593,26.862014 C24.0115977,26.193517 24.1295677,25.7688248 24.9553581,25.7884865 Z M48.2505106,0.0434499675 C51.8800558,-0.231813482 55.2146759,1.90344442 56.4926847,5.30491419 C56.6145871,5.63916267 56.437632,6.11890754 56.9449033,6.27620093 L56.9449033,6.27620093 L56.9449033,10.1810096 C55.5292627,12.9611704 53.7361179,15.3166391 50.4250918,15.961542 C49.8838175,16.0670211 49.8460997,16.413502 49.8679697,16.7727764 L49.8818149,16.9524232 C49.8891649,17.0417232 49.8956145,17.1294455 49.8942266,17.2120246 C49.8706326,19.0287633 49.9178206,20.8494344 49.8745649,22.6622409 C49.8195122,24.8800778 48.8560902,25.7923795 46.6185916,25.8317029 C45.6473048,25.8474322 44.6720857,25.8277705 43.700799,25.8397276 C43.1306104,25.8434999 42.6823242,25.7805825 42.7098506,25.0177095 C42.7334446,24.3767389 42.9654523,24.0621521 43.630017,24.0739491 C44.605236,24.0896785 45.5765228,24.0582198 46.5478095,24.0778815 C47.6016753,24.0975431 48.0971495,23.6571216 48.0302998,22.5600002 C47.9752471,21.6555631 47.9398561,20.7353967 48.0381645,19.8388243 C48.2859016,17.5187467 48.0027735,15.9654744 45.2344096,15.021714 C41.9391129,13.9009985 40.3465172,9.83496411 41.0700669,6.44529134 C41.8093459,2.97303954 44.8018528,0.302984077 48.2505106,0.0434499675 Z M0.417587698,5.57231297 C1.56976185,1.99782046 5.08920167,-0.302595512 8.85244626,0.0513146374 C12.4544651,0.393427782 15.5570774,3.40166405 15.9896343,6.96829189 C16.4575821,10.8416419 14.2633392,14.4987134 10.5472826,15.5958349 C9.20242408,15.996933 8.75413789,16.5592569 8.94288997,17.8569275 C9.01760433,18.368131 8.95468697,18.8950639 8.95468697,19.4180645 L8.95468697,19.4180645 L8.95489914,19.8769578 C8.96041556,23.705642 9.10935882,23.7289231 13.1308267,24.0621521 C13.7875267,24.1172048 14.2476099,24.1722575 14.2672716,24.9980478 C14.2848636,25.8389466 13.7956201,25.839317 13.2783756,25.8357109 L13.0954357,25.8356352 C12.5095178,25.8395675 11.9275322,25.8356352 11.3416143,25.8356352 C7.74352779,25.8317029 7.09469252,25.1710706 7.09076018,21.4982697 C7.09076018,21.1758182 7.07109851,20.8494344 7.09469252,20.5230506 C7.28737693,17.9984916 7.29130927,16.00873 4.07465924,14.8290295 C0.551287088,13.5392237 -0.750315796,9.1939935 0.417587698,5.57231297 Z M28.5180536,1.87591913 C25.1047868,1.86416039 22.3167613,4.58140388 22.2695733,7.96714431 C22.2184529,11.3410877 24.9632227,14.1605719 28.3607602,14.2234893 C31.8408766,14.2864066 34.7193459,11.4787195 34.707585,8.02612933 C34.6957519,4.64432124 31.9234557,1.89168674 28.5180536,1.87591913 Z M48.9897896,1.87985041 C45.5175378,1.8562564 42.7963619,4.53417653 42.7727679,7.99856366 C42.7491739,11.4629508 45.4349587,14.1919913 48.8914812,14.2195176 C52.351936,14.247044 55.0770441,11.5612592 55.1006381,8.09687204 C55.1242322,4.61282323 52.458109,1.90344442 48.9897896,1.87985041 Z M8.10530261,1.87985041 C4.62125381,1.84839173 1.90794266,4.50271785 1.87255165,7.97496965 C1.84109297,11.4550861 4.50328376,14.1880589 7.96373855,14.2195176 C11.4241933,14.2549086 14.1650308,11.5730562 14.2043542,8.11653371 C14.2397452,4.65214658 11.5618251,1.91130909 8.10530261,1.87985041 Z"/>
</svg>
