<svg xmlns="http://www.w3.org/2000/svg" viewBox="0 0 24 24"><path fill="#e91e63" d="M8.843 12.651a2.52 2.52 0 0 0-2.521 2.521v6.306a2.521 2.521 0 0 0 5.042 0v-6.306a2.523 2.523 0 0 0-2.521-2.521M.019 15.172a2.524 2.524 0 0 0 5.046 0v-2.523H2.542a2.524 2.524 0 0 0-2.523 2.523"/><path fill="#00bcd4" d="M8.846-.001h-.003a2.524 2.524 0 0 0 0 5.046h2.521V2.517A2.52 2.52 0 0 0 8.846-.001M2.525 11.37h6.318a2.524 2.524 0 0 0 0-5.046H2.525a2.524 2.524 0 0 0 0 5.046"/><path fill="#4caf50" d="M21.457 6.323a2.52 2.52 0 0 0-2.518 2.518v2.528h2.521a2.524 2.524 0 0 0 0-5.046zm-8.816-3.801v6.325a2.521 2.521 0 0 0 5.042 0V2.522a2.521 2.521 0 0 0-5.042 0"/><path fill="#ff9800" d="M17.682 21.476a2.52 2.52 0 0 0-2.521-2.521H12.64v2.523a2.521 2.521 0 0 0 5.042-.002m3.797-8.827h-6.318a2.524 2.524 0 0 0 0 5.046h6.318a2.524 2.524 0 0 0 0-5.046"/></svg>