<svg xmlns="http://www.w3.org/2000/svg" width="98.488" height="80.021" viewBox="0 0 98.488 80.021"><path fill="#03a9f4" d="M98.488,57.473a42.1,42.1,0,0,1-11.634,3.189A20.078,20.078,0,0,0,95.736,49.5a40.35,40.35,0,0,1-12.8,4.887A20.189,20.189,0,0,0,48.007,68.2a20.79,20.79,0,0,0,.468,4.6A57.15,57.15,0,0,1,6.857,51.681a20.2,20.2,0,0,0,6.2,26.986A19.94,19.94,0,0,1,3.939,76.18V76.4A20.284,20.284,0,0,0,20.116,96.241a20.152,20.152,0,0,1-5.294.665A17.853,17.853,0,0,1,11,96.561a20.383,20.383,0,0,0,18.867,14.065,40.57,40.57,0,0,1-25.034,8.612A37.819,37.819,0,0,1,0,118.96a56.843,56.843,0,0,0,30.974,9.061c37.154,0,57.468-30.777,57.468-57.455,0-.893-.031-1.754-.074-2.61A40.28,40.28,0,0,0,98.488,57.473Z" transform="translate(0 -48)"/></svg>