<svg xmlns="http://www.w3.org/2000/svg" width="98.488" height="80.021" viewBox="0 0 98.488 80.021"><path fill="#03a9f4" d="M98.488 9.473a42.1 42.1 0 0 1-11.634 3.189A20.08 20.08 0 0 0 95.736 1.5a40.4 40.4 0 0 1-12.8 4.887A20.189 20.189 0 0 0 48.007 20.2a20.8 20.8 0 0 0 .468 4.6A57.15 57.15 0 0 1 6.857 3.681a20.2 20.2 0 0 0 6.2 26.986 19.94 19.94 0 0 1-9.118-2.487v.22a20.284 20.284 0 0 0 16.177 19.841 20.2 20.2 0 0 1-5.294.665A18 18 0 0 1 11 48.561a20.38 20.38 0 0 0 18.867 14.065 40.57 40.57 0 0 1-25.034 8.612A38 38 0 0 1 0 70.96a56.84 56.84 0 0 0 30.974 9.061c37.154 0 57.468-30.777 57.468-57.455 0-.893-.031-1.754-.074-2.61a40.3 40.3 0 0 0 10.12-10.483"/></svg>