<svg xmlns="http://www.w3.org/2000/svg" xml:space="preserve" width="354.346" height="659.055" overflow="visible" viewBox="0 0 354.346 659.055"><g fill-rule="evenodd" clip-rule="evenodd"><path fill="#0074bd" d="M117.151 349.592s-17.265 10.049 12.301 13.44c35.824 4.09 54.13 3.501 93.596-3.959 0 0 10.397 6.504 24.892 12.137-88.501 37.917-200.296-2.197-130.789-21.618m-10.82-49.488s-19.367 14.339 10.221 17.397c38.271 3.951 68.483 4.275 120.792-5.792 0 0 7.218 7.332 18.585 11.339-106.986 31.294-226.147 2.462-149.598-22.944"/><path fill="#ea2d2e" d="M197.494 216.145c21.818 25.115-5.721 47.697-5.721 47.697s55.367-28.577 29.945-64.38c-23.752-33.373-41.962-49.951 56.623-107.124.001 0-154.754 38.641-80.847 123.807"/><path fill="#0074bd" d="M314.542 386.202s12.781 10.536-14.077 18.684c-51.071 15.469-212.604 20.135-257.47.619-16.117-7.02 14.121-16.75 23.635-18.805 9.92-2.146 15.584-1.754 15.584-1.754-17.937-12.631-115.935 24.807-49.772 35.544 180.429 29.246 328.895-13.173 282.1-34.288M125.46 248.822s-82.155 19.519-29.092 26.613c22.412 2.999 67.063 2.309 108.685-1.183 34.006-2.854 68.133-8.958 68.133-8.958s-11.982 5.14-20.657 11.06C169.085 298.301 7.917 288.08 54.322 265.642c39.227-18.977 71.138-16.82 71.138-16.82m147.386 82.376c84.818-44.063 45.597-86.412 18.223-80.708-6.694 1.397-9.697 2.607-9.697 2.607s2.494-3.907 7.243-5.588c54.155-19.03 95.794 56.146-17.464 85.919-.001 0 1.302-1.18 1.695-2.23"/><path fill="#ea2d2e" d="M221.719 0s46.963 46.99-44.557 119.227c-73.393 57.969-16.734 91.009-.026 128.778-42.845-38.653-74.271-72.684-53.192-104.352C154.898 97.174 240.663 74.632 221.719 0"/><path fill="#0074bd" d="M133.799 450.637c81.397 5.204 206.426-2.896 209.385-41.415 0 0-5.688 14.602-67.276 26.188-69.481 13.081-155.197 11.558-206.016 3.167 0 0 10.411 8.617 63.907 12.06"/><path fill="#ea2d2e" d="M339.426 519.716h-2.479v-1.385h6.676v1.385h-2.469v6.928h-1.729zm13.33.351h-.032l-2.461 6.576h-1.132l-2.446-6.576h-.025v6.576h-1.638v-8.313h2.402l2.264 5.885 2.271-5.885h2.388v8.313h-1.59v-6.576zm-232.295 77.746c-7.676 6.654-15.793 10.396-23.079 10.396-10.378 0-16.007-6.236-16.007-16.216 0-10.803 6.027-18.71 30.163-18.71h8.923zm21.189 23.903V547.72c0-18.915-10.787-31.396-36.782-31.396-15.168 0-28.467 3.75-39.278 8.525l3.111 13.106c8.515-3.127 19.526-6.031 30.337-6.031 14.978 0 21.423 6.031 21.423 18.505v9.356h-7.485c-36.383 0-52.798 14.11-52.798 35.336 0 18.285 10.819 28.682 31.185 28.682 13.088 0 22.87-5.405 32.001-13.315l1.663 11.228zm70.712 0h-26.423l-31.807-103.502h23.077l19.743 63.6 4.391 19.109c9.965-27.639 17.032-55.701 20.566-82.709h22.445c-6.002 34.08-16.831 71.492-31.992 103.502m101.393-23.903c-7.701 6.654-15.82 10.396-23.086 10.396-10.382 0-16.011-6.236-16.011-16.216 0-10.803 6.039-18.71 30.154-18.71h8.942v24.53zm21.196 23.903V547.72c0-18.915-10.818-31.396-36.789-31.396-15.188 0-28.484 3.75-39.295 8.525l3.116 13.106c8.519-3.127 19.545-6.031 30.355-6.031 14.96 0 21.416 6.031 21.416 18.505v9.356h-7.485c-36.391 0-52.801 14.11-52.801 35.336 0 18.285 10.804 28.682 31.169 28.682 13.099 0 22.862-5.405 32.018-13.315l1.674 11.228zm-298.01 17.59c-6.037 8.821-15.8 15.809-26.479 19.749L0 646.731c8.135-4.178 15.103-10.912 18.345-17.182 2.796-5.589 3.96-12.773 3.96-29.971v-118.18h22.519v116.551c0 23.001-1.836 32.3-7.883 41.357"/></g></svg>