<svg xmlns="http://www.w3.org/2000/svg" xml:space="preserve" id="Capa_1" x="0" y="0" viewBox="0 0 522.5 522.5"><style>.st0{fill:#fefefe}</style><g id="VJU2qc.tif"><path d="M499 261.8c-.6 131.7-107.1 238.1-238.2 237.8C129.1 499.2 23.1 392.1 23.5 260c.4-131 107.3-237.3 238.4-237S499.6 130.6 499 261.8" class="st0"/><path d="M499 261.8c-.6 131.7-107.1 238.1-238.2 237.8C129.1 499.2 23.1 392.1 23.5 260c.4-131 107.3-237.3 238.4-237S499.6 130.6 499 261.8" style="fill:#1a1a1a"/><path d="M297.2 137.8c9.5.1 15.9 8.9 12.8 18.5-6.5 20.6-13.3 41-20.1 61.5-17 51.7-33.9 103.5-50.9 155.2-3 9.1-9.9 13.4-17.7 10.9-8.5-2.7-11.9-10.1-8.8-19.6 7.4-22.7 14.9-45.4 22.4-68.1 16-48.7 32-97.5 48-146.2 2.9-8.5 7.3-12.2 14.3-12.2m94.4 123.5c-18.2-8.4-35.7-16.4-53.1-24.4-5.1-2.4-10.3-4.6-15.4-7-8-3.8-11.1-11.6-7.8-18.9 3.2-7 11.3-10.1 19-6.6 32 14.5 63.9 29.2 95.9 43.8 5.6 2.6 8.9 6.9 8.8 13.3-.1 6.1-3.3 10.3-8.7 12.8-31.9 14.6-63.9 29.3-95.8 43.9-8.1 3.7-16 .7-19.2-6.7s.1-15 8.2-18.8c20.9-9.7 41.9-19.2 62.8-28.8 1.4-.7 2.9-1.5 5.3-2.6m-260.8.2c22.9 10.5 44.9 20.5 67 30.5 5.3 2.4 9.4 5.7 10.3 11.8.8 5.3-1 9.9-5.3 13.2-4.5 3.4-9.4 3.8-14.5 1.4-21.7-10-43.4-19.9-65.1-29.8-9.9-4.6-19.9-9.2-29.8-13.6-6-2.7-9.9-6.7-9.9-13.6s3.9-10.8 9.9-13.5c31.4-14.2 62.7-28.7 94.1-43 11.1-5.1 22.1 2.1 20.8 13.6-.6 6.1-4.6 9.6-9.9 12.1-20.7 9.4-41.3 18.9-61.9 28.4-1.8.6-3.5 1.4-5.7 2.5" class="st0"/></g></svg>