<svg xmlns="http://www.w3.org/2000/svg" width="114.561" height="122.834" viewBox="0 0 30.311 32.5"><path d="M360.049 687.873v18.898l32.73 18.899v-18.9zm-65.463 18.898v18.899l16.365 9.447v-18.896Zm49.096 9.45-16.366 9.449v56.691l16.366 9.45v-37.795l16.367 9.449v-18.899l-16.367-9.449z" style="fill:#e55b2d;fill-opacity:1" transform="translate(-77.943 -177)scale(.26458)"/><path d="m360.049 687.873-49.098 28.348v18.896l32.73-18.896v18.896l16.368-9.447zm49.097 9.45-16.367 9.448v18.899l16.367-9.45zm-32.732 37.794-16.365 9.45v18.898l16.365-9.45zm-16.365 28.348-16.367-9.45v37.796l16.367-9.45z" style="fill:#ed8e24;fill-opacity:1" transform="translate(-77.943 -177)scale(.26458)"/><path d="m360.049 668.977-65.463 37.794 16.365 9.45 49.098-28.348 32.73 18.898 16.367-9.449zm0 56.693-16.367 9.447 16.367 9.45 16.365-9.45z" style="fill:#f8bf3c;fill-opacity:1" transform="translate(-77.943 -177)scale(.26458)"/></svg>